# Blender 3.3.1
# www.blender.org
mtllib Barrier.mtl
o Cube
v -2.763693 2.138998 -0.186041
v -3.439928 0.138998 -0.620053
v -2.763693 3.535802 0.186041
v -3.439928 0.138998 0.620053
v 0.000000 0.138998 -0.620053
v 0.000000 3.535802 0.186041
v 0.000000 0.138998 0.620053
v 0.000000 2.138998 -0.186041
v -1.674648 3.535802 0.186041
v -1.935882 0.138998 0.620053
v -1.048299 3.535802 0.186041
v -1.228761 0.138998 0.620053
v -3.610277 0.138500 1.117722
v -2.934042 3.535305 0.683710
v -1.859244 3.535305 0.683710
v -1.075869 0.138500 1.117722
v -0.214859 0.138500 1.117722
v -0.214859 3.535305 0.683710
v -2.120478 0.138500 1.117722
v -0.895407 3.535305 0.683710
v 2.763693 2.138998 -0.186041
v 3.439928 0.138998 -0.620053
v 2.763693 3.535802 0.186041
v 3.439928 0.138998 0.620053
v 1.674648 3.535802 0.186041
v 1.935882 0.138998 0.620053
v 1.048299 3.535802 0.186041
v 1.228761 0.138998 0.620053
v 3.610277 0.138500 1.117722
v 2.934042 3.535305 0.683710
v 1.859244 3.535305 0.683710
v 1.075869 0.138500 1.117722
v 0.214859 0.138500 1.117722
v 0.214859 3.535305 0.683710
v 2.120478 0.138500 1.117722
v 0.895407 3.535305 0.683710
v -2.763693 3.535802 0.186041
v -3.439928 0.138998 0.620053
v -2.763693 3.535802 -0.186041
v -3.439928 0.138998 -0.620053
v 0.000000 0.138998 0.620053
v 0.000000 3.535802 -0.186041
v 0.000000 0.138998 -0.620053
v 0.000000 3.535802 0.186041
v -1.674648 3.535802 -0.186041
v -1.935882 0.138998 -0.620053
v -1.048299 3.535802 -0.186041
v -1.228761 0.138998 -0.620053
v -3.610277 0.138500 -1.117722
v -2.934042 3.535305 -0.683710
v -1.859244 3.535305 -0.683710
v -1.075869 0.138500 -1.117722
v -0.214859 0.138500 -1.117722
v -0.214859 3.535305 -0.683710
v -2.120478 0.138500 -1.117722
v -0.895407 3.535305 -0.683710
v 2.763693 3.535802 0.186041
v 3.439928 0.138998 0.620053
v 2.763693 3.535802 -0.186041
v 3.439928 0.138998 -0.620053
v 1.674648 3.535802 -0.186041
v 1.935882 0.138998 -0.620053
v 1.048299 3.535802 -0.186041
v 1.228761 0.138998 -0.620053
v 3.610277 0.138500 -1.117722
v 2.934042 3.535305 -0.683710
v 1.859244 3.535305 -0.683710
v 1.075869 0.138500 -1.117722
v 0.214859 0.138500 -1.117722
v 0.214859 3.535305 -0.683710
v 2.120478 0.138500 -1.117722
v 0.895407 3.535305 -0.683710
v -1.363158 6.312036 -0.186041
v -2.249637 6.312036 -0.186041
v -2.249637 6.312036 0.186041
v 0.000000 6.312036 0.186041
v 0.000000 6.312036 -0.186041
v -0.853312 6.312036 -0.186041
v 1.363158 6.312036 -0.186041
v 2.249637 6.312036 -0.186041
v 2.249637 6.312036 0.186041
v 0.853312 6.312036 -0.186041
vn -0.0000 0.2574 -0.9663
vn -0.9361 0.1454 -0.3203
vn -0.9492 0.2379 -0.2061
vn -0.0000 0.2121 -0.9773
vn -0.0000 -1.0000 -0.0000
vn -0.0000 0.1267 0.9919
vn -0.0000 -1.0000 -0.0010
vn 0.9372 -0.0277 0.3476
vn 0.9169 0.0506 0.3959
vn -0.9522 0.0880 0.2926
vn -0.0000 1.0000 0.0010
vn 0.9361 0.1454 -0.3203
vn 0.9492 0.2379 -0.2061
vn -0.9372 -0.0277 0.3476
vn -0.9169 0.0506 0.3959
vn 0.9522 0.0880 0.2926
vn -0.0000 -0.0000 -1.0000
vn -0.9361 0.1454 0.3203
vn -0.9808 0.1952 -0.0000
vn -0.0000 0.1267 -0.9919
vn -0.0000 -1.0000 0.0010
vn 0.9372 -0.0277 -0.3476
vn 0.9169 0.0506 -0.3959
vn -0.9522 0.0880 -0.2926
vn -0.0000 1.0000 -0.0010
vn 0.9361 0.1454 0.3203
vn 0.9808 0.1952 -0.0000
vn -0.9372 -0.0277 -0.3476
vn -0.9169 0.0506 -0.3959
vn 0.9522 0.0880 -0.2926
vn -0.0000 1.0000 -0.0000
vn -0.9833 0.1821 -0.0000
vn 0.9833 0.1821 -0.0000
vn -0.0000 -0.0000 1.0000
vt 0.875000 0.500000
vt 0.625000 0.250000
vt 0.375000 0.250000
vt 0.125000 0.500000
vt 0.625000 0.000000
vt 0.875000 0.750000
vt 0.375000 0.000000
vt 0.125000 0.750000
vt 0.375000 0.375000
vt 0.250000 0.500000
vt 0.000000 0.000000
vt 0.750000 0.750000
vt 0.000000 0.000000
vt 0.250000 0.750000
vt 0.750000 0.500000
vt 0.625000 0.375000
vt 0.625000 0.956388
vt 0.831388 0.750000
vt 0.175119 0.750000
vt 0.375000 0.949881
vt 0.625000 0.941614
vt 0.816614 0.750000
vt 0.375000 0.935076
vt 0.189924 0.750000
vt 0.375000 0.000000
vt 0.125000 0.750000
vt 0.375000 1.000000
vt 0.625000 0.000000
vt 0.625000 1.000000
vt 0.875000 0.750000
vt 0.625000 0.956388
vt 0.831388 0.750000
vt 0.375000 0.935076
vt 0.189924 0.750000
vt 0.375000 0.875000
vt 0.000000 0.000000
vt 0.250000 0.750000
vt 0.625000 0.875000
vt 0.000000 0.000000
vt 0.750000 0.750000
vt 0.175119 0.750000
vt 0.375000 0.949881
vt 0.625000 0.941614
vt 0.816614 0.750000
vt 0.875000 0.500000
vt 0.625000 0.250000
vt 0.375000 0.250000
vt 0.125000 0.500000
vt 0.625000 0.000000
vt 0.875000 0.750000
vt 0.375000 0.000000
vt 0.125000 0.750000
vt 0.625000 0.956388
vt 0.831388 0.750000
vt 0.175119 0.750000
vt 0.375000 0.949881
vt 0.625000 0.941614
vt 0.816614 0.750000
vt 0.375000 0.935076
vt 0.189924 0.750000
vt 0.375000 0.000000
vt 0.125000 0.750000
vt 0.375000 1.000000
vt 0.625000 0.000000
vt 0.625000 1.000000
vt 0.875000 0.750000
vt 0.625000 0.956388
vt 0.831388 0.750000
vt 0.375000 0.935076
vt 0.189924 0.750000
vt 0.375000 0.875000
vt 0.000000 0.000000
vt 0.250000 0.750000
vt 0.625000 0.875000
vt 0.000000 0.000000
vt 0.750000 0.750000
vt 0.175119 0.750000
vt 0.375000 0.949881
vt 0.625000 0.941614
vt 0.816614 0.750000
vt 0.625000 0.250000
vt 0.375000 0.250000
vt 0.125000 0.500000
vt 0.875000 0.750000
vt 0.625000 0.000000
vt 0.375000 0.000000
vt 0.125000 0.750000
vt 0.375000 0.375000
vt 0.250000 0.500000
vt 0.000000 0.000000
vt 0.750000 0.750000
vt 0.000000 0.000000
vt 0.250000 0.750000
vt 0.625000 0.375000
vt 0.831388 0.750000
vt 0.625000 0.956388
vt 0.175119 0.750000
vt 0.375000 0.949881
vt 0.816614 0.750000
vt 0.625000 0.941614
vt 0.375000 0.935076
vt 0.189924 0.750000
vt 0.375000 0.000000
vt 0.125000 0.750000
vt 0.375000 1.000000
vt 0.625000 0.000000
vt 0.625000 1.000000
vt 0.875000 0.750000
vt 0.625000 0.956388
vt 0.831388 0.750000
vt 0.375000 0.935076
vt 0.189924 0.750000
vt 0.375000 0.875000
vt 0.000000 0.000000
vt 0.250000 0.750000
vt 0.625000 0.875000
vt 0.000000 0.000000
vt 0.750000 0.750000
vt 0.175119 0.750000
vt 0.375000 0.949881
vt 0.625000 0.941614
vt 0.816614 0.750000
vt 0.625000 0.250000
vt 0.375000 0.250000
vt 0.125000 0.500000
vt 0.875000 0.750000
vt 0.625000 0.000000
vt 0.375000 0.000000
vt 0.125000 0.750000
vt 0.831388 0.750000
vt 0.625000 0.956388
vt 0.175119 0.750000
vt 0.375000 0.949881
vt 0.816614 0.750000
vt 0.625000 0.941614
vt 0.375000 0.935076
vt 0.189924 0.750000
vt 0.375000 0.000000
vt 0.125000 0.750000
vt 0.375000 1.000000
vt 0.625000 0.000000
vt 0.625000 1.000000
vt 0.875000 0.750000
vt 0.625000 0.956388
vt 0.831388 0.750000
vt 0.375000 0.935076
vt 0.189924 0.750000
vt 0.375000 0.875000
vt 0.000000 0.000000
vt 0.250000 0.750000
vt 0.625000 0.875000
vt 0.000000 0.000000
vt 0.750000 0.750000
vt 0.175119 0.750000
vt 0.375000 0.949881
vt 0.625000 0.941614
vt 0.816614 0.750000
vt 0.831388 0.750000
vt 0.625000 0.956388
vt 0.875000 0.750000
vt 0.625000 0.000000
vt 0.875000 0.500000
vt 0.625000 0.250000
vt 0.750000 0.500000
vt 0.625000 0.375000
vt 0.750000 0.750000
vt 0.816614 0.750000
vt 0.625000 0.941614
vt 0.831388 0.750000
vt 0.625000 0.956388
vt 0.875000 0.750000
vt 0.625000 0.000000
vt 0.875000 0.500000
vt 0.625000 0.250000
vt 0.816614 0.750000
vt 0.625000 0.941614
s 0
usemtl Material
f 8/15/1 1/1/1 3/6/1 9/18/1 11/22/1 6/12/1
f 3/5/2 4/7/2 13/25/2 14/28/2
f 4/7/3 3/5/3 1/2/3 2/3/3
f 2/3/4 1/2/4 8/16/4 5/9/4
f 2/4/5 5/10/5 7/14/5 12/24/5 10/19/5 4/8/5
f 17/35/6 18/38/6 20/43/6 16/33/6
f 4/8/7 10/19/7 19/41/7 13/26/7
f 12/23/6 11/21/6 9/17/6 10/20/6
f 19/42/6 15/31/6 14/29/6 13/27/6
f 10/20/8 9/17/8 15/31/8 19/42/8
f 7/13/9 6/11/9 18/39/9 17/36/9
f 11/21/10 12/23/10 16/33/10 20/43/10
f 12/24/7 7/14/7 17/37/7 16/34/7
f 6/12/11 11/22/11 20/44/11 18/40/11
f 9/18/11 3/6/11 14/30/11 15/32/11
f 8/15/1 6/12/1 27/58/1 25/54/1 23/50/1 21/45/1
f 23/49/12 30/64/12 29/61/12 24/51/12
f 24/51/13 22/47/13 21/46/13 23/49/13
f 22/47/4 5/9/4 8/16/4 21/46/4
f 22/48/5 24/52/5 26/55/5 28/60/5 7/14/5 5/10/5
f 33/71/6 32/69/6 36/79/6 34/74/6
f 24/52/7 29/62/7 35/77/7 26/55/7
f 28/59/6 26/56/6 25/53/6 27/57/6
f 35/78/6 29/63/6 30/65/6 31/67/6
f 26/56/14 35/78/14 31/67/14 25/53/14
f 7/13/15 33/72/15 34/75/15 6/11/15
f 27/57/16 36/79/16 32/69/16 28/59/16
f 28/60/7 32/70/7 33/73/7 7/14/7
f 6/12/11 34/76/11 36/80/11 27/58/11
f 25/54/11 31/68/11 30/66/11 23/50/11
f 45/95/17 39/84/17 74/160/17 73/158/17
f 39/85/18 50/106/18 49/103/18 40/86/18
f 40/86/19 38/82/19 37/81/19 39/85/19
f 38/82/6 41/88/6 44/94/6 37/81/6
f 38/83/5 40/87/5 46/97/5 48/102/5 43/93/5 41/89/5
f 53/113/20 52/111/20 56/121/20 54/116/20
f 40/87/21 49/104/21 55/119/21 46/97/21
f 48/101/20 46/98/20 45/96/20 47/100/20
f 55/120/20 49/105/20 50/107/20 51/109/20
f 46/98/22 55/120/22 51/109/22 45/96/22
f 43/92/23 53/114/23 54/117/23 42/90/23
f 47/100/24 56/121/24 52/111/24 48/101/24
f 48/102/21 52/112/21 53/115/21 43/93/21
f 42/91/25 54/118/25 56/122/25 47/99/25
f 45/95/25 51/110/25 50/108/25 39/84/25
f 59/126/17 61/130/17 79/169/17 80/171/17
f 59/127/26 60/128/26 65/138/26 66/141/26
f 60/128/27 59/127/27 57/123/27 58/124/27
f 58/124/6 57/123/6 44/94/6 41/88/6
f 58/125/5 41/89/5 43/93/5 64/137/5 62/132/5 60/129/5
f 69/148/20 70/151/20 72/156/20 68/146/20
f 60/129/21 62/132/21 71/154/21 65/139/21
f 64/136/20 63/135/20 61/131/20 62/133/20
f 71/155/20 67/144/20 66/142/20 65/140/20
f 62/133/28 61/131/28 67/144/28 71/155/28
f 43/92/29 42/90/29 70/152/29 69/149/29
f 63/135/30 64/136/30 68/146/30 72/156/30
f 64/137/21 43/93/21 69/150/21 68/147/21
f 42/91/25 63/134/25 72/157/25 70/153/25
f 61/130/25 59/126/25 66/143/25 67/145/25
f 76/164/31 77/166/31 78/167/31 73/158/31 74/160/31 75/162/31
f 76/164/31 81/173/31 80/171/31 79/169/31 82/175/31 77/166/31
f 63/134/17 42/91/17 77/166/17 82/175/17
f 61/131/17 63/135/17 82/176/17 79/170/17
f 42/91/17 47/99/17 78/167/17 77/166/17
f 39/85/32 37/81/32 75/163/32 74/161/32
f 57/123/33 59/127/33 80/172/33 81/174/33
f 47/100/17 45/96/17 73/159/17 78/168/17
f 37/81/34 44/94/34 76/165/34 75/163/34
f 44/94/34 57/123/34 81/174/34 76/165/34
