# Blender 3.3.1
# www.blender.org
mtllib Cave.mtl
o Cube
v 1.910924 4.002257 -5.111116
v 3.531724 -5.009002 -10.132589
v -1.023977 5.711915 1.419675
v 3.242986 -5.009002 6.320345
v -2.151799 3.441095 -2.916039
v -2.645689 -6.153481 -7.969368
v -2.847885 -5.009002 4.872281
v -4.967680 -6.331539 -5.188084
v 1.577030 6.024071 -4.324110
v -0.930180 7.254163 -3.984390
v 5.661408 -4.981470 -2.422554
v -4.967680 -5.913655 2.948978
v 2.165360 4.222080 5.819258
v 0.998283 1.196448 6.783666
v 5.372671 -4.981470 2.382111
v 2.927593 2.823979 -6.674217
v -2.243754 3.015837 3.799107
v 2.638856 1.934648 4.697991
v -2.243754 3.015837 -5.763545
v 5.050521 -0.335505 -1.782906
v -4.797709 2.823979 -1.490085
v -4.797709 -1.204306 2.590242
v 4.872617 -0.482352 0.931852
v -2.151799 4.237297 3.635760
v 2.151799 4.237297 5.942336
v 2.616034 3.716383 -1.199197
v -4.840335 3.813400 1.159871
v 2.616034 3.716383 1.728992
v 2.165130 4.198613 5.863414
v -2.086181 5.108922 3.519196
v 1.816373 5.547925 1.447648
v 1.910924 5.108922 -3.820120
v 0.366167 -0.801401 4.998405
v 1.422275 -4.446751 -1.662536
v 1.133538 -4.446751 1.039653
v 3.391828 3.379638 -3.873163
v 3.103091 3.028776 2.608228
v 1.245549 -0.956708 -1.615551
v 1.067644 -1.067019 0.423771
vn -0.4891 0.4000 0.7751
vn -0.4669 0.1517 0.8712
vn 0.0481 -0.9878 0.1479
vn 0.9124 0.4061 0.0503
vn 0.1172 -0.9925 0.0343
vn -0.3591 0.0096 -0.9333
vn 0.9101 0.4142 -0.0117
vn 0.1046 -0.9939 0.0344
vn 0.4536 0.8549 0.2518
vn 0.2194 -0.2327 -0.9475
vn -0.6143 0.1498 0.7747
vn -0.9994 0.0359 -0.0018
vn 0.9421 0.2105 -0.2610
vn -0.3596 0.2331 -0.9035
vn 0.8836 0.2089 0.4191
vn -0.8425 0.2151 -0.4939
vn -0.2288 0.1459 0.9625
vn 0.6696 0.7411 0.0482
vn -0.6809 0.1954 0.7059
vn 0.5449 0.8006 -0.2491
vn -0.2082 0.9683 -0.1379
vn 0.9428 0.2889 0.1662
vn -0.5573 0.7749 -0.2983
vn 0.8080 -0.1385 0.5726
vn 0.9835 0.1576 0.0889
vn -0.8252 0.1091 -0.5543
vn 0.9506 0.2356 -0.2020
vn -0.4455 0.8629 0.2385
vn 0.7813 0.4947 0.3807
vn 0.7291 0.2152 0.6497
vn -0.6825 0.1471 0.7159
vn -0.9998 0.0133 0.0131
vn -0.1456 0.3902 -0.9092
vn -0.7604 0.1832 -0.6231
vn -0.9999 -0.0118 -0.0117
vn -0.0831 0.7691 -0.6338
vn -0.0827 0.9860 -0.1446
vn 0.0694 0.9591 0.2745
vn 0.0583 0.9949 -0.0819
vn 0.0308 0.9565 0.2903
vn -0.6883 0.0798 0.7211
vn 0.9683 0.1595 -0.1921
vn -0.7322 -0.3101 0.6063
vn 0.3897 0.9210 -0.0029
vn -0.4469 0.8941 0.0307
vn 0.9689 0.1877 -0.1609
vn 0.9942 0.0433 0.0988
vn 0.8981 0.1737 -0.4040
vn 0.8724 0.2351 0.4285
vn 0.8998 0.4308 0.0690
vn 0.1245 0.9922 0.0096
vn 0.1582 -0.9865 -0.0415
vn 0.1150 -0.0725 0.9907
vn 0.1675 -0.9849 -0.0428
vt 0.651268 0.526268
vt 0.603463 0.500000
vt 0.375000 0.500000
vt 0.848732 0.712088
vt 0.651268 0.712088
vt 0.625000 0.750000
vt 0.848732 0.723732
vt 0.375000 0.750000
vt 0.848732 0.526268
vt 0.875000 0.500000
vt 0.603463 0.250000
vt 0.375000 0.250000
vt 0.125000 0.500000
vt 0.125000 0.750000
vt 0.375000 0.000000
vt 0.375000 1.000000
vt 0.125000 0.541987
vt 0.375000 0.208013
vt 0.651268 0.541987
vt 0.848732 0.541987
vt 0.375000 0.541987
vt 0.125000 0.712088
vt 0.375000 0.037912
vt 0.603463 0.748893
vt 0.573283 0.834001
vt 0.401978 0.679479
vt 0.375000 0.712088
vt 0.573283 0.500000
vt 0.573283 0.000000
vt 0.573283 1.000000
vt 0.573283 0.750000
vt 0.573283 0.250000
vt 0.546705 0.571798
vt 0.573283 0.208013
vt 0.573283 0.037912
vt 0.546233 0.682433
vt 0.603463 0.037912
vt 0.603463 0.000000
vt 0.603463 1.000000
vt 0.603463 0.750000
vt 0.603464 0.541987
vt 0.875000 0.541987
vt 0.625000 0.037912
vt 0.603463 0.208013
vt 0.875000 0.712088
vt 0.603463 0.712088
vt 0.602637 0.750000
vt 0.625000 0.000000
vt 0.625000 1.000000
vt 0.875000 0.750000
vt 0.625000 0.712088
vt 0.625000 0.541987
vt 0.479221 0.867398
vt 0.401481 0.574719
vt 0.375000 0.541987
vt 0.401978 0.679479
vt 0.375000 0.712088
vt 0.573283 0.541987
vt 0.573283 0.712088
vt 0.546705 0.571798
vt 0.546233 0.682433
s 0
usemtl Material
f 14/25/1 25/40/1 17/30/1
f 25/40/2 30/49/2 24/39/2
f 12/22/3 15/27/3 4/8/3 7/14/3
f 28/46/4 31/51/4 13/24/4
f 6/13/5 11/21/5 8/17/5
f 1/1/6 5/9/6 10/20/6 9/19/6
f 26/41/7 32/52/7 31/51/7 28/46/7
f 8/17/8 11/21/8 15/27/8 12/22/8
f 9/19/9 10/20/9 3/5/9
f 23/36/10 15/26/10 35/56/10 39/61/10
f 7/15/11 17/29/11 22/35/11
f 12/23/12 22/35/12 8/18/12
f 2/3/13 36/58/13 11/21/13
f 6/12/14 19/32/14 2/3/14
f 15/27/15 37/59/15 18/31/15 4/8/15
f 8/18/16 21/34/16 19/32/16
f 4/8/17 33/53/17 7/16/17
f 36/58/18 26/41/18 28/46/18 37/59/18
f 17/29/11 24/38/11 22/35/11
f 22/35/19 24/37/19 27/44/19
f 16/28/20 1/2/20 36/58/20
f 19/32/21 5/11/21 1/2/21
f 37/59/22 28/46/22 13/24/22 29/47/22 18/31/22
f 21/34/23 27/44/23 19/32/23
f 18/31/24 29/47/24 25/40/24 14/25/24
f 29/47/25 13/24/25 25/40/25
f 10/20/26 5/10/26 27/42/26
f 1/1/27 9/19/27 32/52/27
f 3/4/28 10/20/28 27/45/28
f 9/19/29 3/5/29 32/52/29
f 14/25/30 4/8/30 18/31/30
f 27/43/31 24/38/31 30/48/31
f 8/18/32 22/35/32 21/34/32
f 2/3/33 19/32/33 16/28/33
f 19/32/34 6/12/34 8/18/34
f 27/44/35 21/34/35 22/35/35
f 1/2/36 16/28/36 19/32/36
f 19/32/37 27/44/37 5/11/37
f 13/24/38 31/51/38 3/6/38 25/40/38
f 32/52/39 3/5/39 31/51/39
f 30/49/40 25/40/40 3/6/40
f 22/35/41 12/23/41 7/15/41
f 36/58/42 2/3/42 16/28/42
f 7/16/17 33/53/17 17/30/17
f 17/30/43 33/53/43 4/8/43 14/25/43
f 36/58/44 1/2/44 26/41/44
f 17/30/2 25/40/2 24/39/2
f 27/45/45 30/50/45 3/7/45
f 32/52/46 26/41/46 1/2/46
f 34/54/47 38/60/47 39/61/47 35/56/47
f 20/33/48 11/21/48 36/58/48
f 15/26/49 23/36/49 37/59/49
f 23/36/50 20/33/50 36/58/50 37/59/50
f 15/27/51 11/21/51 34/55/51 35/57/51
f 20/33/52 23/36/52 39/61/52 38/60/52
f 11/21/53 20/33/53 38/60/53 34/55/53
f 11/21/54 6/13/54 2/3/54
