# Blender 3.3.1
# www.blender.org
mtllib Centrifuge.mtl
o Cube
v 1.216004 1.027895 -0.841733
v 1.216004 -0.166361 -0.841733
v 1.216004 1.027895 0.841733
v 1.216004 -0.166361 0.841733
v -1.000000 1.000000 -1.000000
v -1.000000 -1.000000 -1.000000
v -1.000000 1.000000 1.000000
v -1.000000 -1.000000 1.000000
v 1.000000 1.000000 -1.000000
v 1.000000 -1.000000 -1.000000
v 1.000000 1.000000 1.000000
v 1.000000 -1.000000 1.000000
vn -0.0000 1.0000 -0.0000
vn -0.0000 -0.0000 1.0000
vn -1.0000 -0.0000 -0.0000
vn -0.0000 -1.0000 -0.0000
vn 1.0000 -0.0000 -0.0000
vn -0.0000 -0.0000 -1.0000
vn 0.5910 -0.0000 -0.8066
vn 0.5910 -0.0000 0.8066
vn -0.1281 0.9918 -0.0000
vn 0.9680 -0.2508 -0.0000
vt 0.574641 0.550359
vt 0.425359 0.550359
vt 0.574641 0.699641
vt 0.425359 0.699641
vt 0.875000 0.500000
vt 0.625000 0.250000
vt 0.125000 0.500000
vt 0.375000 0.250000
vt 0.875000 0.750000
vt 0.625000 1.000000
vt 0.625000 0.000000
vt 0.375000 1.000000
vt 0.375000 0.000000
vt 0.125000 0.750000
vt 0.625000 0.500000
vt 0.375000 0.500000
vt 0.625000 0.750000
vt 0.375000 0.750000
s 0
usemtl Material
f 9/15/1 5/5/1 7/9/1 11/17/1
f 12/18/2 11/17/2 7/10/2 8/12/2
f 8/13/3 7/11/3 5/6/3 6/8/3
f 6/7/4 10/16/4 12/18/4 8/14/4
f 2/2/5 1/1/5 3/3/5 4/4/5
f 6/8/6 5/6/6 9/15/6 10/16/6
f 1/1/7 2/2/7 10/16/7 9/15/7
f 4/4/8 3/3/8 11/17/8 12/18/8
f 3/3/9 1/1/9 9/15/9 11/17/9
f 2/2/10 4/4/10 12/18/10 10/16/10
o Cylinder
v 0.000000 0.966396 -0.425534
v 0.000000 1.304605 -0.425534
v 0.083018 0.966396 -0.417358
v 0.083018 1.304605 -0.417358
v 0.162845 0.966396 -0.393142
v 0.162845 1.304605 -0.393142
v 0.236414 0.966396 -0.353819
v 0.236414 1.304605 -0.353819
v 0.300898 0.966396 -0.300898
v 0.300898 1.304605 -0.300898
v 0.353819 0.966396 -0.236414
v 0.353819 1.304605 -0.236414
v 0.393142 0.966396 -0.162845
v 0.393142 1.304605 -0.162845
v 0.417358 0.966396 -0.083018
v 0.417358 1.304605 -0.083018
v 0.425534 0.966396 0.000000
v 0.425534 1.304605 0.000000
v 0.417358 0.966396 0.083018
v 0.417358 1.304605 0.083018
v 0.393142 0.966396 0.162845
v 0.393142 1.304605 0.162845
v 0.353819 0.966396 0.236414
v 0.353819 1.304605 0.236414
v 0.300898 0.966396 0.300898
v 0.300898 1.304605 0.300898
v 0.236414 0.966396 0.353819
v 0.236414 1.304605 0.353819
v 0.162845 0.966396 0.393142
v 0.162845 1.304605 0.393142
v 0.083018 0.966396 0.417358
v 0.083018 1.304605 0.417358
v 0.000000 0.966396 0.425534
v 0.000000 1.304605 0.425534
v -0.083018 0.966396 0.417358
v -0.083018 1.304605 0.417358
v -0.162845 0.966396 0.393142
v -0.162845 1.304605 0.393142
v -0.236414 0.966396 0.353819
v -0.236414 1.304605 0.353819
v -0.300898 0.966396 0.300898
v -0.300898 1.304605 0.300898
v -0.353819 0.966396 0.236414
v -0.353819 1.304605 0.236414
v -0.393142 0.966396 0.162845
v -0.393142 1.304605 0.162845
v -0.417358 0.966396 0.083018
v -0.417358 1.304605 0.083018
v -0.425534 0.966396 0.000000
v -0.425534 1.304605 0.000000
v -0.417358 0.966396 -0.083018
v -0.417358 1.304605 -0.083018
v -0.393142 0.966396 -0.162845
v -0.393142 1.304605 -0.162845
v -0.353819 0.966396 -0.236414
v -0.353819 1.304605 -0.236414
v -0.300898 0.966396 -0.300898
v -0.300898 1.304605 -0.300898
v -0.236414 0.966396 -0.353819
v -0.236414 1.304605 -0.353819
v -0.162845 0.966396 -0.393142
v -0.162845 1.304605 -0.393142
v -0.083018 0.966396 -0.417358
v -0.083018 1.304605 -0.417358
vn 0.0980 -0.0000 -0.9952
vn 0.2903 -0.0000 -0.9569
vn 0.4714 -0.0000 -0.8819
vn 0.6344 -0.0000 -0.7730
vn 0.7730 -0.0000 -0.6344
vn 0.8819 -0.0000 -0.4714
vn 0.9569 -0.0000 -0.2903
vn 0.9952 -0.0000 -0.0980
vn 0.9952 -0.0000 0.0980
vn 0.9569 -0.0000 0.2903
vn 0.8819 -0.0000 0.4714
vn 0.7730 -0.0000 0.6344
vn 0.6344 -0.0000 0.7730
vn 0.4714 -0.0000 0.8819
vn 0.2903 -0.0000 0.9569
vn 0.0980 -0.0000 0.9952
vn -0.0980 -0.0000 0.9952
vn -0.2903 -0.0000 0.9569
vn -0.4714 -0.0000 0.8819
vn -0.6344 -0.0000 0.7730
vn -0.7730 -0.0000 0.6344
vn -0.8819 -0.0000 0.4714
vn -0.9569 -0.0000 0.2903
vn -0.9952 -0.0000 0.0980
vn -0.9952 -0.0000 -0.0980
vn -0.9569 -0.0000 -0.2903
vn -0.8819 -0.0000 -0.4714
vn -0.7730 -0.0000 -0.6344
vn -0.6344 -0.0000 -0.7730
vn -0.4714 -0.0000 -0.8819
vn -0.0000 1.0000 -0.0000
vn -0.2903 -0.0000 -0.9569
vn -0.0980 -0.0000 -0.9952
vn -0.0000 -1.0000 -0.0000
vt 1.000000 0.500000
vt 0.000000 0.500000
vt 0.750000 0.490000
vt 1.000000 1.000000
vt 0.250000 0.490000
vt 0.000000 1.000000
vt 0.968750 0.500000
vt 0.796822 0.485388
vt 0.968750 1.000000
vt 0.296822 0.485388
vt 0.937500 0.500000
vt 0.841844 0.471731
vt 0.937500 1.000000
vt 0.341844 0.471731
vt 0.906250 0.500000
vt 0.883337 0.449553
vt 0.906250 1.000000
vt 0.383337 0.449553
vt 0.875000 0.500000
vt 0.919706 0.419706
vt 0.875000 1.000000
vt 0.419706 0.419706
vt 0.843750 0.500000
vt 0.949553 0.383337
vt 0.843750 1.000000
vt 0.449553 0.383337
vt 0.812500 0.500000
vt 0.971731 0.341844
vt 0.812500 1.000000
vt 0.471731 0.341844
vt 0.781250 0.500000
vt 0.985388 0.296822
vt 0.781250 1.000000
vt 0.485388 0.296822
vt 0.750000 0.500000
vt 0.990000 0.250000
vt 0.750000 1.000000
vt 0.490000 0.250000
vt 0.718750 0.500000
vt 0.985388 0.203178
vt 0.718750 1.000000
vt 0.485388 0.203178
vt 0.687500 0.500000
vt 0.971731 0.158156
vt 0.687500 1.000000
vt 0.471731 0.158156
vt 0.656250 0.500000
vt 0.949553 0.116663
vt 0.656250 1.000000
vt 0.449553 0.116663
vt 0.625000 0.500000
vt 0.919706 0.080294
vt 0.625000 1.000000
vt 0.419706 0.080294
vt 0.593750 0.500000
vt 0.883337 0.050447
vt 0.593750 1.000000
vt 0.383337 0.050447
vt 0.562500 0.500000
vt 0.841844 0.028269
vt 0.562500 1.000000
vt 0.341844 0.028269
vt 0.531250 0.500000
vt 0.796822 0.014612
vt 0.531250 1.000000
vt 0.296822 0.014612
vt 0.500000 0.500000
vt 0.750000 0.010000
vt 0.500000 1.000000
vt 0.250000 0.010000
vt 0.468750 0.500000
vt 0.703178 0.014612
vt 0.468750 1.000000
vt 0.203178 0.014612
vt 0.437500 0.500000
vt 0.658156 0.028269
vt 0.437500 1.000000
vt 0.158156 0.028269
vt 0.406250 0.500000
vt 0.616663 0.050447
vt 0.406250 1.000000
vt 0.116663 0.050447
vt 0.375000 0.500000
vt 0.580294 0.080294
vt 0.375000 1.000000
vt 0.080294 0.080294
vt 0.343750 0.500000
vt 0.550447 0.116663
vt 0.343750 1.000000
vt 0.050447 0.116663
vt 0.312500 0.500000
vt 0.528269 0.158156
vt 0.312500 1.000000
vt 0.028269 0.158156
vt 0.281250 0.500000
vt 0.514612 0.203178
vt 0.281250 1.000000
vt 0.014612 0.203178
vt 0.250000 0.500000
vt 0.510000 0.250000
vt 0.250000 1.000000
vt 0.010000 0.250000
vt 0.218750 0.500000
vt 0.514612 0.296822
vt 0.218750 1.000000
vt 0.014612 0.296822
vt 0.187500 0.500000
vt 0.528269 0.341844
vt 0.187500 1.000000
vt 0.028269 0.341844
vt 0.156250 0.500000
vt 0.550447 0.383337
vt 0.156250 1.000000
vt 0.050447 0.383337
vt 0.125000 0.500000
vt 0.580294 0.419706
vt 0.125000 1.000000
vt 0.080294 0.419706
vt 0.093750 0.500000
vt 0.616663 0.449553
vt 0.093750 1.000000
vt 0.116663 0.449553
vt 0.062500 0.500000
vt 0.658156 0.471731
vt 0.158156 0.471731
vt 0.062500 1.000000
vt 0.031250 0.500000
vt 0.703178 0.485388
vt 0.203178 0.485388
vt 0.031250 1.000000
s 0
usemtl Material.001
f 13/19/11 14/22/11 16/27/11 15/25/11
f 15/25/12 16/27/12 18/31/12 17/29/12
f 17/29/13 18/31/13 20/35/13 19/33/13
f 19/33/14 20/35/14 22/39/14 21/37/14
f 21/37/15 22/39/15 24/43/15 23/41/15
f 23/41/16 24/43/16 26/47/16 25/45/16
f 25/45/17 26/47/17 28/51/17 27/49/17
f 27/49/18 28/51/18 30/55/18 29/53/18
f 29/53/19 30/55/19 32/59/19 31/57/19
f 31/57/20 32/59/20 34/63/20 33/61/20
f 33/61/21 34/63/21 36/67/21 35/65/21
f 35/65/22 36/67/22 38/71/22 37/69/22
f 37/69/23 38/71/23 40/75/23 39/73/23
f 39/73/24 40/75/24 42/79/24 41/77/24
f 41/77/25 42/79/25 44/83/25 43/81/25
f 43/81/26 44/83/26 46/87/26 45/85/26
f 45/85/27 46/87/27 48/91/27 47/89/27
f 47/89/28 48/91/28 50/95/28 49/93/28
f 49/93/29 50/95/29 52/99/29 51/97/29
f 51/97/30 52/99/30 54/103/30 53/101/30
f 53/101/31 54/103/31 56/107/31 55/105/31
f 55/105/32 56/107/32 58/111/32 57/109/32
f 57/109/33 58/111/33 60/115/33 59/113/33
f 59/113/34 60/115/34 62/119/34 61/117/34
f 61/117/35 62/119/35 64/123/35 63/121/35
f 63/121/36 64/123/36 66/127/36 65/125/36
f 65/125/37 66/127/37 68/131/37 67/129/37
f 67/129/38 68/131/38 70/135/38 69/133/38
f 69/133/39 70/135/39 72/139/39 71/137/39
f 71/137/40 72/139/40 74/144/40 73/141/40
f 16/28/41 14/23/41 76/147/41 74/143/41 72/140/41 70/136/41 68/132/41 66/128/41 64/124/41 62/120/41 60/116/41 58/112/41 56/108/41 54/104/41 52/100/41 50/96/41 48/92/41 46/88/41 44/84/41 42/80/41 40/76/41 38/72/41 36/68/41 34/64/41 32/60/41 30/56/41 28/52/41 26/48/41 24/44/41 22/40/41 20/36/41 18/32/41
f 73/141/42 74/144/42 76/148/42 75/145/42
f 75/145/43 76/148/43 14/24/43 13/20/43
f 13/21/44 15/26/44 17/30/44 19/34/44 21/38/44 23/42/44 25/46/44 27/50/44 29/54/44 31/58/44 33/62/44 35/66/44 37/70/44 39/74/44 41/78/44 43/82/44 45/86/44 47/90/44 49/94/44 51/98/44 53/102/44 55/106/44 57/110/44 59/114/44 61/118/44 63/122/44 65/126/44 67/130/44 69/134/44 71/138/44 73/142/44 75/146/44
o Cylinder.001
v 1.067537 -0.523327 -0.778336
v 1.217730 -0.521990 -0.778336
v 1.067668 -0.537978 -0.776893
v 1.217860 -0.536640 -0.776893
v 1.067793 -0.552066 -0.772619
v 1.217986 -0.550728 -0.772619
v 1.067909 -0.565049 -0.765680
v 1.218102 -0.563711 -0.765680
v 1.068010 -0.576429 -0.756340
v 1.218203 -0.575091 -0.756340
v 1.068093 -0.585768 -0.744960
v 1.218286 -0.584430 -0.744960
v 1.068155 -0.592707 -0.731976
v 1.218348 -0.591370 -0.731976
v 1.068193 -0.596981 -0.717888
v 1.218386 -0.595643 -0.717888
v 1.068206 -0.598424 -0.703237
v 1.218399 -0.597086 -0.703237
v 1.068193 -0.596981 -0.688586
v 1.218386 -0.595643 -0.688586
v 1.068155 -0.592707 -0.674497
v 1.218348 -0.591370 -0.674497
v 1.068093 -0.585768 -0.661514
v 1.218286 -0.584430 -0.661514
v 1.068010 -0.576429 -0.650133
v 1.218203 -0.575091 -0.650133
v 1.067909 -0.565049 -0.640794
v 1.218102 -0.563711 -0.640794
v 1.067793 -0.552066 -0.633854
v 1.217986 -0.550728 -0.633854
v 1.067668 -0.537978 -0.629580
v 1.217860 -0.536640 -0.629580
v 1.067537 -0.523327 -0.628137
v 1.217730 -0.521990 -0.628137
v 1.067407 -0.508677 -0.629580
v 1.217600 -0.507339 -0.629580
v 1.067281 -0.494589 -0.633854
v 1.217474 -0.493252 -0.633854
v 1.067166 -0.481606 -0.640794
v 1.217358 -0.480269 -0.640794
v 1.067064 -0.470226 -0.650133
v 1.217257 -0.468889 -0.650133
v 1.066981 -0.460887 -0.661514
v 1.217174 -0.459550 -0.661514
v 1.066919 -0.453947 -0.674497
v 1.217112 -0.452610 -0.674497
v 1.066881 -0.449674 -0.688586
v 1.217074 -0.448336 -0.688586
v 1.066869 -0.448231 -0.703237
v 1.217061 -0.446894 -0.703237
v 1.066881 -0.449674 -0.717888
v 1.217074 -0.448336 -0.717888
v 1.066919 -0.453947 -0.731976
v 1.217112 -0.452610 -0.731976
v 1.066981 -0.460887 -0.744960
v 1.217174 -0.459550 -0.744960
v 1.067064 -0.470226 -0.756340
v 1.217257 -0.468889 -0.756340
v 1.067166 -0.481606 -0.765680
v 1.217358 -0.480269 -0.765680
v 1.067281 -0.494589 -0.772619
v 1.217474 -0.493252 -0.772619
v 1.067407 -0.508677 -0.776893
v 1.217600 -0.507339 -0.776893
vn 0.0009 -0.0980 -0.9952
vn 0.0026 -0.2903 -0.9569
vn 0.0042 -0.4714 -0.8819
vn 0.0056 -0.6344 -0.7730
vn 0.0069 -0.7730 -0.6344
vn 0.0079 -0.8819 -0.4714
vn 0.0085 -0.9569 -0.2903
vn 0.0089 -0.9951 -0.0980
vn 0.0089 -0.9951 0.0980
vn 0.0085 -0.9569 0.2903
vn 0.0079 -0.8819 0.4714
vn 0.0069 -0.7730 0.6344
vn 0.0056 -0.6344 0.7730
vn 0.0042 -0.4714 0.8819
vn 0.0026 -0.2903 0.9569
vn 0.0009 -0.0980 0.9952
vn -0.0009 0.0980 0.9952
vn -0.0026 0.2903 0.9569
vn -0.0042 0.4714 0.8819
vn -0.0056 0.6344 0.7730
vn -0.0069 0.7730 0.6344
vn -0.0079 0.8819 0.4714
vn -0.0085 0.9569 0.2903
vn -0.0089 0.9951 0.0980
vn -0.0089 0.9951 -0.0980
vn -0.0085 0.9569 -0.2903
vn -0.0079 0.8819 -0.4714
vn -0.0069 0.7730 -0.6344
vn -0.0056 0.6344 -0.7730
vn -0.0042 0.4714 -0.8819
vn 1.0000 0.0089 -0.0000
vn -0.0026 0.2903 -0.9569
vn -0.0009 0.0980 -0.9952
vn -1.0000 -0.0089 -0.0000
vt 1.000000 0.500000
vt 0.000000 0.500000
vt 0.750000 0.490000
vt 1.000000 1.000000
vt 0.250000 0.490000
vt 0.000000 1.000000
vt 0.968750 0.500000
vt 0.796822 0.485388
vt 0.968750 1.000000
vt 0.296822 0.485388
vt 0.937500 0.500000
vt 0.841844 0.471731
vt 0.937500 1.000000
vt 0.341844 0.471731
vt 0.906250 0.500000
vt 0.883337 0.449553
vt 0.906250 1.000000
vt 0.383337 0.449553
vt 0.875000 0.500000
vt 0.919706 0.419706
vt 0.875000 1.000000
vt 0.419706 0.419706
vt 0.843750 0.500000
vt 0.949553 0.383337
vt 0.843750 1.000000
vt 0.449553 0.383337
vt 0.812500 0.500000
vt 0.971731 0.341844
vt 0.812500 1.000000
vt 0.471731 0.341844
vt 0.781250 0.500000
vt 0.985388 0.296822
vt 0.781250 1.000000
vt 0.485388 0.296822
vt 0.750000 0.500000
vt 0.990000 0.250000
vt 0.750000 1.000000
vt 0.490000 0.250000
vt 0.718750 0.500000
vt 0.985388 0.203178
vt 0.718750 1.000000
vt 0.485388 0.203178
vt 0.687500 0.500000
vt 0.971731 0.158156
vt 0.687500 1.000000
vt 0.471731 0.158156
vt 0.656250 0.500000
vt 0.949553 0.116663
vt 0.656250 1.000000
vt 0.449553 0.116663
vt 0.625000 0.500000
vt 0.919706 0.080294
vt 0.625000 1.000000
vt 0.419706 0.080294
vt 0.593750 0.500000
vt 0.883337 0.050447
vt 0.593750 1.000000
vt 0.383337 0.050447
vt 0.562500 0.500000
vt 0.841844 0.028269
vt 0.562500 1.000000
vt 0.341844 0.028269
vt 0.531250 0.500000
vt 0.796822 0.014612
vt 0.531250 1.000000
vt 0.296822 0.014612
vt 0.500000 0.500000
vt 0.750000 0.010000
vt 0.500000 1.000000
vt 0.250000 0.010000
vt 0.468750 0.500000
vt 0.703178 0.014612
vt 0.468750 1.000000
vt 0.203178 0.014612
vt 0.437500 0.500000
vt 0.658156 0.028269
vt 0.437500 1.000000
vt 0.158156 0.028269
vt 0.406250 0.500000
vt 0.616663 0.050447
vt 0.406250 1.000000
vt 0.116663 0.050447
vt 0.375000 0.500000
vt 0.580294 0.080294
vt 0.375000 1.000000
vt 0.080294 0.080294
vt 0.343750 0.500000
vt 0.550447 0.116663
vt 0.343750 1.000000
vt 0.050447 0.116663
vt 0.312500 0.500000
vt 0.528269 0.158156
vt 0.312500 1.000000
vt 0.028269 0.158156
vt 0.281250 0.500000
vt 0.514612 0.203178
vt 0.281250 1.000000
vt 0.014612 0.203178
vt 0.250000 0.500000
vt 0.510000 0.250000
vt 0.250000 1.000000
vt 0.010000 0.250000
vt 0.218750 0.500000
vt 0.514612 0.296822
vt 0.218750 1.000000
vt 0.014612 0.296822
vt 0.187500 0.500000
vt 0.528269 0.341844
vt 0.187500 1.000000
vt 0.028269 0.341844
vt 0.156250 0.500000
vt 0.550447 0.383337
vt 0.156250 1.000000
vt 0.050447 0.383337
vt 0.125000 0.500000
vt 0.580294 0.419706
vt 0.125000 1.000000
vt 0.080294 0.419706
vt 0.093750 0.500000
vt 0.616663 0.449553
vt 0.093750 1.000000
vt 0.116663 0.449553
vt 0.062500 0.500000
vt 0.658156 0.471731
vt 0.158156 0.471731
vt 0.062500 1.000000
vt 0.031250 0.500000
vt 0.703178 0.485388
vt 0.203178 0.485388
vt 0.031250 1.000000
s 0
usemtl Material.002
f 77/149/45 78/152/45 80/157/45 79/155/45
f 79/155/46 80/157/46 82/161/46 81/159/46
f 81/159/47 82/161/47 84/165/47 83/163/47
f 83/163/48 84/165/48 86/169/48 85/167/48
f 85/167/49 86/169/49 88/173/49 87/171/49
f 87/171/50 88/173/50 90/177/50 89/175/50
f 89/175/51 90/177/51 92/181/51 91/179/51
f 91/179/52 92/181/52 94/185/52 93/183/52
f 93/183/53 94/185/53 96/189/53 95/187/53
f 95/187/54 96/189/54 98/193/54 97/191/54
f 97/191/55 98/193/55 100/197/55 99/195/55
f 99/195/56 100/197/56 102/201/56 101/199/56
f 101/199/57 102/201/57 104/205/57 103/203/57
f 103/203/58 104/205/58 106/209/58 105/207/58
f 105/207/59 106/209/59 108/213/59 107/211/59
f 107/211/60 108/213/60 110/217/60 109/215/60
f 109/215/61 110/217/61 112/221/61 111/219/61
f 111/219/62 112/221/62 114/225/62 113/223/62
f 113/223/63 114/225/63 116/229/63 115/227/63
f 115/227/64 116/229/64 118/233/64 117/231/64
f 117/231/65 118/233/65 120/237/65 119/235/65
f 119/235/66 120/237/66 122/241/66 121/239/66
f 121/239/67 122/241/67 124/245/67 123/243/67
f 123/243/68 124/245/68 126/249/68 125/247/68
f 125/247/69 126/249/69 128/253/69 127/251/69
f 127/251/70 128/253/70 130/257/70 129/255/70
f 129/255/71 130/257/71 132/261/71 131/259/71
f 131/259/72 132/261/72 134/265/72 133/263/72
f 133/263/73 134/265/73 136/269/73 135/267/73
f 135/267/74 136/269/74 138/274/74 137/271/74
f 80/158/75 78/153/75 140/277/75 138/273/75 136/270/75 134/266/75 132/262/75 130/258/75 128/254/75 126/250/75 124/246/75 122/242/75 120/238/75 118/234/75 116/230/75 114/226/75 112/222/75 110/218/75 108/214/75 106/210/75 104/206/75 102/202/75 100/198/75 98/194/75 96/190/75 94/186/75 92/182/75 90/178/75 88/174/75 86/170/75 84/166/75 82/162/75
f 137/271/76 138/274/76 140/278/76 139/275/76
f 139/275/77 140/278/77 78/154/77 77/150/77
f 77/151/78 79/156/78 81/160/78 83/164/78 85/168/78 87/172/78 89/176/78 91/180/78 93/184/78 95/188/78 97/192/78 99/196/78 101/200/78 103/204/78 105/208/78 107/212/78 109/216/78 111/220/78 113/224/78 115/228/78 117/232/78 119/236/78 121/240/78 123/244/78 125/248/78 127/252/78 129/256/78 131/260/78 133/264/78 135/268/78 137/272/78 139/276/78
o Cylinder.002
v 1.067537 -0.523327 -0.529739
v 1.217730 -0.521990 -0.529739
v 1.067668 -0.537978 -0.528296
v 1.217860 -0.536640 -0.528296
v 1.067793 -0.552066 -0.524022
v 1.217986 -0.550728 -0.524022
v 1.067909 -0.565049 -0.517082
v 1.218102 -0.563711 -0.517082
v 1.068010 -0.576429 -0.507743
v 1.218203 -0.575091 -0.507743
v 1.068093 -0.585768 -0.496362
v 1.218286 -0.584430 -0.496362
v 1.068155 -0.592707 -0.483379
v 1.218348 -0.591370 -0.483379
v 1.068193 -0.596981 -0.469290
v 1.218386 -0.595643 -0.469290
v 1.068206 -0.598424 -0.454639
v 1.218399 -0.597086 -0.454639
v 1.068193 -0.596981 -0.439988
v 1.218386 -0.595643 -0.439988
v 1.068155 -0.592707 -0.425900
v 1.218348 -0.591370 -0.425900
v 1.068093 -0.585768 -0.412916
v 1.218286 -0.584430 -0.412916
v 1.068010 -0.576429 -0.401536
v 1.218203 -0.575091 -0.401536
v 1.067909 -0.565049 -0.392196
v 1.218102 -0.563711 -0.392196
v 1.067793 -0.552066 -0.385257
v 1.217986 -0.550728 -0.385257
v 1.067668 -0.537978 -0.380983
v 1.217860 -0.536640 -0.380983
v 1.067537 -0.523327 -0.379540
v 1.217730 -0.521990 -0.379540
v 1.067407 -0.508677 -0.380983
v 1.217600 -0.507339 -0.380983
v 1.067281 -0.494589 -0.385257
v 1.217474 -0.493252 -0.385257
v 1.067166 -0.481606 -0.392196
v 1.217358 -0.480269 -0.392196
v 1.067064 -0.470226 -0.401536
v 1.217257 -0.468889 -0.401536
v 1.066981 -0.460887 -0.412916
v 1.217174 -0.459550 -0.412916
v 1.066919 -0.453947 -0.425900
v 1.217112 -0.452610 -0.425900
v 1.066881 -0.449674 -0.439988
v 1.217074 -0.448336 -0.439988
v 1.066869 -0.448231 -0.454639
v 1.217061 -0.446894 -0.454639
v 1.066881 -0.449674 -0.469290
v 1.217074 -0.448336 -0.469290
v 1.066919 -0.453947 -0.483379
v 1.217112 -0.452610 -0.483379
v 1.066981 -0.460887 -0.496362
v 1.217174 -0.459550 -0.496362
v 1.067064 -0.470226 -0.507743
v 1.217257 -0.468889 -0.507743
v 1.067166 -0.481606 -0.517082
v 1.217358 -0.480269 -0.517082
v 1.067281 -0.494589 -0.524022
v 1.217474 -0.493252 -0.524022
v 1.067407 -0.508677 -0.528296
v 1.217600 -0.507339 -0.528296
vn 0.0009 -0.0980 -0.9952
vn 0.0026 -0.2903 -0.9569
vn 0.0042 -0.4714 -0.8819
vn 0.0056 -0.6344 -0.7730
vn 0.0069 -0.7730 -0.6344
vn 0.0079 -0.8819 -0.4714
vn 0.0085 -0.9569 -0.2903
vn 0.0089 -0.9951 -0.0980
vn 0.0089 -0.9951 0.0980
vn 0.0085 -0.9569 0.2903
vn 0.0079 -0.8819 0.4714
vn 0.0069 -0.7730 0.6344
vn 0.0056 -0.6344 0.7730
vn 0.0042 -0.4714 0.8819
vn 0.0026 -0.2903 0.9569
vn 0.0009 -0.0980 0.9952
vn -0.0009 0.0980 0.9952
vn -0.0026 0.2903 0.9569
vn -0.0042 0.4714 0.8819
vn -0.0056 0.6344 0.7730
vn -0.0069 0.7730 0.6344
vn -0.0079 0.8819 0.4714
vn -0.0085 0.9569 0.2903
vn -0.0089 0.9951 0.0980
vn -0.0089 0.9951 -0.0980
vn -0.0085 0.9569 -0.2903
vn -0.0079 0.8819 -0.4714
vn -0.0069 0.7730 -0.6344
vn -0.0056 0.6344 -0.7730
vn -0.0042 0.4714 -0.8819
vn 1.0000 0.0089 -0.0000
vn -0.0026 0.2903 -0.9569
vn -0.0009 0.0980 -0.9952
vn -1.0000 -0.0089 -0.0000
vt 1.000000 0.500000
vt 0.000000 0.500000
vt 0.750000 0.490000
vt 1.000000 1.000000
vt 0.250000 0.490000
vt 0.000000 1.000000
vt 0.968750 0.500000
vt 0.796822 0.485388
vt 0.968750 1.000000
vt 0.296822 0.485388
vt 0.937500 0.500000
vt 0.841844 0.471731
vt 0.937500 1.000000
vt 0.341844 0.471731
vt 0.906250 0.500000
vt 0.883337 0.449553
vt 0.906250 1.000000
vt 0.383337 0.449553
vt 0.875000 0.500000
vt 0.919706 0.419706
vt 0.875000 1.000000
vt 0.419706 0.419706
vt 0.843750 0.500000
vt 0.949553 0.383337
vt 0.843750 1.000000
vt 0.449553 0.383337
vt 0.812500 0.500000
vt 0.971731 0.341844
vt 0.812500 1.000000
vt 0.471731 0.341844
vt 0.781250 0.500000
vt 0.985388 0.296822
vt 0.781250 1.000000
vt 0.485388 0.296822
vt 0.750000 0.500000
vt 0.990000 0.250000
vt 0.750000 1.000000
vt 0.490000 0.250000
vt 0.718750 0.500000
vt 0.985388 0.203178
vt 0.718750 1.000000
vt 0.485388 0.203178
vt 0.687500 0.500000
vt 0.971731 0.158156
vt 0.687500 1.000000
vt 0.471731 0.158156
vt 0.656250 0.500000
vt 0.949553 0.116663
vt 0.656250 1.000000
vt 0.449553 0.116663
vt 0.625000 0.500000
vt 0.919706 0.080294
vt 0.625000 1.000000
vt 0.419706 0.080294
vt 0.593750 0.500000
vt 0.883337 0.050447
vt 0.593750 1.000000
vt 0.383337 0.050447
vt 0.562500 0.500000
vt 0.841844 0.028269
vt 0.562500 1.000000
vt 0.341844 0.028269
vt 0.531250 0.500000
vt 0.796822 0.014612
vt 0.531250 1.000000
vt 0.296822 0.014612
vt 0.500000 0.500000
vt 0.750000 0.010000
vt 0.500000 1.000000
vt 0.250000 0.010000
vt 0.468750 0.500000
vt 0.703178 0.014612
vt 0.468750 1.000000
vt 0.203178 0.014612
vt 0.437500 0.500000
vt 0.658156 0.028269
vt 0.437500 1.000000
vt 0.158156 0.028269
vt 0.406250 0.500000
vt 0.616663 0.050447
vt 0.406250 1.000000
vt 0.116663 0.050447
vt 0.375000 0.500000
vt 0.580294 0.080294
vt 0.375000 1.000000
vt 0.080294 0.080294
vt 0.343750 0.500000
vt 0.550447 0.116663
vt 0.343750 1.000000
vt 0.050447 0.116663
vt 0.312500 0.500000
vt 0.528269 0.158156
vt 0.312500 1.000000
vt 0.028269 0.158156
vt 0.281250 0.500000
vt 0.514612 0.203178
vt 0.281250 1.000000
vt 0.014612 0.203178
vt 0.250000 0.500000
vt 0.510000 0.250000
vt 0.250000 1.000000
vt 0.010000 0.250000
vt 0.218750 0.500000
vt 0.514612 0.296822
vt 0.218750 1.000000
vt 0.014612 0.296822
vt 0.187500 0.500000
vt 0.528269 0.341844
vt 0.187500 1.000000
vt 0.028269 0.341844
vt 0.156250 0.500000
vt 0.550447 0.383337
vt 0.156250 1.000000
vt 0.050447 0.383337
vt 0.125000 0.500000
vt 0.580294 0.419706
vt 0.125000 1.000000
vt 0.080294 0.419706
vt 0.093750 0.500000
vt 0.616663 0.449553
vt 0.093750 1.000000
vt 0.116663 0.449553
vt 0.062500 0.500000
vt 0.658156 0.471731
vt 0.158156 0.471731
vt 0.062500 1.000000
vt 0.031250 0.500000
vt 0.703178 0.485388
vt 0.203178 0.485388
vt 0.031250 1.000000
s 0
usemtl Material.003
f 141/279/79 142/282/79 144/287/79 143/285/79
f 143/285/80 144/287/80 146/291/80 145/289/80
f 145/289/81 146/291/81 148/295/81 147/293/81
f 147/293/82 148/295/82 150/299/82 149/297/82
f 149/297/83 150/299/83 152/303/83 151/301/83
f 151/301/84 152/303/84 154/307/84 153/305/84
f 153/305/85 154/307/85 156/311/85 155/309/85
f 155/309/86 156/311/86 158/315/86 157/313/86
f 157/313/87 158/315/87 160/319/87 159/317/87
f 159/317/88 160/319/88 162/323/88 161/321/88
f 161/321/89 162/323/89 164/327/89 163/325/89
f 163/325/90 164/327/90 166/331/90 165/329/90
f 165/329/91 166/331/91 168/335/91 167/333/91
f 167/333/92 168/335/92 170/339/92 169/337/92
f 169/337/93 170/339/93 172/343/93 171/341/93
f 171/341/94 172/343/94 174/347/94 173/345/94
f 173/345/95 174/347/95 176/351/95 175/349/95
f 175/349/96 176/351/96 178/355/96 177/353/96
f 177/353/97 178/355/97 180/359/97 179/357/97
f 179/357/98 180/359/98 182/363/98 181/361/98
f 181/361/99 182/363/99 184/367/99 183/365/99
f 183/365/100 184/367/100 186/371/100 185/369/100
f 185/369/101 186/371/101 188/375/101 187/373/101
f 187/373/102 188/375/102 190/379/102 189/377/102
f 189/377/103 190/379/103 192/383/103 191/381/103
f 191/381/104 192/383/104 194/387/104 193/385/104
f 193/385/105 194/387/105 196/391/105 195/389/105
f 195/389/106 196/391/106 198/395/106 197/393/106
f 197/393/107 198/395/107 200/399/107 199/397/107
f 199/397/108 200/399/108 202/404/108 201/401/108
f 144/288/109 142/283/109 204/407/109 202/403/109 200/400/109 198/396/109 196/392/109 194/388/109 192/384/109 190/380/109 188/376/109 186/372/109 184/368/109 182/364/109 180/360/109 178/356/109 176/352/109 174/348/109 172/344/109 170/340/109 168/336/109 166/332/109 164/328/109 162/324/109 160/320/109 158/316/109 156/312/109 154/308/109 152/304/109 150/300/109 148/296/109 146/292/109
f 201/401/110 202/404/110 204/408/110 203/405/110
f 203/405/111 204/408/111 142/284/111 141/280/111
f 141/281/112 143/286/112 145/290/112 147/294/112 149/298/112 151/302/112 153/306/112 155/310/112 157/314/112 159/318/112 161/322/112 163/326/112 165/330/112 167/334/112 169/338/112 171/342/112 173/346/112 175/350/112 177/354/112 179/358/112 181/362/112 183/366/112 185/370/112 187/374/112 189/378/112 191/382/112 193/386/112 195/390/112 197/394/112 199/398/112 201/402/112 203/406/112
