# Blender 3.3.1
# www.blender.org
mtllib City Wall GateV2.mtl
o Cube
v 1.000000 26.532345 -11.416657
v 1.000000 -2.898937 -11.416657
v 1.000000 26.532345 11.416657
v 1.000000 -2.898937 11.416657
v -1.000000 10.391473 -6.035762
v -1.000000 -2.207597 -6.035762
v -1.000000 10.391473 6.035762
v -1.000000 -2.207597 6.035762
v -1.000000 -2.898937 -11.416657
v -1.000000 -2.898937 11.416657
v -1.000000 26.532345 11.416657
v -1.000000 26.532345 -11.416657
v 0.988358 -2.207597 -6.035762
v 0.988358 -2.207597 6.035762
v 0.988358 10.391473 6.035762
v 0.988358 10.391473 -6.035762
vn -0.0000 1.0000 -0.0000
vn -0.0000 -0.0000 1.0000
vn -0.0000 -1.0000 -0.0000
vn 0.9999 0.0168 -0.0000
vn -0.0000 -0.0000 -1.0000
vn -1.0000 -0.0000 -0.0000
vn 1.0000 -0.0000 -0.0022
vn 1.0000 -0.0000 0.0022
vn 1.0000 -0.0007 -0.0000
vt 0.625000 0.500000
vt 0.375000 0.500000
vt 0.625000 0.750000
vt 0.375000 0.750000
vt 0.581211 0.206211
vt 0.418789 0.206211
vt 0.581211 0.043789
vt 0.418789 0.043789
vt 0.125000 0.500000
vt 0.375000 0.250000
vt 0.375000 1.000000
vt 0.125000 0.750000
vt 0.375000 0.000000
vt 0.875000 0.750000
vt 0.625000 1.000000
vt 0.625000 0.000000
vt 0.875000 0.500000
vt 0.625000 0.250000
vt 0.418789 0.206211
vt 0.380620 0.549223
vt 0.418789 0.043789
vt 0.380597 0.697702
vt 0.581211 0.043789
vt 0.491892 0.697114
vt 0.581211 0.206211
vt 0.492574 0.550298
s 0
usemtl Material
f 1/1/1 12/17/1 11/14/1 3/3/1
f 4/4/2 3/3/2 11/15/2 10/11/2
f 5/5/2 6/6/2 13/19/2 16/25/2
f 9/9/3 2/2/3 4/4/3 10/12/3
f 2/2/4 13/20/4 14/22/4 4/4/4
f 9/10/5 12/18/5 1/1/5 2/2/5
f 8/8/6 6/6/6 9/10/6 10/13/6
f 7/7/6 8/8/6 10/13/6 11/16/6
f 6/6/6 5/5/6 12/18/6 9/10/6
f 5/5/6 7/7/6 11/16/6 12/18/6
f 6/6/1 8/8/1 14/21/1 13/19/1
f 7/7/3 5/5/3 16/25/3 15/23/3
f 8/8/5 7/7/5 15/23/5 14/21/5
f 4/4/7 14/22/7 15/24/7 3/3/7
f 1/1/8 16/26/8 13/20/8 2/2/8
f 3/3/9 15/24/9 16/26/9 1/1/9
o Cube.001
v -4.468569 11.913586 11.515187
v -4.468569 13.913586 11.515187
v -4.468569 11.913586 -11.515187
v -4.468569 13.913586 -11.515187
v 4.468569 11.913586 11.515187
v 4.468569 13.913586 11.515187
v 4.468569 11.913586 -11.515187
v 4.468569 13.913586 -11.515187
vn -1.0000 -0.0000 -0.0000
vn -0.0000 -0.0000 -1.0000
vn 1.0000 -0.0000 -0.0000
vn -0.0000 -0.0000 1.0000
vn -0.0000 -1.0000 -0.0000
vn -0.0000 1.0000 -0.0000
vt 0.375000 0.000000
vt 0.375000 1.000000
vt 0.125000 0.750000
vt 0.625000 0.000000
vt 0.625000 1.000000
vt 0.875000 0.750000
vt 0.375000 0.250000
vt 0.125000 0.500000
vt 0.625000 0.250000
vt 0.875000 0.500000
vt 0.375000 0.750000
vt 0.625000 0.750000
vt 0.375000 0.500000
vt 0.625000 0.500000
s 0
f 17/27/10 18/30/10 20/35/10 19/33/10
f 19/33/11 20/35/11 24/40/11 23/39/11
f 23/39/12 24/40/12 22/38/12 21/37/12
f 21/37/13 22/38/13 18/31/13 17/28/13
f 19/34/14 23/39/14 21/37/14 17/29/14
f 24/40/15 20/36/15 18/32/15 22/38/15
o Cube.002
v -4.468569 24.668739 11.515187
v -4.468569 26.668739 11.515187
v -4.468569 24.668739 -11.515187
v -4.468569 26.668739 -11.515187
v 4.468569 24.668739 11.515187
v 4.468569 26.668739 11.515187
v 4.468569 24.668739 -11.515187
v 4.468569 26.668739 -11.515187
vn -1.0000 -0.0000 -0.0000
vn -0.0000 -0.0000 -1.0000
vn 1.0000 -0.0000 -0.0000
vn -0.0000 -0.0000 1.0000
vn -0.0000 -1.0000 -0.0000
vn -0.0000 1.0000 -0.0000
vt 0.375000 0.000000
vt 0.375000 1.000000
vt 0.125000 0.750000
vt 0.625000 0.000000
vt 0.625000 1.000000
vt 0.875000 0.750000
vt 0.375000 0.250000
vt 0.125000 0.500000
vt 0.625000 0.250000
vt 0.875000 0.500000
vt 0.375000 0.750000
vt 0.625000 0.750000
vt 0.375000 0.500000
vt 0.625000 0.500000
s 0
f 25/41/16 26/44/16 28/49/16 27/47/16
f 27/47/17 28/49/17 32/54/17 31/53/17
f 31/53/18 32/54/18 30/52/18 29/51/18
f 29/51/19 30/52/19 26/45/19 25/42/19
f 27/48/20 31/53/20 29/51/20 25/43/20
f 32/54/21 28/50/21 26/46/21 30/52/21
o Cylinder
v 0.000000 -3.000000 11.000000
v 0.000000 29.000000 11.000000
v 0.707107 -3.000000 11.292893
v 0.707107 29.000000 11.292893
v 1.000000 -3.000000 12.000000
v 1.000000 29.000000 12.000000
v 0.707107 -3.000000 12.707107
v 0.707107 29.000000 12.707107
v 0.000000 -3.000000 13.000000
v 0.000000 29.000000 13.000000
v -0.707107 -3.000000 12.707107
v -0.707107 29.000000 12.707107
v -1.000000 -3.000000 12.000000
v -1.000000 29.000000 12.000000
v -0.707107 -3.000000 11.292893
v -0.707107 29.000000 11.292893
vn -0.0000 -0.0507 -0.9987
vn -0.0000 0.0507 -0.9987
vn 0.7062 0.0507 -0.7062
vn 0.7062 -0.0507 -0.7062
vn 0.9987 0.0507 -0.0000
vn 0.9987 -0.0507 -0.0000
vn 0.7062 0.0507 0.7062
vn 0.7062 -0.0507 0.7062
vn -0.0000 0.0507 0.9987
vn -0.0000 -0.0507 0.9987
vn -0.7062 0.0507 0.7062
vn -0.7062 -0.0507 0.7062
vn -0.9987 0.0507 -0.0000
vn -0.9987 -0.0507 -0.0000
vn -0.7062 0.0507 -0.7062
vn -0.7062 -0.0507 -0.7062
vt 1.000000 0.500000
vt 0.000000 0.500000
vt 0.750000 0.490000
vt 1.000000 1.000000
vt 0.250000 0.490000
vt 0.000000 1.000000
vt 0.875000 0.500000
vt 0.919706 0.419706
vt 0.875000 1.000000
vt 0.419706 0.419706
vt 0.750000 0.500000
vt 0.990000 0.250000
vt 0.750000 1.000000
vt 0.490000 0.250000
vt 0.625000 0.500000
vt 0.919706 0.080294
vt 0.625000 1.000000
vt 0.419706 0.080294
vt 0.500000 0.500000
vt 0.750000 0.010000
vt 0.500000 1.000000
vt 0.250000 0.010000
vt 0.375000 0.500000
vt 0.580294 0.080294
vt 0.375000 1.000000
vt 0.080294 0.080294
vt 0.250000 0.500000
vt 0.510000 0.250000
vt 0.010000 0.250000
vt 0.250000 1.000000
vt 0.125000 0.500000
vt 0.580294 0.419706
vt 0.080294 0.419706
vt 0.125000 1.000000
s 1
f 33/55/22 34/58/23 36/63/24 35/61/25
f 35/61/25 36/63/24 38/67/26 37/65/27
f 37/65/27 38/67/26 40/71/28 39/69/29
f 39/69/29 40/71/28 42/75/30 41/73/31
f 41/73/31 42/75/30 44/79/32 43/77/33
f 43/77/33 44/79/32 46/84/34 45/81/35
f 36/64/24 34/59/23 48/87/36 46/83/34 44/80/32 42/76/30 40/72/28 38/68/26
f 45/81/35 46/84/34 48/88/36 47/85/37
f 47/85/37 48/88/36 34/60/23 33/56/22
f 33/57/22 35/62/25 37/66/27 39/70/29 41/74/31 43/78/33 45/82/35 47/86/37
