# Blender 3.3.1
# www.blender.org
mtllib IV Bag(Stand).mtl
o Cube
v 0.098164 7.216674 -0.098164
v 0.098164 0.400869 -0.098164
v 0.098164 7.216674 0.098164
v 0.098164 0.400869 0.098164
v -0.098164 7.216674 -0.098164
v -0.098164 0.400869 -0.098164
v -0.098164 7.216674 0.098164
v -0.098164 0.400869 0.098164
v -0.098164 0.119701 -0.098164
v -0.098164 0.119701 0.098164
v 0.098164 0.119701 -0.098164
v 0.098164 0.119701 0.098164
v 0.260457 -0.067134 -1.454715
v -0.260457 -0.067134 -1.454715
v 0.260457 -0.059292 -1.173657
v -0.260457 -0.059292 -1.173657
v 1.462322 -0.068420 0.262274
v 1.462322 -0.068420 -0.258640
v 1.181348 -0.058006 0.262274
v 1.181348 -0.058006 -0.258640
v -1.462338 -0.067978 -0.258640
v -1.462338 -0.067978 0.262274
v -1.181332 -0.058448 -0.258640
v -1.181332 -0.058448 0.262274
v -0.260457 -0.064557 1.446734
v 0.260457 -0.064557 1.446734
v -0.260457 -0.061870 1.165579
v 0.260457 -0.061870 1.165579
v -0.907152 8.755693 0.098164
v -0.922872 8.559997 0.098164
v -0.907152 8.755693 -0.098164
v -0.922872 8.559997 -0.098164
v -1.944400 8.839014 0.098164
v -1.960120 8.643317 0.098164
v -1.944400 8.839014 -0.098164
v -1.960120 8.643317 -0.098164
v -0.374490 8.122911 -0.098164
v -0.250549 8.220955 -0.098164
v -0.250549 8.220955 0.098164
v -0.374490 8.122911 0.098164
vn -0.0000 -0.0000 -1.0000
vn -0.0000 -0.0000 1.0000
vn -1.0000 -0.0000 -0.0000
vn -0.3250 0.9457 -0.0000
vn 1.0000 -0.0000 -0.0000
vn -0.0000 -1.0000 -0.0000
vn -0.1619 -0.9868 -0.0000
vn -0.0000 -0.9864 0.1642
vn 0.9889 0.1056 -0.1046
vn -0.0000 -0.9996 0.0279
vn -0.9889 0.1066 0.1036
vn -0.0000 0.9453 -0.3261
vn 0.9889 0.1066 0.1036
vn -0.0370 -0.9993 -0.0000
vn 0.3253 0.9456 -0.0000
vn -0.1041 0.1080 0.9887
vn -0.1018 0.1056 -0.9892
vn 0.0339 -0.9994 -0.0000
vn 0.1019 0.1054 -0.9892
vn 0.1623 -0.9867 -0.0000
vn 0.1041 0.1077 0.9887
vn -0.0000 -1.0000 -0.0096
vn -0.0000 -0.9858 -0.1677
vn -0.0000 0.9453 0.3262
vn -0.9889 0.1056 -0.1046
vn -0.0801 -0.9968 -0.0000
vn -0.6233 -0.7820 -0.0000
vn 0.6315 0.7754 -0.0000
vn -0.9968 0.0801 -0.0000
vn 0.0801 0.9968 -0.0000
vn 0.9447 0.3280 -0.0000
vn -0.9565 -0.2917 -0.0000
vt 0.625000 0.500000
vt 0.375000 0.500000
vt 0.625000 0.750000
vt 0.375000 0.750000
vt 0.625000 0.250000
vt 0.375000 0.250000
vt 0.625000 0.000000
vt 0.625000 1.000000
vt 0.375000 0.000000
vt 0.375000 1.000000
vt 0.375000 0.250000
vt 0.125000 0.500000
vt 0.125000 0.750000
vt 0.375000 1.000000
vt 0.375000 0.500000
vt 0.375000 0.750000
vt 0.375000 0.500000
vt 0.375000 0.250000
vt 0.375000 0.500000
vt 0.125000 0.500000
vt 0.375000 0.250000
vt 0.375000 0.750000
vt 0.375000 0.500000
vt 0.375000 0.750000
vt 0.375000 0.500000
vt 0.375000 0.250000
vt 0.375000 0.000000
vt 0.375000 1.000000
vt 0.375000 0.250000
vt 0.125000 0.500000
vt 0.375000 0.000000
vt 0.125000 0.750000
vt 0.375000 1.000000
vt 0.375000 1.000000
vt 0.375000 0.750000
vt 0.125000 0.750000
vt 0.375000 1.000000
vt 0.375000 0.750000
vt 0.625000 0.750000
vt 0.625000 0.000000
vt 0.625000 1.000000
vt 0.625000 0.500000
vt 0.625000 0.250000
vt 0.625000 0.750000
vt 0.625000 0.000000
vt 0.875000 0.750000
vt 0.625000 1.000000
vt 0.625000 0.500000
vt 0.875000 0.500000
vt 0.625000 0.250000
vt 0.625000 0.250000
vt 0.625000 0.500000
vt 0.625000 0.750000
vt 0.625000 0.000000
vt 0.625000 1.000000
s 0
usemtl Material
f 38/52/1 37/51/1 32/43/1 31/42/1
f 4/4/2 3/3/2 7/8/2 8/10/2
f 8/9/3 7/7/3 5/5/3 6/6/3
f 8/9/4 6/6/4 21/26/4 22/27/4
f 2/2/5 1/1/5 3/3/5 4/4/5
f 6/6/1 5/5/1 1/1/1 2/2/1
f 9/12/6 11/15/6 12/16/6 10/13/6
f 12/16/7 11/15/7 20/25/7 19/24/7
f 11/15/8 9/12/8 16/20/8 15/19/8
f 12/16/9 4/4/9 26/35/9 28/38/9
f 14/18/10 13/17/10 15/19/10 16/21/10
f 9/11/11 6/6/11 14/18/11 16/21/11
f 6/6/12 2/2/12 13/17/12 14/18/12
f 2/2/13 11/15/13 15/19/13 13/17/13
f 18/23/14 17/22/14 19/24/14 20/25/14
f 2/2/15 4/4/15 17/22/15 18/23/15
f 4/4/16 12/16/16 19/24/16 17/22/16
f 11/15/17 2/2/17 18/23/17 20/25/17
f 22/27/18 21/26/18 23/29/18 24/31/18
f 6/6/19 9/11/19 23/29/19 21/26/19
f 9/12/20 10/13/20 24/32/20 23/30/20
f 10/14/21 8/10/21 22/28/21 24/33/21
f 26/35/22 25/34/22 27/37/22 28/38/22
f 10/13/23 12/16/23 28/38/23 27/36/23
f 4/4/24 8/10/24 25/34/24 26/35/24
f 8/10/25 10/14/25 27/37/25 25/34/25
f 32/43/26 30/40/26 34/45/26 36/50/26
f 40/55/2 39/53/2 29/39/2 30/41/2
f 37/51/27 40/54/27 30/40/27 32/43/27
f 39/53/28 38/52/28 31/42/28 29/39/28
f 35/48/29 36/49/29 34/46/29 33/44/29
f 30/41/2 29/39/2 33/44/2 34/47/2
f 31/42/1 32/43/1 36/50/1 35/48/1
f 29/39/30 31/42/30 35/48/30 33/44/30
f 3/3/31 1/1/31 38/52/31 39/53/31
f 5/5/32 7/7/32 40/54/32 37/51/32
f 7/8/2 3/3/2 39/53/2 40/55/2
f 1/1/1 5/5/1 37/51/1 38/52/1
