# Blender 3.3.1
# www.blender.org
mtllib Jar.mtl
o Cylinder
v -0.000000 -1.771737 -1.390369
v -0.000000 1.771737 -1.419065
v 0.532071 -1.771737 -1.284534
v 0.543052 1.771737 -1.311045
v 0.983140 -1.771737 -0.983140
v 1.003430 1.771737 -1.003430
v 1.284534 -1.771737 -0.532071
v 1.311045 1.771737 -0.543052
v 1.390369 -1.771737 0.000000
v 1.419065 1.771737 0.000000
v 1.284534 -1.771737 0.532071
v 1.311045 1.771737 0.543053
v 0.983140 -1.771737 0.983140
v 1.003430 1.771737 1.003430
v 0.532071 -1.771737 1.284534
v 0.543052 1.771737 1.311045
v -0.000000 -1.771737 1.390369
v -0.000000 1.771737 1.419065
v -0.532071 -1.771737 1.284534
v -0.543052 1.771737 1.311045
v -0.983140 -1.771737 0.983140
v -1.003430 1.771737 1.003430
v -1.284534 -1.771737 0.532071
v -1.311045 1.771737 0.543053
v -1.390369 -1.771737 0.000000
v -1.419065 1.771737 0.000000
v -1.284534 -1.771737 -0.532071
v -1.311045 1.771737 -0.543052
v -0.983140 -1.771737 -0.983140
v -1.003430 1.771737 -1.003430
v -0.532071 -1.771737 -1.284534
v -0.543052 1.771737 -1.311045
v -0.000000 -1.595603 -1.785377
v 0.683234 -1.595603 -1.649473
v 1.262452 -1.595603 -1.262452
v 1.649473 -1.595603 -0.683234
v 1.785377 -1.595603 0.000000
v 1.649473 -1.595603 0.683234
v 1.262452 -1.595603 1.262452
v 0.683234 -1.595603 1.649473
v -0.000000 -1.595603 1.785377
v -0.683234 -1.595603 1.649473
v -1.262452 -1.595603 1.262452
v -1.649473 -1.595603 0.683234
v -1.785377 -1.595603 0.000000
v -1.649473 -1.595603 -0.683234
v -1.262452 -1.595603 -1.262452
v -0.683234 -1.595603 -1.649473
v -0.000000 1.068270 -1.785377
v 0.683234 1.068270 -1.649473
v 1.262452 1.068270 -1.262452
v 1.649473 1.068270 -0.683234
v 1.785377 1.068270 0.000000
v 1.649473 1.068270 0.683234
v 1.262452 1.068270 1.262452
v 0.683234 1.068270 1.649473
v -0.000000 1.068270 1.785377
v -0.683234 1.068270 1.649473
v -1.262452 1.068270 1.262452
v -1.649473 1.068270 0.683234
v -1.785377 1.068270 0.000000
v -1.649473 1.068270 -0.683234
v -1.262452 1.068270 -1.262452
v -0.683234 1.068270 -1.649473
v -0.000000 1.420004 -1.598303
v 0.611644 1.420004 -1.476639
v 1.130171 1.420004 -1.130171
v 1.476639 1.420004 -0.611644
v 1.598303 1.420004 0.000000
v 1.476639 1.420004 0.611644
v 1.130171 1.420004 1.130171
v 0.611644 1.420004 1.476639
v -0.000000 1.420004 1.598303
v -0.611644 1.420004 1.476639
v -1.130171 1.420004 1.130171
v -1.476639 1.420004 0.611644
v -1.598303 1.420004 0.000000
v -1.476639 1.420004 -0.611644
v -1.130171 1.420004 -1.130171
v -0.611644 1.420004 -1.476639
v -0.000000 1.595870 -1.691840
v 0.647439 1.595870 -1.563056
v 1.196312 1.595870 -1.196312
v 1.563056 1.595870 -0.647439
v 1.691840 1.595870 0.000000
v 1.563056 1.595870 0.647439
v 1.196312 1.595870 1.196312
v 0.647439 1.595870 1.563056
v -0.000000 1.595870 1.691840
v -0.647439 1.595870 1.563056
v -1.196312 1.595870 1.196312
v -1.563056 1.595870 0.647439
v -1.691840 1.595870 0.000000
v -1.563056 1.595870 -0.647439
v -1.196312 1.595870 -1.196312
v -0.647439 1.595870 -1.563056
vn -0.0000 0.2336 -0.9723
vn -0.0000 0.9493 -0.3142
vn 0.1203 0.9493 -0.2903
vn 0.3721 0.2336 -0.8983
vn 0.2222 0.9493 -0.2222
vn 0.6876 0.2336 -0.6876
vn 0.2903 0.9493 -0.1203
vn 0.8983 0.2336 -0.3721
vn 0.3142 0.9493 -0.0000
vn 0.9723 0.2336 -0.0000
vn 0.2903 0.9493 0.1203
vn 0.8983 0.2336 0.3721
vn 0.2222 0.9493 0.2222
vn 0.6876 0.2336 0.6876
vn 0.1203 0.9493 0.2903
vn 0.3721 0.2336 0.8983
vn -0.0000 0.9493 0.3142
vn -0.0000 0.2336 0.9723
vn -0.1203 0.9493 0.2903
vn -0.3721 0.2336 0.8983
vn -0.2222 0.9493 0.2222
vn -0.6876 0.2336 0.6876
vn -0.2903 0.9493 0.1203
vn -0.8983 0.2336 0.3721
vn -0.3142 0.9493 -0.0000
vn -0.9723 0.2336 -0.0000
vn -0.2903 0.9493 -0.1203
vn -0.8983 0.2336 -0.3721
vn -0.2222 0.9493 -0.2222
vn -0.6876 0.2336 -0.6876
vn -0.1203 0.9493 -0.2903
vn -0.3721 0.2336 -0.8983
vn -0.0000 -0.9725 -0.2328
vn 0.0891 -0.9725 -0.2151
vn 0.1646 -0.9725 -0.1646
vn 0.2151 -0.9725 -0.0891
vn 0.2328 -0.9725 -0.0000
vn 0.2151 -0.9725 0.0891
vn 0.1646 -0.9725 0.1646
vn 0.0891 -0.9725 0.2151
vn -0.0000 -0.9725 0.2328
vn -0.0891 -0.9725 0.2151
vn -0.1646 -0.9725 0.1646
vn -0.2151 -0.9725 0.0891
vn -0.2328 -0.9725 -0.0000
vn -0.2151 -0.9725 -0.0891
vn -0.1646 -0.9725 -0.1646
vn -0.0891 -0.9725 -0.2151
vn -0.3279 -0.5156 -0.7916
vn -0.0000 -0.5156 -0.8569
vn -0.6059 -0.5156 -0.6059
vn -0.7916 -0.5156 -0.3279
vn -0.8569 -0.5156 -0.0000
vn -0.7916 -0.5156 0.3279
vn -0.6059 -0.5156 0.6059
vn -0.3279 -0.5156 0.7916
vn -0.0000 -0.5156 0.8569
vn 0.3279 -0.5156 0.7916
vn 0.6059 -0.5156 0.6059
vn 0.7916 -0.5156 0.3279
vn 0.8569 -0.5156 -0.0000
vn 0.7916 -0.5156 -0.3279
vn 0.6059 -0.5156 -0.6059
vn 0.3279 -0.5156 -0.7916
vn -0.3719 0.2352 -0.8980
vn -0.0000 0.2352 -0.9719
vn -0.6873 0.2352 -0.6873
vn -0.8980 0.2352 -0.3719
vn -0.9719 0.2352 -0.0000
vn -0.8980 0.2352 0.3719
vn -0.6873 0.2352 0.6873
vn -0.3719 0.2352 0.8980
vn -0.0000 0.2352 0.9719
vn 0.3719 0.2352 0.8980
vn 0.6873 0.2352 0.6873
vn 0.8980 0.2352 0.3719
vn 0.9719 0.2352 -0.0000
vn 0.8980 0.2352 -0.3719
vn 0.6873 0.2352 -0.6873
vn 0.3719 0.2352 -0.8980
vn -0.3827 -0.0000 -0.9239
vn -0.0000 -0.0000 -1.0000
vn -0.7071 -0.0000 -0.7071
vn -0.9239 -0.0000 -0.3827
vn -1.0000 -0.0000 -0.0000
vn -0.9239 -0.0000 0.3827
vn -0.7071 -0.0000 0.7071
vn -0.3827 -0.0000 0.9239
vn -0.0000 -0.0000 1.0000
vn 0.3827 -0.0000 0.9239
vn 0.7071 -0.0000 0.7071
vn 0.9239 -0.0000 0.3827
vn 1.0000 -0.0000 -0.0000
vn 0.9239 -0.0000 -0.3827
vn 0.7071 -0.0000 -0.7071
vn 0.3827 -0.0000 -0.9239
vt 0.750000 0.490000
vt 0.000000 0.500000
vt 1.000000 0.500000
vt 1.000000 1.000000
vt 0.250000 0.490000
vt 0.000000 1.000000
vt 0.841844 0.471731
vt 0.937500 0.500000
vt 0.937500 1.000000
vt 0.341844 0.471731
vt 0.919706 0.419706
vt 0.875000 0.500000
vt 0.875000 1.000000
vt 0.419706 0.419706
vt 0.971731 0.341844
vt 0.812500 0.500000
vt 0.812500 1.000000
vt 0.471731 0.341844
vt 0.990000 0.250000
vt 0.750000 0.500000
vt 0.750000 1.000000
vt 0.490000 0.250000
vt 0.971731 0.158156
vt 0.687500 0.500000
vt 0.687500 1.000000
vt 0.471731 0.158156
vt 0.919706 0.080294
vt 0.625000 0.500000
vt 0.625000 1.000000
vt 0.419706 0.080294
vt 0.841844 0.028269
vt 0.562500 0.500000
vt 0.562500 1.000000
vt 0.341844 0.028269
vt 0.750000 0.010000
vt 0.500000 0.500000
vt 0.500000 1.000000
vt 0.250000 0.010000
vt 0.658156 0.028269
vt 0.437500 0.500000
vt 0.437500 1.000000
vt 0.158156 0.028269
vt 0.580294 0.080294
vt 0.375000 0.500000
vt 0.375000 1.000000
vt 0.080294 0.080294
vt 0.528269 0.158156
vt 0.312500 0.500000
vt 0.312500 1.000000
vt 0.028269 0.158156
vt 0.510000 0.250000
vt 0.250000 0.500000
vt 0.250000 1.000000
vt 0.010000 0.250000
vt 0.528269 0.341844
vt 0.187500 0.500000
vt 0.187500 1.000000
vt 0.028269 0.341844
vt 0.580294 0.419706
vt 0.125000 0.500000
vt 0.080294 0.419706
vt 0.125000 1.000000
vt 0.658156 0.471731
vt 0.062500 0.500000
vt 0.158156 0.471731
vt 0.062500 1.000000
vt 0.000000 0.566293
vt 1.000000 0.566293
vt 0.937500 0.566293
vt 0.875000 0.566293
vt 0.812500 0.566293
vt 0.750000 0.566293
vt 0.687500 0.566293
vt 0.625000 0.566293
vt 0.562500 0.566293
vt 0.500000 0.566293
vt 0.437500 0.566293
vt 0.375000 0.566293
vt 0.312500 0.566293
vt 0.250000 0.566293
vt 0.187500 0.566293
vt 0.125000 0.566293
vt 0.062500 0.566293
vt 0.000000 0.909395
vt 1.000000 0.909395
vt 0.937500 0.909395
vt 0.875000 0.909395
vt 0.812500 0.909395
vt 0.750000 0.909395
vt 0.687500 0.909395
vt 0.625000 0.909395
vt 0.562500 0.909395
vt 0.500000 0.909395
vt 0.437500 0.909395
vt 0.375000 0.909395
vt 0.312500 0.909395
vt 0.250000 0.909395
vt 0.187500 0.909395
vt 0.125000 0.909395
vt 0.062500 0.909395
vt 0.000000 0.954697
vt 1.000000 0.954697
vt 0.937500 0.954697
vt 0.875000 0.954697
vt 0.812500 0.954697
vt 0.750000 0.954697
vt 0.687500 0.954697
vt 0.625000 0.954697
vt 0.562500 0.954697
vt 0.500000 0.954697
vt 0.437500 0.954697
vt 0.375000 0.954697
vt 0.312500 0.954697
vt 0.250000 0.954697
vt 0.187500 0.954697
vt 0.125000 0.954697
vt 0.062500 0.954697
vt 0.000000 0.977349
vt 1.000000 0.977349
vt 0.937500 0.977349
vt 0.875000 0.977349
vt 0.812500 0.977349
vt 0.750000 0.977349
vt 0.687500 0.977349
vt 0.625000 0.977349
vt 0.562500 0.977349
vt 0.500000 0.977349
vt 0.437500 0.977349
vt 0.375000 0.977349
vt 0.312500 0.977349
vt 0.250000 0.977349
vt 0.187500 0.977349
vt 0.125000 0.977349
vt 0.062500 0.977349
s 1
f 81/119/1 2/4/2 4/9/3 82/120/4
f 82/120/4 4/9/3 6/13/5 83/121/6
f 83/121/6 6/13/5 8/17/7 84/122/8
f 84/122/8 8/17/7 10/21/9 85/123/10
f 85/123/10 10/21/9 12/25/11 86/124/12
f 86/124/12 12/25/11 14/29/13 87/125/14
f 87/125/14 14/29/13 16/33/15 88/126/16
f 88/126/16 16/33/15 18/37/17 89/127/18
f 89/127/18 18/37/17 20/41/19 90/128/20
f 90/128/20 20/41/19 22/45/21 91/129/22
f 91/129/22 22/45/21 24/49/23 92/130/24
f 92/130/24 24/49/23 26/53/25 93/131/26
f 93/131/26 26/53/25 28/57/27 94/132/28
f 94/132/28 28/57/27 30/62/29 95/133/30
f 4/10/3 2/5/2 32/65/31 30/61/29 28/58/27 26/54/25 24/50/23 22/46/21 20/42/19 18/38/17 16/34/15 14/30/13 12/26/11 10/22/9 8/18/7 6/14/5
f 95/133/30 30/62/29 32/66/31 96/134/32
f 96/134/32 32/66/31 2/6/2 81/118/1
f 1/1/33 3/7/34 5/11/35 7/15/36 9/19/37 11/23/38 13/27/39 15/31/40 17/35/41 19/39/42 21/43/43 23/47/44 25/51/45 27/55/46 29/59/47 31/63/48
f 31/64/48 48/83/49 33/67/50 1/2/33
f 29/60/47 47/82/51 48/83/49 31/64/48
f 27/56/46 46/81/52 47/82/51 29/60/47
f 25/52/45 45/80/53 46/81/52 27/56/46
f 23/48/44 44/79/54 45/80/53 25/52/45
f 21/44/43 43/78/55 44/79/54 23/48/44
f 19/40/42 42/77/56 43/78/55 21/44/43
f 17/36/41 41/76/57 42/77/56 19/40/42
f 15/32/40 40/75/58 41/76/57 17/36/41
f 13/28/39 39/74/59 40/75/58 15/32/40
f 11/24/38 38/73/60 39/74/59 13/28/39
f 9/20/37 37/72/61 38/73/60 11/24/38
f 7/16/36 36/71/62 37/72/61 9/20/37
f 5/12/35 35/70/63 36/71/62 7/16/36
f 3/8/34 34/69/64 35/70/63 5/12/35
f 1/3/33 33/68/50 34/69/64 3/8/34
f 48/83/49 64/100/65 49/84/66 33/67/50
f 47/82/51 63/99/67 64/100/65 48/83/49
f 46/81/52 62/98/68 63/99/67 47/82/51
f 45/80/53 61/97/69 62/98/68 46/81/52
f 44/79/54 60/96/70 61/97/69 45/80/53
f 43/78/55 59/95/71 60/96/70 44/79/54
f 42/77/56 58/94/72 59/95/71 43/78/55
f 41/76/57 57/93/73 58/94/72 42/77/56
f 40/75/58 56/92/74 57/93/73 41/76/57
f 39/74/59 55/91/75 56/92/74 40/75/58
f 38/73/60 54/90/76 55/91/75 39/74/59
f 37/72/61 53/89/77 54/90/76 38/73/60
f 36/71/62 52/88/78 53/89/77 37/72/61
f 35/70/63 51/87/79 52/88/78 36/71/62
f 34/69/64 50/86/80 51/87/79 35/70/63
f 33/68/50 49/85/66 50/86/80 34/69/64
f 64/100/65 80/117/81 65/101/82 49/84/66
f 63/99/67 79/116/83 80/117/81 64/100/65
f 62/98/68 78/115/84 79/116/83 63/99/67
f 61/97/69 77/114/85 78/115/84 62/98/68
f 60/96/70 76/113/86 77/114/85 61/97/69
f 59/95/71 75/112/87 76/113/86 60/96/70
f 58/94/72 74/111/88 75/112/87 59/95/71
f 57/93/73 73/110/89 74/111/88 58/94/72
f 56/92/74 72/109/90 73/110/89 57/93/73
f 55/91/75 71/108/91 72/109/90 56/92/74
f 54/90/76 70/107/92 71/108/91 55/91/75
f 53/89/77 69/106/93 70/107/92 54/90/76
f 52/88/78 68/105/94 69/106/93 53/89/77
f 51/87/79 67/104/95 68/105/94 52/88/78
f 50/86/80 66/103/96 67/104/95 51/87/79
f 49/85/66 65/102/82 66/103/96 50/86/80
f 80/117/81 96/134/32 81/118/1 65/101/82
f 79/116/83 95/133/30 96/134/32 80/117/81
f 78/115/84 94/132/28 95/133/30 79/116/83
f 77/114/85 93/131/26 94/132/28 78/115/84
f 76/113/86 92/130/24 93/131/26 77/114/85
f 75/112/87 91/129/22 92/130/24 76/113/86
f 74/111/88 90/128/20 91/129/22 75/112/87
f 73/110/89 89/127/18 90/128/20 74/111/88
f 72/109/90 88/126/16 89/127/18 73/110/89
f 71/108/91 87/125/14 88/126/16 72/109/90
f 70/107/92 86/124/12 87/125/14 71/108/91
f 69/106/93 85/123/10 86/124/12 70/107/92
f 68/105/94 84/122/8 85/123/10 69/106/93
f 67/104/95 83/121/6 84/122/8 68/105/94
f 66/103/96 82/120/4 83/121/6 67/104/95
f 65/102/82 81/119/1 82/120/4 66/103/96
