# Blender 3.3.1
# www.blender.org
mtllib Jeep Shell V2.mtl
o Cube
v -1.520931 1.517978 -2.129158
v -2.353654 0.240308 -4.685364
v -2.353654 0.240308 -2.124994
v -2.351017 0.240308 -3.995048
v -2.353654 0.931461 -3.689724
v -2.353654 0.936135 -2.423549
v -1.561839 0.240308 -3.995545
v -1.576052 0.240308 -2.125390
v -1.537704 0.872746 -3.693006
v -1.569354 0.878673 -2.415657
v 1.520931 1.517978 -2.129158
v 2.353654 0.240308 -4.685364
v 2.353654 0.240308 -2.124994
v 2.351017 0.240308 -3.995048
v 2.353654 0.931461 -3.689724
v 2.353654 0.936135 -2.423549
v 1.561839 0.240308 -3.995545
v 1.576052 0.240308 -2.125390
v 1.537704 0.872746 -3.693006
v 1.569354 0.878673 -2.415657
v -1.429528 1.517978 1.930774
v -2.353654 0.240308 4.685364
v -2.351017 0.240308 3.995048
v -2.353654 0.240308 2.124994
v -2.353654 0.931461 3.689724
v -2.353654 0.936135 2.423549
v -1.561839 0.240308 3.995545
v -1.576052 0.240308 2.125390
v -1.537704 0.872746 3.693006
v -1.569354 0.878673 2.415657
v 1.429528 1.517978 1.930774
v 2.353654 0.240308 4.685364
v 2.351017 0.240308 3.995048
v 2.353654 0.240308 2.124994
v 2.353654 0.931461 3.689724
v 2.353654 0.936135 2.423549
v 1.561839 0.240308 3.995545
v 1.576052 0.240308 2.125390
v 1.537704 0.872746 3.693006
v 1.569354 0.878673 2.415657
v 2.353654 1.517978 -4.685364
v -2.353654 1.517978 -4.685364
v -1.320902 1.375588 4.522332
v 1.320902 1.375588 4.522332
v 1.520931 0.853954 -2.129158
v -1.520931 0.853954 -2.129158
v -1.520931 0.853954 1.581085
v 1.520931 0.853954 1.581085
v 2.353654 1.517978 4.685364
v -2.353654 1.517978 4.685364
v 1.520931 1.517978 1.581085
v -1.520931 1.517978 1.581085
v 1.320902 1.293146 4.335675
v -1.320902 1.293146 4.335675
v 1.429528 1.293146 1.930774
v -1.429528 1.293146 1.930774
v 1.520931 1.843961 1.651663
v -1.520931 1.843961 1.651663
v 1.429528 1.589687 1.891720
v -1.429528 1.589687 1.891720
v 1.427337 1.517978 -2.433354
v -1.427337 1.517978 -2.433353
v 1.520931 1.688987 -2.018502
v -1.520931 1.688987 -2.018502
v -1.427337 1.688987 -2.322697
v 1.427337 1.688987 -2.322698
vn -0.0000 -1.0000 -0.0000
vn -0.0105 -0.4037 -0.9148
vn -0.9996 0.0244 -0.0146
vn -0.0131 -0.4171 0.9088
vn -0.0724 -0.9974 0.0033
vn -1.0000 -0.0000 -0.0000
vn -0.0000 -0.0000 -1.0000
vn 0.0105 -0.4037 -0.9148
vn 0.9996 0.0244 -0.0146
vn 0.0131 -0.4171 0.9088
vn 0.0724 -0.9974 0.0033
vn -0.0105 -0.4037 0.9148
vn -0.9996 0.0244 0.0146
vn -0.0131 -0.4171 -0.9088
vn -0.0724 -0.9974 -0.0033
vn 1.0000 -0.0000 -0.0000
vn 0.0105 -0.4037 0.9148
vn 0.9996 0.0244 0.0146
vn 0.0131 -0.4171 -0.9088
vn 0.0724 -0.9974 -0.0033
vn -0.0000 -0.0000 1.0000
vn -0.9389 0.1869 -0.2889
vn -0.0000 1.0000 -0.0000
vn 0.9988 0.0259 -0.0427
vn -0.0000 0.7532 -0.6578
vn -0.0000 0.2116 -0.9774
vn 0.1190 0.9921 0.0399
vn -0.1190 0.9921 0.0399
vn -0.0000 0.9147 -0.4040
vn -0.9988 0.0259 -0.0427
vn -0.0000 0.6865 0.7271
vn 0.9576 -0.0228 0.2870
vn -0.0000 0.4783 0.8782
vn -0.9576 -0.0228 0.2870
vn -0.0000 -0.5433 0.8396
vn -0.0000 0.5433 -0.8396
vn 0.9389 0.1869 -0.2889
vn 1.0000 -0.0030 0.0018
vn 1.0000 -0.0030 -0.0018
vn 1.0000 -0.0000 0.0038
vn 1.0000 -0.0000 -0.0038
vn -1.0000 -0.0030 -0.0018
vn -1.0000 -0.0000 0.0038
vn -1.0000 -0.0000 -0.0038
vn -1.0000 -0.0030 0.0018
vt 0.875000 0.500000
vt 0.125000 0.500000
vt 0.375000 0.250000
vt 0.375000 0.158470
vt 0.125000 0.591530
vt 0.375000 0.125000
vt 0.125000 0.527185
vt 0.375000 0.222815
vt 0.515374 0.212650
vt 0.522709 0.167864
vt 0.375000 0.220600
vt 0.125000 0.529400
vt 0.375000 0.161796
vt 0.185227 0.588381
vt 0.503661 0.211554
vt 0.510367 0.168425
vt 0.875000 0.500000
vt 0.125000 0.500000
vt 0.375000 0.250000
vt 0.125000 0.625000
vt 0.375000 0.158470
vt 0.125000 0.527185
vt 0.375000 0.222815
vt 0.515374 0.212650
vt 0.522709 0.167864
vt 0.375000 0.220600
vt 0.125000 0.529400
vt 0.375000 0.161796
vt 0.185227 0.588381
vt 0.503661 0.211554
vt 0.510367 0.168425
vt 0.875000 0.500000
vt 0.125000 0.500000
vt 0.375000 0.250000
vt 0.125000 0.527185
vt 0.375000 0.222815
vt 0.375000 0.158470
vt 0.125000 0.591530
vt 0.515374 0.212650
vt 0.522709 0.167864
vt 0.375000 0.220600
vt 0.125000 0.529400
vt 0.375000 0.161796
vt 0.185227 0.588381
vt 0.503661 0.211554
vt 0.510367 0.168425
vt 0.875000 0.500000
vt 0.125000 0.500000
vt 0.375000 0.250000
vt 0.125000 0.527185
vt 0.375000 0.222815
vt 0.125000 0.591530
vt 0.375000 0.158470
vt 0.515374 0.212650
vt 0.522709 0.167864
vt 0.375000 0.220600
vt 0.125000 0.529400
vt 0.375000 0.161796
vt 0.185227 0.588381
vt 0.503661 0.211554
vt 0.510367 0.168425
vt 0.875000 0.500000
vt 0.625000 0.250000
vt 0.875000 0.500000
vt 0.625000 0.250000
vt 0.875000 0.500000
vt 0.875000 0.500000
vt 0.875000 0.500000
vt 0.875000 0.500000
vt 0.875000 0.500000
vt 0.875000 0.500000
vt 0.875000 0.500000
vt 0.625000 0.250000
vt 0.875000 0.500000
vt 0.625000 0.250000
vt 0.875000 0.500000
vt 0.875000 0.500000
vt 0.875000 0.500000
vt 0.875000 0.500000
vt 0.875000 0.500000
vt 0.875000 0.500000
vt 0.875000 0.500000
vt 0.875000 0.500000
vt 0.875000 0.500000
vt 0.875000 0.500000
vt 0.875000 0.500000
vt 0.875000 0.500000
vt 0.875000 0.500000
vt 0.875000 0.500000
vt 0.875000 0.500000
vt 0.875000 0.500000
s 0
usemtl Material
f 22/33/1 27/42/1 37/57/1 32/48/1
f 3/4/2 6/10/2 10/16/2 8/13/2
f 8/13/3 10/16/3 9/15/3 7/11/3
f 9/15/4 5/9/4 4/8/4 7/11/4
f 10/16/5 6/10/5 5/9/5 9/15/5
f 3/6/6 24/37/6 26/40/6
f 51/76/6 11/17/6 45/68/6 48/71/6
f 12/19/7 2/3/7 42/65/7 41/63/7
f 13/21/8 18/28/8 20/31/8 16/25/8
f 18/28/9 17/26/9 19/30/9 20/31/9
f 19/30/10 17/26/10 14/23/10 15/24/10
f 20/31/11 19/30/11 15/24/11 16/25/11
f 24/37/12 28/43/12 30/46/12 26/40/12
f 28/43/13 27/41/13 29/45/13 30/46/13
f 29/45/14 27/41/14 23/36/14 25/39/14
f 30/46/15 29/45/15 25/39/15 26/40/15
f 41/63/16 49/73/16 36/55/16 16/25/16
f 34/53/17 36/55/17 40/61/17 38/58/17
f 38/58/18 40/61/18 39/60/18 37/56/18
f 39/60/19 35/54/19 33/51/19 37/56/19
f 40/61/20 36/55/20 35/54/20 39/60/20
f 32/49/21 49/73/21 50/75/21 22/34/21
f 62/87/22 1/1/22 64/89/22 65/90/22
f 52/77/23 1/1/23 62/87/23 42/64/23 50/74/23
f 11/17/23 51/76/23 49/72/23 41/62/23 61/86/23
f 21/32/24 43/66/24 54/79/24 56/81/24
f 47/70/23 48/71/23 45/68/23 46/69/23
f 11/17/21 1/1/21 46/69/21 45/68/21
f 52/77/7 51/76/7 48/71/7 47/70/7
f 1/1/16 52/77/16 47/70/16 46/69/16
f 44/67/25 43/66/25 50/74/25 49/72/25
f 51/76/26 52/77/26 58/83/26 57/82/26
f 43/66/27 21/32/27 52/77/27 50/74/27
f 31/47/28 44/67/28 49/72/28 51/76/28
f 55/80/23 56/81/23 54/79/23 53/78/23
f 43/66/29 44/67/29 53/78/29 54/79/29
f 44/67/30 31/47/30 55/80/30 53/78/30
f 31/47/21 21/32/21 56/81/21 55/80/21
f 60/85/31 59/84/31 57/82/31 58/83/31
f 31/47/32 51/76/32 57/82/32 59/84/32
f 21/32/33 31/47/33 59/84/33 60/85/33
f 52/77/34 21/32/34 60/85/34 58/83/34
f 62/87/23 61/86/23 41/62/23 42/64/23
f 64/89/23 63/88/23 66/91/23 65/90/23
f 1/1/35 11/17/35 63/88/35 64/89/35
f 61/86/36 62/87/36 65/90/36 66/91/36
f 11/17/37 61/86/37 66/91/37 63/88/37
f 38/59/1 18/29/1 13/20/1 34/52/1
f 18/29/1 38/59/1 28/44/1 8/14/1
f 8/14/1 28/44/1 24/38/1 3/5/1
f 8/14/1 7/12/1 17/27/1 18/29/1
f 17/27/1 7/12/1 2/2/1 12/18/1
f 12/18/1 14/22/1 17/27/1
f 2/2/1 7/12/1 4/7/1
f 32/48/1 37/57/1 33/50/1
f 37/57/1 27/42/1 28/44/1 38/59/1
f 27/42/1 22/33/1 23/35/1
f 36/55/16 49/73/16 35/54/16
f 35/54/38 49/73/38 33/51/38
f 16/25/16 15/24/16 41/63/16
f 15/24/39 14/23/39 41/63/39
f 41/63/40 14/23/40 12/19/40
f 33/51/41 49/73/41 32/49/41
f 16/25/16 36/55/16 34/53/16
f 34/53/16 13/21/16 16/25/16
f 5/9/42 42/65/42 4/8/42
f 4/8/43 42/65/43 2/3/43
f 6/10/6 42/65/6 5/9/6
f 26/40/6 25/39/6 50/75/6
f 6/10/6 3/6/6 26/40/6
f 50/75/44 23/36/44 22/34/44
f 50/75/6 42/65/6 6/10/6 26/40/6
f 23/36/45 50/75/45 25/39/45
