# Blender 3.3.1
# www.blender.org
mtllib Medical Tent.mtl
o Cube
v 10.693482 7.891775 -5.792986
v 12.272132 0.393705 -9.883824
v 10.693482 7.891775 5.792986
v 12.272132 0.393705 9.883821
v -11.289080 5.852982 -2.278360
v -12.273026 0.210600 -9.883824
v -11.287195 5.852903 2.285170
v -12.272647 0.396282 9.883720
v 10.693482 7.891775 0.000000
v 12.272130 0.393705 -0.000002
v 0.000000 0.393705 -9.883823
v 0.000000 7.891775 5.792986
v 0.000000 0.391303 9.883821
v 0.000000 7.891775 -5.792986
v 0.000000 7.690186 8.138396
v -12.708138 7.690186 8.138396
v 12.708138 7.690186 0.000000
v 12.708138 7.690186 8.138396
v -12.708138 7.690186 0.000000
v -12.708138 7.690186 -8.138396
v 0.000000 7.690186 -8.138396
v 12.708138 7.690186 -8.138396
v 0.000000 10.731349 -0.000000
v -13.262319 0.258950 -2.318589
v -13.262319 0.330852 2.347286
v 0.000000 0.253586 -11.004246
v 0.000000 0.393705 11.044280
v 13.262319 0.393705 11.044280
v 13.262319 0.393705 0.000000
v 13.262319 0.249582 -10.986630
v -0.039049 7.307932 -5.043158
v -9.781936 7.124826 -5.043159
v 9.703127 7.307932 -0.015831
v 9.703129 7.307932 -5.043159
v -0.039049 7.305529 5.011496
v -9.781635 7.310508 5.011446
v 9.703129 7.307932 5.011496
v -13.262319 0.195841 -11.044280
v -13.262319 0.393705 11.044280
v -10.693482 7.891775 5.792986
v -10.693482 7.891775 -5.792986
v -12.272890 0.308985 -2.317372
v -12.165485 0.354638 2.380322
v -10.190362 5.939582 2.286760
v -10.192245 5.939660 -2.276770
v 0.016466 5.482462 7.366397
v 0.000000 1.116560 10.538027
v 1.082283 5.477370 7.369964
v 1.079974 4.164823 8.403168
v 3.200183 4.099240 8.449099
v 3.071377 2.478713 9.584040
v 1.057922 2.428571 9.619157
v 1.027915 1.106164 10.545308
v -1.147388 5.511970 7.352317
v -1.242621 1.122256 10.534038
v -1.230695 2.300662 9.708737
v -2.993230 2.304386 9.706130
v -2.939195 4.171936 8.398187
v -1.195650 4.110201 8.441422
vn -0.0000 -0.9963 0.0856
vn 0.0021 0.5728 0.8197
vn -0.0003 -0.5760 -0.8175
vn 0.9460 0.3241 -0.0000
vn 0.0007 0.5629 -0.8265
vn 0.9467 0.3222 -0.0028
vn 0.9430 -0.3328 0.0088
vn -0.0009 -0.0069 1.0000
vn -0.0000 -0.9963 -0.0856
vn 0.0001 -0.5760 -0.8174
vn -0.0000 0.5636 -0.8260
vn -0.0021 0.5728 0.8197
vn 0.0996 -0.9950 -0.0000
vn -0.0000 0.9367 0.3500
vn -0.0000 0.9367 -0.3500
vn 0.2327 0.9725 -0.0000
vn -0.0996 -0.9950 -0.0000
vn -0.2327 0.9725 -0.0000
vn 0.0269 -0.9996 0.0099
vn 0.0093 -0.9979 0.0637
vn 0.0001 -1.0000 0.0010
vn -0.0688 -0.9976 0.0069
vn -0.0000 -1.0000 -0.0000
vn -0.0002 -0.9919 0.1267
vn -0.0002 -1.0000 -0.0002
vn 0.0001 -1.0000 -0.0001
vn 0.0091 -0.9999 0.0091
vn -0.9374 -0.3483 -0.0000
vn 0.0096 -0.5746 0.8184
vn -0.0000 -0.5735 0.8192
vn -0.9454 0.3258 -0.0101
vn -0.9600 0.2800 0.0001
vn -0.9469 0.3213 0.0058
vn 0.0168 -0.0200 -0.9997
vn 0.0788 -0.9969 -0.0000
vn 0.0162 -0.9998 0.0066
vn -0.0174 0.5818 0.8132
vn 0.0168 0.5819 0.8131
vt 0.625000 0.500000
vt 0.365667 0.506071
vt 0.625000 0.750000
vt 0.365667 0.743929
vt 0.601534 0.114378
vt 0.134324 0.624998
vt 0.134324 0.506071
vt 0.601218 0.010618
vt 0.134334 0.743930
vt 0.625000 0.625000
vt 0.365667 0.625000
vt 0.250000 0.506071
vt 0.625000 0.875000
vt 0.249999 0.743928
vt 0.625000 0.375000
vt 0.625000 0.875000
vt 0.750000 0.750000
vt 0.625000 0.000000
vt 0.625000 1.000000
vt 0.875000 0.750000
vt 0.625000 0.625000
vt 0.625000 0.750000
vt 0.625000 0.125000
vt 0.875000 0.625000
vt 0.625000 0.250000
vt 0.625000 0.125000
vt 0.875000 0.500000
vt 0.625000 0.375000
vt 0.750000 0.500000
vt 0.625000 0.500000
vt 0.750000 0.625000
vt 0.125000 0.664869
vt 0.398501 0.117424
vt 0.428700 0.007524
vt 0.398746 0.007547
vt 0.125000 0.711193
vt 0.375000 0.375000
vt 0.250000 0.500000
vt 0.375000 0.875000
vt 0.250000 0.750000
vt 0.375000 0.750000
vt 0.375000 0.625000
vt 0.375000 0.500000
vt 0.250000 0.625000
vt 0.250000 0.506071
vt 0.134324 0.624998
vt 0.134324 0.506071
vt 0.365667 0.625000
vt 0.313999 0.625000
vt 0.365667 0.506071
vt 0.249999 0.743928
vt 0.134334 0.743930
vt 0.365667 0.743929
vt 0.375000 0.250000
vt 0.125000 0.625000
vt 0.125000 0.500000
vt 0.375000 0.125000
vt 0.375000 1.000000
vt 0.375000 0.000000
vt 0.125000 0.750000
vt 0.625000 1.000000
vt 0.625000 0.000000
vt 0.625000 0.250000
vt 0.625000 0.125000
vt 0.398501 0.117424
vt 0.134328 0.667873
vt 0.398746 0.007547
vt 0.134330 0.701693
vt 0.134331 0.712522
vt 0.601218 0.010618
vt 0.134327 0.655685
vt 0.601534 0.114378
vt 0.558488 0.875000
vt 0.399101 0.875000
vt 0.558319 0.863396
vt 0.500736 0.863686
vt 0.498550 0.841538
vt 0.444518 0.844141
vt 0.442846 0.864318
vt 0.398755 0.864904
vt 0.558295 0.885147
vt 0.399291 0.887187
vt 0.438582 0.887387
vt 0.438706 0.904954
vt 0.500974 0.905791
vt 0.498915 0.887511
s 0
usemtl Material
f 1/1/1 14/15/1 21/28/1 22/30/1
f 27/39/2 47/74/2 55/82/2 56/83/2 57/84/2 58/85/2 59/86/2 54/81/2 46/73/2 12/13/2 40/61/2 39/58/2
f 13/14/3 8/9/3 36/52/3 35/51/3
f 29/42/4 9/10/4 3/3/4 28/41/4
f 26/37/5 14/15/5 1/1/5 30/43/5
f 30/43/6 1/1/6 9/10/6 29/42/6
f 8/9/7 43/68/7 44/69/7 45/71/7 42/66/7 6/6/7 32/46/7 36/52/7
f 5/5/8 24/33/8 42/65/8 45/72/8
f 12/13/9 3/3/9 18/22/9 15/16/9
f 14/15/1 41/63/1 20/25/1 21/28/1
f 4/4/10 13/14/10 35/51/10 37/53/10
f 38/54/11 41/63/11 14/15/11 26/37/11
f 28/41/12 3/3/12 12/13/12 46/73/12 48/75/12 49/76/12 50/77/12 51/78/12 52/79/12 53/80/12 47/74/12 27/39/12
f 41/64/13 40/62/13 16/18/13 19/23/13 20/26/13
f 23/31/14 16/20/14 15/17/14
f 21/29/15 20/27/15 23/31/15
f 22/30/16 23/31/16 17/21/16
f 17/21/16 23/31/16 18/22/16
f 40/61/9 12/13/9 15/16/9 16/19/9
f 9/10/17 1/1/17 22/30/17 17/21/17
f 3/3/17 9/10/17 17/21/17 18/22/17
f 18/22/14 23/31/14 15/17/14
f 23/31/15 22/30/15 21/29/15
f 16/20/18 23/31/18 19/24/18
f 23/31/18 20/27/18 19/24/18
f 6/6/19 42/66/19 24/32/19 38/55/19
f 11/12/20 6/7/20 38/56/20 26/38/20
f 13/14/21 4/4/21 28/41/21 27/40/21
f 10/11/22 2/2/22 30/43/22 29/42/22
f 4/4/23 10/11/23 29/42/23 28/41/23
f 2/2/24 11/12/24 26/38/24 30/43/24
f 8/9/25 13/14/25 27/40/25 39/60/25
f 31/44/26 34/49/26 33/48/26 37/53/26 35/51/26
f 32/46/27 31/44/27 35/51/27 36/52/27
f 10/11/28 4/4/28 37/53/28 33/48/28
f 2/2/28 10/11/28 33/48/28 34/50/28
f 6/7/29 11/12/29 31/45/29 32/47/29
f 11/12/30 2/2/30 34/50/30 31/45/30
f 7/8/31 25/34/31 39/59/31 40/62/31
f 5/5/32 7/8/32 40/62/32 41/64/32
f 24/33/33 5/5/33 41/64/33 38/57/33
f 25/35/34 7/8/34 44/70/34 43/67/34
f 7/8/35 5/5/35 45/72/35 44/70/35
f 25/36/36 43/68/36 8/9/36 39/60/36
f 47/74/37 53/80/37 52/79/37 51/78/37 50/77/37 49/76/37 48/75/37 46/73/37
f 46/73/38 54/81/38 59/86/38 58/85/38 57/84/38 56/83/38 55/82/38 47/74/38
