# Blender 3.3.1
# www.blender.org
mtllib Table.mtl
o Cube
v -1.692494 2.848295 4.256660
v -1.497937 2.469293 4.043277
v -1.692494 2.498316 0.000000
v -1.692494 2.848295 0.000000
v 0.000000 2.848295 4.256660
v 0.000000 2.498316 4.256660
v 0.000000 2.498316 0.000000
v 0.000000 2.848295 0.000000
v -1.692494 2.498316 4.256660
v -1.497937 2.469293 3.628997
v -1.126764 2.469293 3.628997
v -1.126764 2.469293 4.043277
v -1.497937 -0.537302 4.043277
v -1.497937 -0.537302 3.628997
v -1.126764 -0.537302 3.628997
v -1.126764 -0.537302 4.043277
v 1.692494 2.848295 4.256660
v 1.497937 2.469293 4.043277
v 1.692494 2.498316 0.000000
v 1.692494 2.848295 0.000000
v 1.692494 2.498316 4.256660
v 1.497937 2.469293 3.628997
v 1.126764 2.469293 3.628997
v 1.126764 2.469293 4.043277
v 1.497937 -0.537302 4.043277
v 1.497937 -0.537302 3.628997
v 1.126764 -0.537302 3.628997
v 1.126764 -0.537302 4.043277
v -1.692494 2.848295 -4.256660
v -1.497937 2.469293 -4.043277
v 0.000000 2.848295 -4.256660
v 0.000000 2.498316 -4.256660
v -1.692494 2.498316 -4.256660
v -1.497937 2.469293 -3.628997
v -1.126764 2.469293 -3.628997
v -1.126764 2.469293 -4.043277
v -1.497937 -0.537302 -4.043277
v -1.497937 -0.537302 -3.628997
v -1.126764 -0.537302 -3.628997
v -1.126764 -0.537302 -4.043277
v 1.692494 2.848295 -4.256660
v 1.497937 2.469293 -4.043277
v 1.692494 2.498316 -4.256660
v 1.497937 2.469293 -3.628997
v 1.126764 2.469293 -3.628997
v 1.126764 2.469293 -4.043277
v 1.497937 -0.537302 -4.043277
v 1.497937 -0.537302 -3.628997
v 1.126764 -0.537302 -3.628997
v 1.126764 -0.537302 -4.043277
vn -0.0000 1.0000 -0.0000
vn -0.0000 -0.0000 1.0000
vn -1.0000 -0.0000 -0.0000
vn 1.0000 -0.0000 -0.0000
vn -0.1475 -0.9891 -0.0000
vn -0.0000 -1.0000 -0.0080
vn -0.0000 -0.9909 0.1348
vn 0.0257 -0.9997 -0.0000
vn -0.0000 -1.0000 -0.0000
vn -0.0000 -0.0000 -1.0000
vn 0.1475 -0.9891 -0.0000
vn -0.0257 -0.9997 -0.0000
vn -0.0000 -1.0000 0.0080
vn -0.0000 -0.9909 -0.1348
vt 0.875000 0.750000
vt 0.625000 1.000000
vt 0.625000 0.000000
vt 0.142054 0.732946
vt 0.375000 0.125047
vt 0.125000 0.624953
vt 0.875000 0.624953
vt 0.625000 0.125047
vt 0.750000 0.750000
vt 0.625000 0.875000
vt 0.375000 0.875000
vt 0.250000 0.750000
vt 0.250000 0.624953
vt 0.750000 0.624953
vt 0.375000 1.000000
vt 0.375000 0.000000
vt 0.125000 0.750000
vt 0.142054 0.642008
vt 0.232946 0.642008
vt 0.232946 0.732946
vt 0.142054 0.732946
vt 0.142054 0.642008
vt 0.232946 0.642008
vt 0.232946 0.732946
vt 0.875000 0.750000
vt 0.625000 1.000000
vt 0.625000 0.000000
vt 0.142054 0.732946
vt 0.375000 0.125047
vt 0.125000 0.624953
vt 0.875000 0.624953
vt 0.625000 0.125047
vt 0.375000 1.000000
vt 0.375000 0.000000
vt 0.125000 0.750000
vt 0.142054 0.642008
vt 0.232946 0.642008
vt 0.232946 0.732946
vt 0.142054 0.732946
vt 0.142054 0.642008
vt 0.232946 0.642008
vt 0.232946 0.732946
vt 0.875000 0.750000
vt 0.625000 1.000000
vt 0.625000 0.000000
vt 0.142054 0.732946
vt 0.750000 0.750000
vt 0.625000 0.875000
vt 0.375000 0.875000
vt 0.250000 0.750000
vt 0.375000 1.000000
vt 0.375000 0.000000
vt 0.125000 0.750000
vt 0.142054 0.642008
vt 0.232946 0.642008
vt 0.232946 0.732946
vt 0.142054 0.732946
vt 0.142054 0.642008
vt 0.232946 0.642008
vt 0.232946 0.732946
vt 0.875000 0.750000
vt 0.625000 1.000000
vt 0.625000 0.000000
vt 0.142054 0.732946
vt 0.375000 1.000000
vt 0.375000 0.000000
vt 0.125000 0.750000
vt 0.142054 0.642008
vt 0.232946 0.642008
vt 0.232946 0.732946
vt 0.142054 0.732946
vt 0.142054 0.642008
vt 0.232946 0.642008
vt 0.232946 0.732946
s 0
usemtl Material
f 8/14/1 4/7/1 1/1/1 5/9/1
f 6/11/2 5/10/2 1/2/2 9/15/2
f 9/16/3 1/3/3 4/8/3 3/5/3
f 11/19/4 12/20/4 16/24/4 15/23/4
f 10/18/5 2/4/5 9/17/5 3/6/5
f 11/19/6 10/18/6 3/6/6 7/13/6
f 2/4/7 12/20/7 6/12/7 9/17/7
f 12/20/8 11/19/8 7/13/8 6/12/8
f 14/22/9 15/23/9 16/24/9 13/21/9
f 10/18/10 11/19/10 15/23/10 14/22/10
f 12/20/2 2/4/2 13/21/2 16/24/2
f 2/4/3 10/18/3 14/22/3 13/21/3
f 8/14/1 5/9/1 17/25/1 20/31/1
f 6/11/2 21/33/2 17/26/2 5/10/2
f 21/34/4 19/29/4 20/32/4 17/27/4
f 23/37/3 27/41/3 28/42/3 24/38/3
f 22/36/11 19/30/11 21/35/11 18/28/11
f 23/37/6 7/13/6 19/30/6 22/36/6
f 18/28/7 21/35/7 6/12/7 24/38/7
f 24/38/12 6/12/12 7/13/12 23/37/12
f 26/40/9 25/39/9 28/42/9 27/41/9
f 22/36/10 26/40/10 27/41/10 23/37/10
f 24/38/2 28/42/2 25/39/2 18/28/2
f 18/28/4 25/39/4 26/40/4 22/36/4
f 8/14/1 31/47/1 29/43/1 4/7/1
f 32/49/10 33/51/10 29/44/10 31/48/10
f 33/52/3 3/5/3 4/8/3 29/45/3
f 35/55/4 39/59/4 40/60/4 36/56/4
f 34/54/5 3/6/5 33/53/5 30/46/5
f 35/55/13 7/13/13 3/6/13 34/54/13
f 30/46/14 33/53/14 32/50/14 36/56/14
f 36/56/8 32/50/8 7/13/8 35/55/8
f 38/58/9 37/57/9 40/60/9 39/59/9
f 34/54/2 38/58/2 39/59/2 35/55/2
f 36/56/10 40/60/10 37/57/10 30/46/10
f 30/46/3 37/57/3 38/58/3 34/54/3
f 8/14/1 20/31/1 41/61/1 31/47/1
f 32/49/10 31/48/10 41/62/10 43/65/10
f 43/66/4 41/63/4 20/32/4 19/29/4
f 45/69/3 46/70/3 50/74/3 49/73/3
f 44/68/11 42/64/11 43/67/11 19/30/11
f 45/69/13 44/68/13 19/30/13 7/13/13
f 42/64/14 46/70/14 32/50/14 43/67/14
f 46/70/12 45/69/12 7/13/12 32/50/12
f 48/72/9 49/73/9 50/74/9 47/71/9
f 44/68/2 45/69/2 49/73/2 48/72/2
f 46/70/10 42/64/10 47/71/10 50/74/10
f 42/64/4 44/68/4 48/72/4 47/71/4
