# Blender 3.3.1
# www.blender.org
mtllib Terrain 1.mtl
o Cylinder
v 0.969981 -0.075516 -4.668528
v 0.079164 1.830372 -1.007323
v 1.452991 -0.075516 -4.631603
v 0.281748 1.830372 -0.936280
v 1.917438 -0.075516 -4.522250
v 0.581451 1.830372 -0.780849
v 2.498379 -0.075516 -4.480723
v 0.692457 1.830372 -0.721515
v 3.460944 -0.075516 -3.966563
v 0.913196 1.830372 -0.443137
v 3.672647 -0.075516 -2.817191
v 1.116784 1.830372 -0.305325
v 4.022628 -0.075516 -2.213315
v 1.176118 1.830372 -0.194319
v 4.268079 -0.075516 -1.276488
v 1.212656 1.830372 -0.073870
v 4.857211 -0.075516 -0.321907
v 1.295061 1.830372 0.418637
v 4.858160 -0.075516 1.284043
v 1.361553 1.830372 0.751186
v 4.552268 -0.075516 2.497030
v 1.325016 1.830372 0.871635
v 3.573873 -0.075516 3.381883
v 1.289497 1.830372 1.214893
v 2.728125 -0.075516 3.952342
v 1.249563 1.830372 1.456356
v 1.722873 -0.075516 3.936368
v 1.152265 1.830372 1.536206
v 1.482077 -0.075516 4.230871
v 0.937306 1.830372 1.561086
v 0.559618 -0.075516 3.944581
v 0.669580 1.830372 1.558262
v -0.199316 -0.075516 4.381191
v 0.423615 1.830372 1.657279
v -1.254437 -0.075516 4.181418
v 0.218509 1.830372 1.684705
v -1.796244 -0.075516 4.017063
v -0.065499 1.830372 1.550650
v -2.885632 -0.075516 3.235730
v -0.357093 1.830372 1.466550
v -3.127922 -0.075516 2.430104
v -0.422382 1.830372 1.400569
v -2.953446 -0.075516 1.767287
v -0.575252 1.830372 1.205099
v -3.182236 -0.075516 1.339250
v -0.684722 1.830372 1.000295
v -3.439717 -0.075516 0.418111
v -0.752133 1.830372 0.778070
v -3.374824 -0.075516 0.188383
v -0.774895 1.830372 0.546963
v -3.239218 -0.075516 -1.178763
v -0.691568 1.830372 0.205674
v -3.130327 -0.075516 -2.064756
v -0.592790 1.830372 -0.155894
v -2.424402 -0.075516 -2.935940
v -0.719537 1.830372 -0.421373
v -2.002592 -0.075516 -3.442484
v -0.630834 1.830372 -0.849722
v -1.463751 -0.075516 -3.680042
v -0.533536 1.830372 -0.929572
v -0.666166 -0.075516 -4.219851
v -0.316891 1.830372 -0.974814
v 0.347023 -0.075516 -4.228606
v -0.046099 1.830372 -0.994985
v 0.358391 0.877428 -2.671846
v 0.800394 0.877428 -3.032856
v 1.519911 0.877428 -3.101887
v 1.844185 0.877428 -2.457557
v 2.149567 0.877428 -2.323376
v 2.365699 0.877428 -2.102006
v 2.423890 0.877428 -1.462460
v 3.157955 0.877428 -0.833318
v 2.965904 0.877428 0.236360
v 2.799761 0.877428 0.752664
v 2.684852 0.877428 1.131470
v 2.499990 0.877428 2.185035
v 2.163024 0.877428 3.052314
v 1.396950 0.877428 3.188416
v 0.590553 0.877428 3.038614
v 0.225853 0.877428 3.149245
v -0.129993 0.877428 3.460326
v -0.509268 0.877428 3.422971
v -0.999131 0.877428 2.943315
v -1.335241 0.877428 2.763660
v -1.838687 0.877428 2.433091
v -2.322586 0.877428 1.822268
v -2.648263 0.877428 1.077661
v -2.611273 0.877428 0.408325
v -2.521651 0.877428 -0.219757
v -2.608263 0.877428 -0.678227
v -2.341548 0.877428 -1.239761
v -2.259319 0.877428 -1.894511
v -1.986233 0.877428 -2.223551
v -0.761855 0.877428 -2.868349
v -0.494715 0.877428 -2.982593
v 0.061367 0.877428 -2.691268
v 0.116686 1.353900 -2.209218
v 0.640665 1.353900 -2.193971
v 0.959851 1.353900 -2.350310
v 1.363993 1.353900 -2.232893
v 1.608451 1.353900 -1.644360
v 1.877111 1.353900 -1.399765
v 2.024621 1.353900 -0.806753
v 2.309941 1.353900 -0.294187
v 2.512768 1.353900 0.347321
v 2.420089 1.353900 0.703018
v 2.334181 1.353900 0.986218
v 2.194675 1.353900 1.247216
v 1.793205 1.353900 2.222499
v 1.281484 1.353900 2.361428
v 0.553106 1.353900 2.310073
v 0.168422 1.353900 2.697883
v -0.118761 1.353900 2.726168
v -0.382514 1.353900 2.971609
v -0.682090 1.353900 2.614115
v -1.061030 1.353900 2.080718
v -1.209914 1.353900 1.545250
v -1.304364 1.353900 1.376909
v -1.590352 1.353900 1.029259
v -1.906710 1.353900 0.556239
v -1.892353 1.353900 0.279562
v -1.846325 1.353900 -0.022061
v -1.754080 1.353900 -0.993912
v -1.622028 1.353900 -1.240963
v -1.120196 1.353900 -1.236268
v -0.833349 1.353900 -1.526174
v -0.301204 1.353900 -1.750412
v -0.129372 1.353900 -2.209322
v 1.290054 0.400956 -3.906693
v 2.014626 0.400956 -3.262522
v 2.486052 0.400956 -3.104185
v 2.868357 0.400956 -2.965094
v 2.997687 0.400956 -2.257977
v 3.192383 0.400956 -1.965582
v 3.237911 0.400956 -1.159475
v 3.971617 0.400956 0.294238
v 3.732010 0.400956 0.971148
v 3.588098 0.400956 1.445561
v 3.363237 0.400956 2.765439
v 2.403216 0.400956 3.362908
v 1.559912 0.400956 3.562392
v 1.336093 0.400956 3.806372
v 0.283284 0.400956 3.600606
v -0.164655 0.400956 3.920759
v -1.002520 0.400956 4.099082
v -1.580937 0.400956 3.592563
v -2.357962 0.400956 3.279313
v -2.587319 0.400956 2.765264
v -2.607849 0.400956 1.626951
v -3.027954 0.400956 1.154209
v -3.103868 0.400956 0.716609
v -3.022368 0.400956 0.276757
v -2.908924 0.400956 -0.753525
v -2.763855 0.400956 -1.937800
v -2.388223 0.400956 -2.694887
v -1.815365 0.400956 -3.004188
v -1.373351 0.400956 -3.213446
v -0.537989 0.400956 -3.460105
v 0.087306 0.400956 -3.164077
v 0.601261 0.400956 -3.647151
vn 0.0422 0.9339 -0.3550
vn -0.0005 0.9476 -0.3195
vn 0.0912 0.9597 -0.2658
vn 0.3153 0.9338 -0.1692
vn 0.2094 0.9430 -0.2586
vn 0.4086 0.9048 -0.1200
vn 0.3666 0.9115 -0.1864
vn 0.3690 0.9248 -0.0928
vn 0.3868 0.9221 0.0147
vn 0.4120 0.9026 0.1250
vn 0.4343 0.8919 0.1258
vn 0.4735 0.8639 0.1718
vn 0.1635 0.8753 0.4551
vn -0.0145 0.8564 0.5161
vn 0.3199 0.7771 0.5420
vn 0.1039 0.8944 0.4350
vn 0.2748 0.8376 0.4722
vn -0.2231 0.9381 0.2648
vn -0.2768 0.9127 0.3006
vn -0.4691 0.8672 0.1670
vn -0.4581 0.8325 0.3114
vn -0.4474 0.8350 0.3203
vn -0.4261 0.8736 0.2352
vn -0.3879 0.9217 0.0064
vn -0.3718 0.9253 -0.0748
vn -0.3596 0.9317 -0.0515
vn -0.4164 0.9092 -0.0043
vn -0.2738 0.8829 -0.3816
vn -0.4192 0.7966 -0.4356
vn -0.1917 0.8243 -0.5327
vn -0.0000 1.0000 -0.0000
vn -0.4133 0.8267 -0.3818
vn -0.0121 0.9303 -0.3667
vn -0.0000 -1.0000 -0.0000
vn -0.3210 0.7627 -0.5615
vn 0.3334 0.6627 -0.6706
vn -0.2163 0.7189 -0.6606
vn -0.2832 0.7838 -0.5526
vn -0.3676 0.7921 -0.4872
vn -0.6609 0.7193 -0.2143
vn -0.7146 0.6789 -0.1686
vn -0.7683 0.6400 -0.0138
vn -0.7355 0.6672 -0.1179
vn -0.7322 0.6806 0.0257
vn -0.7535 0.4682 0.4616
vn -0.6521 0.7345 0.1880
vn -0.3395 0.8933 0.2946
vn -0.1967 0.8741 0.4442
vn -0.3312 0.8727 0.3588
vn 0.0766 0.7462 0.6613
vn 0.4900 0.6087 0.6240
vn -0.0424 0.7734 0.6325
vn 0.0560 0.7880 0.6131
vn 0.1602 0.6197 0.7683
vn 0.4178 0.8298 0.3700
vn 0.4431 0.8932 0.0765
vn 0.4270 0.8949 0.1295
vn 0.4202 0.8961 0.1429
vn 0.6343 0.7610 -0.1362
vn 0.5632 0.7676 -0.3059
vn 0.5116 0.8479 -0.1388
vn 0.4922 0.8510 -0.1831
vn 0.1806 0.8723 -0.4545
vn 0.4044 0.8220 -0.4009
vn 0.2160 0.8119 -0.5424
vn -0.2889 0.7996 -0.5265
vn 0.0253 0.7095 -0.7042
vn -0.1111 0.8687 -0.4827
vn -0.1430 0.9304 -0.3376
vn -0.1942 0.9294 -0.3140
vn -0.1599 0.9102 -0.3821
vn -0.5476 0.8266 -0.1301
vn -0.5173 0.8472 -0.1211
vn -0.5823 0.8124 0.0311
vn -0.5593 0.8265 -0.0643
vn -0.4775 0.8709 0.1168
vn -0.3674 0.9070 0.2057
vn -0.3296 0.9119 0.2446
vn -0.3965 0.8681 0.2987
vn -0.4542 0.7656 0.4555
vn -0.5406 0.6693 0.5098
vn 0.2031 0.7515 0.6277
vn 0.3104 0.7468 0.5882
vn 0.3751 0.7357 0.5640
vn -0.0689 0.8476 0.5261
vn 0.1019 0.8749 0.4734
vn 0.5531 0.8031 0.2217
vn 0.7072 0.6851 0.1745
vn 0.7499 0.6212 0.2275
vn 0.7415 0.6338 0.2201
vn 0.5897 0.8076 -0.0037
vn 0.3605 0.8755 -0.3219
vn 0.6461 0.7556 -0.1078
vn 0.3374 0.8734 -0.3511
vn 0.4567 0.8190 -0.3475
vn 0.4015 0.8315 -0.3839
vn -0.1192 0.8270 -0.5494
vn -0.2218 0.7529 -0.6197
vn -0.0948 0.8614 -0.4989
vn 0.2604 0.8737 -0.4109
vn 0.0648 0.9378 -0.3411
vn 0.1610 0.9296 -0.3316
vn 0.5203 0.8486 -0.0956
vn 0.4169 0.8730 -0.2533
vn 0.4431 0.8934 -0.0740
vn 0.3721 0.9054 -0.2044
vn 0.4332 0.9001 0.0453
vn 0.3603 0.9279 0.0960
vn 0.4054 0.8870 0.2212
vn 0.3205 0.8073 0.4956
vn 0.0679 0.7263 0.6840
vn 0.5933 0.6213 0.5119
vn -0.2003 0.5597 0.8041
vn 0.4048 0.6476 0.6456
vn -0.0098 0.4971 0.8676
vn -0.4193 0.5779 0.7001
vn -0.4068 0.5944 0.6937
vn -0.6924 0.6778 0.2474
vn -0.7245 0.6864 -0.0619
vn -0.6880 0.5301 0.4956
vn -0.8786 0.4262 0.2156
vn -0.7657 0.6210 -0.1674
vn -0.7887 0.6093 -0.0819
vn -0.7765 0.6229 -0.0952
vn -0.7250 0.4923 -0.4816
vn -0.5196 0.5734 -0.6335
vn -0.2954 0.7017 -0.6484
vn -0.2699 0.7830 -0.5604
vn 0.0801 0.8859 -0.4570
vn -0.3873 0.7889 -0.4771
vt 0.750000 0.490000
vt 1.000000 0.500000
vt 0.000000 0.500000
vt 1.000000 1.000000
vt 0.250000 0.490000
vt 0.000000 1.000000
vt 0.796822 0.485388
vt 0.968750 0.500000
vt 0.968750 1.000000
vt 0.296822 0.485388
vt 0.841844 0.471731
vt 0.937500 0.500000
vt 0.937500 1.000000
vt 0.341844 0.471731
vt 0.883337 0.449553
vt 0.906250 0.500000
vt 0.906250 1.000000
vt 0.383337 0.449553
vt 0.919706 0.419706
vt 0.875000 0.500000
vt 0.875000 1.000000
vt 0.419706 0.419706
vt 0.949553 0.383337
vt 0.843750 0.500000
vt 0.843750 1.000000
vt 0.449553 0.383337
vt 0.971731 0.341844
vt 0.812500 0.500000
vt 0.812500 1.000000
vt 0.471731 0.341844
vt 0.985388 0.296822
vt 0.781250 0.500000
vt 0.781250 1.000000
vt 0.485388 0.296822
vt 0.990000 0.250000
vt 0.750000 0.500000
vt 0.750000 1.000000
vt 0.490000 0.250000
vt 0.985388 0.203178
vt 0.718750 0.500000
vt 0.718750 1.000000
vt 0.485388 0.203178
vt 0.971731 0.158156
vt 0.687500 0.500000
vt 0.687500 1.000000
vt 0.471731 0.158156
vt 0.949553 0.116663
vt 0.656250 0.500000
vt 0.656250 1.000000
vt 0.449553 0.116663
vt 0.919706 0.080294
vt 0.625000 0.500000
vt 0.625000 1.000000
vt 0.419706 0.080294
vt 0.883337 0.050447
vt 0.593750 0.500000
vt 0.593750 1.000000
vt 0.383337 0.050447
vt 0.841844 0.028269
vt 0.562500 0.500000
vt 0.562500 1.000000
vt 0.341844 0.028269
vt 0.796822 0.014612
vt 0.531250 0.500000
vt 0.531250 1.000000
vt 0.296822 0.014612
vt 0.750000 0.010000
vt 0.500000 0.500000
vt 0.500000 1.000000
vt 0.250000 0.010000
vt 0.703178 0.014612
vt 0.468750 0.500000
vt 0.468750 1.000000
vt 0.203178 0.014612
vt 0.658156 0.028269
vt 0.437500 0.500000
vt 0.437500 1.000000
vt 0.158156 0.028269
vt 0.616663 0.050447
vt 0.406250 0.500000
vt 0.406250 1.000000
vt 0.116663 0.050447
vt 0.580294 0.080294
vt 0.375000 0.500000
vt 0.375000 1.000000
vt 0.080294 0.080294
vt 0.550447 0.116663
vt 0.343750 0.500000
vt 0.343750 1.000000
vt 0.050447 0.116663
vt 0.528269 0.158156
vt 0.312500 0.500000
vt 0.312500 1.000000
vt 0.028269 0.158156
vt 0.514612 0.203178
vt 0.281250 0.500000
vt 0.281250 1.000000
vt 0.014612 0.203178
vt 0.510000 0.250000
vt 0.250000 0.500000
vt 0.250000 1.000000
vt 0.010000 0.250000
vt 0.514612 0.296822
vt 0.218750 0.500000
vt 0.218750 1.000000
vt 0.014612 0.296822
vt 0.528269 0.341844
vt 0.187500 0.500000
vt 0.187500 1.000000
vt 0.028269 0.341844
vt 0.550447 0.383337
vt 0.156250 0.500000
vt 0.156250 1.000000
vt 0.050447 0.383337
vt 0.580294 0.419706
vt 0.125000 0.500000
vt 0.125000 1.000000
vt 0.080294 0.419706
vt 0.616663 0.449553
vt 0.093750 0.500000
vt 0.093750 1.000000
vt 0.116663 0.449553
vt 0.658156 0.471731
vt 0.062500 0.500000
vt 0.158156 0.471731
vt 0.062500 1.000000
vt 0.703178 0.485388
vt 0.031250 0.500000
vt 0.203178 0.485388
vt 0.031250 1.000000
vt 0.000000 0.750000
vt 1.000000 0.750000
vt 0.968750 0.750000
vt 0.937500 0.750000
vt 0.906250 0.750000
vt 0.875000 0.750000
vt 0.843750 0.750000
vt 0.812500 0.750000
vt 0.781250 0.750000
vt 0.750000 0.750000
vt 0.718750 0.750000
vt 0.687500 0.750000
vt 0.656250 0.750000
vt 0.625000 0.750000
vt 0.593750 0.750000
vt 0.562500 0.750000
vt 0.531250 0.750000
vt 0.500000 0.750000
vt 0.468750 0.750000
vt 0.437500 0.750000
vt 0.406250 0.750000
vt 0.375000 0.750000
vt 0.343750 0.750000
vt 0.312500 0.750000
vt 0.281250 0.750000
vt 0.250000 0.750000
vt 0.218750 0.750000
vt 0.187500 0.750000
vt 0.156250 0.750000
vt 0.125000 0.750000
vt 0.093750 0.750000
vt 0.062500 0.750000
vt 0.031250 0.750000
vt 0.000000 0.875000
vt 1.000000 0.875000
vt 0.968750 0.875000
vt 0.937500 0.875000
vt 0.906250 0.875000
vt 0.875000 0.875000
vt 0.843750 0.875000
vt 0.812500 0.875000
vt 0.781250 0.875000
vt 0.750000 0.875000
vt 0.718750 0.875000
vt 0.687500 0.875000
vt 0.656250 0.875000
vt 0.625000 0.875000
vt 0.593750 0.875000
vt 0.562500 0.875000
vt 0.531250 0.875000
vt 0.500000 0.875000
vt 0.468750 0.875000
vt 0.437500 0.875000
vt 0.406250 0.875000
vt 0.375000 0.875000
vt 0.343750 0.875000
vt 0.312500 0.875000
vt 0.281250 0.875000
vt 0.250000 0.875000
vt 0.218750 0.875000
vt 0.187500 0.875000
vt 0.156250 0.875000
vt 0.125000 0.875000
vt 0.093750 0.875000
vt 0.062500 0.875000
vt 0.031250 0.875000
vt 0.968750 0.625000
vt 0.937500 0.625000
vt 0.906250 0.625000
vt 0.875000 0.625000
vt 0.843750 0.625000
vt 0.812500 0.625000
vt 0.781250 0.625000
vt 0.750000 0.625000
vt 0.718750 0.625000
vt 0.687500 0.625000
vt 0.656250 0.625000
vt 0.625000 0.625000
vt 0.593750 0.625000
vt 0.562500 0.625000
vt 0.531250 0.625000
vt 0.500000 0.625000
vt 0.468750 0.625000
vt 0.437500 0.625000
vt 0.406250 0.625000
vt 0.375000 0.625000
vt 0.343750 0.625000
vt 0.312500 0.625000
vt 0.281250 0.625000
vt 0.250000 0.625000
vt 0.218750 0.625000
vt 0.187500 0.625000
vt 0.156250 0.625000
vt 0.125000 0.625000
vt 0.093750 0.625000
vt 0.062500 0.625000
vt 0.031250 0.625000
vt 1.000000 0.625000
vt 0.000000 0.625000
s 0
usemtl Material.001
f 97/165/1 2/4/1 4/9/1 98/166/1
f 98/166/2 4/9/2 6/13/2 99/167/2
f 99/167/3 6/13/3 8/17/3 100/168/3
f 100/168/4 8/17/4 10/21/4 101/169/4
f 101/169/5 10/21/5 12/25/5 102/170/5
f 102/170/6 12/25/6 14/29/6 103/171/6
f 103/171/7 14/29/7 16/33/7 104/172/7
f 104/172/8 16/33/8 18/37/8 105/173/8
f 105/173/9 18/37/9 20/41/9 106/174/9
f 106/174/10 20/41/10 22/45/10 107/175/10
f 107/175/11 22/45/11 24/49/11 108/176/11
f 108/176/12 24/49/12 26/53/12 109/177/12
f 109/177/13 26/53/13 28/57/13 110/178/13
f 110/178/14 28/57/14 30/61/14 111/179/14
f 111/179/15 30/61/15 32/65/15 112/180/15
f 112/180/16 32/65/16 34/69/16 113/181/16
f 113/181/17 34/69/17 36/73/17 114/182/17
f 114/182/18 36/73/18 38/77/18 115/183/18
f 115/183/19 38/77/19 40/81/19 116/184/19
f 116/184/20 40/81/20 42/85/20 117/185/20
f 117/185/21 42/85/21 44/89/21 118/186/21
f 118/186/22 44/89/22 46/93/22 119/187/22
f 119/187/23 46/93/23 48/97/23 120/188/23
f 120/188/24 48/97/24 50/101/24 121/189/24
f 121/189/25 50/101/25 52/105/25 122/190/25
f 122/190/26 52/105/26 54/109/26 123/191/26
f 123/191/27 54/109/27 56/113/27 124/192/27
f 124/192/28 56/113/28 58/117/28 125/193/28
f 125/193/29 58/117/29 60/121/29 126/194/29
f 126/194/30 60/121/30 62/126/30 127/195/30
f 4/10/31 2/5/31 64/129/31 62/125/31 60/122/31 58/118/31 56/114/31 54/110/31 52/106/31 50/102/31 48/98/31 46/94/31 44/90/31 42/86/31 40/82/31 38/78/31 36/74/31 34/70/31 32/66/31 30/62/31 28/58/31 26/54/31 24/50/31 22/46/31 20/42/31 18/38/31 16/34/31 14/30/31 12/26/31 10/22/31 8/18/31 6/14/31
f 127/195/32 62/126/32 64/130/32 128/196/32
f 128/196/33 64/130/33 2/6/33 97/164/33
f 1/1/34 3/7/34 5/11/34 7/15/34 9/19/34 11/23/34 13/27/34 15/31/34 17/35/34 19/39/34 21/43/34 23/47/34 25/51/34 27/55/34 29/59/34 31/63/34 33/67/34 35/71/34 37/75/34 39/79/34 41/83/34 43/87/34 45/91/34 47/95/34 49/99/34 51/103/34 53/107/34 55/111/34 57/115/34 59/119/34 61/123/34 63/127/34
f 159/227/35 96/163/35 65/131/35 160/229/35
f 158/226/36 95/162/36 96/163/36 159/227/36
f 157/225/37 94/161/37 95/162/37 158/226/37
f 156/224/38 93/160/38 94/161/38 157/225/38
f 155/223/39 92/159/39 93/160/39 156/224/39
f 154/222/40 91/158/40 92/159/40 155/223/40
f 153/221/41 90/157/41 91/158/41 154/222/41
f 152/220/42 89/156/42 90/157/42 153/221/42
f 151/219/43 88/155/43 89/156/43 152/220/43
f 150/218/44 87/154/44 88/155/44 151/219/44
f 149/217/45 86/153/45 87/154/45 150/218/45
f 148/216/46 85/152/46 86/153/46 149/217/46
f 147/215/47 84/151/47 85/152/47 148/216/47
f 146/214/48 83/150/48 84/151/48 147/215/48
f 145/213/49 82/149/49 83/150/49 146/214/49
f 144/212/50 81/148/50 82/149/50 145/213/50
f 143/211/51 80/147/51 81/148/51 144/212/51
f 142/210/52 79/146/52 80/147/52 143/211/52
f 141/209/53 78/145/53 79/146/53 142/210/53
f 140/208/54 77/144/54 78/145/54 141/209/54
f 139/207/55 76/143/55 77/144/55 140/208/55
f 138/206/56 75/142/56 76/143/56 139/207/56
f 137/205/57 74/141/57 75/142/57 138/206/57
f 136/204/58 73/140/58 74/141/58 137/205/58
f 135/203/59 72/139/59 73/140/59 136/204/59
f 134/202/60 71/138/60 72/139/60 135/203/60
f 133/201/61 70/137/61 71/138/61 134/202/61
f 132/200/62 69/136/62 70/137/62 133/201/62
f 131/199/63 68/135/63 69/136/63 132/200/63
f 130/198/64 67/134/64 68/135/64 131/199/64
f 129/197/65 66/133/65 67/134/65 130/198/65
f 160/228/66 65/132/66 66/133/66 129/197/66
f 96/163/67 128/196/67 97/164/67 65/131/67
f 95/162/68 127/195/68 128/196/68 96/163/68
f 94/161/69 126/194/69 127/195/69 95/162/69
f 93/160/70 125/193/70 126/194/70 94/161/70
f 92/159/71 124/192/71 125/193/71 93/160/71
f 91/158/72 123/191/72 124/192/72 92/159/72
f 90/157/73 122/190/73 123/191/73 91/158/73
f 89/156/74 121/189/74 122/190/74 90/157/74
f 88/155/75 120/188/75 121/189/75 89/156/75
f 87/154/76 119/187/76 120/188/76 88/155/76
f 86/153/77 118/186/77 119/187/77 87/154/77
f 85/152/78 117/185/78 118/186/78 86/153/78
f 84/151/79 116/184/79 117/185/79 85/152/79
f 83/150/80 115/183/80 116/184/80 84/151/80
f 82/149/81 114/182/81 115/183/81 83/150/81
f 81/148/82 113/181/82 114/182/82 82/149/82
f 80/147/83 112/180/83 113/181/83 81/148/83
f 79/146/84 111/179/84 112/180/84 80/147/84
f 78/145/85 110/178/85 111/179/85 79/146/85
f 77/144/86 109/177/86 110/178/86 78/145/86
f 76/143/87 108/176/87 109/177/87 77/144/87
f 75/142/88 107/175/88 108/176/88 76/143/88
f 74/141/89 106/174/89 107/175/89 75/142/89
f 73/140/90 105/173/90 106/174/90 74/141/90
f 72/139/91 104/172/91 105/173/91 73/140/91
f 71/138/92 103/171/92 104/172/92 72/139/92
f 70/137/93 102/170/93 103/171/93 71/138/93
f 69/136/94 101/169/94 102/170/94 70/137/94
f 68/135/95 100/168/95 101/169/95 69/136/95
f 67/134/96 99/167/96 100/168/96 68/135/96
f 66/133/97 98/166/97 99/167/97 67/134/97
f 65/132/98 97/165/98 98/166/98 66/133/98
f 1/2/99 160/228/99 129/197/99 3/8/99
f 3/8/100 129/197/100 130/198/100 5/12/100
f 5/12/101 130/198/101 131/199/101 7/16/101
f 7/16/102 131/199/102 132/200/102 9/20/102
f 9/20/103 132/200/103 133/201/103 11/24/103
f 11/24/104 133/201/104 134/202/104 13/28/104
f 13/28/105 134/202/105 135/203/105 15/32/105
f 15/32/106 135/203/106 136/204/106 17/36/106
f 17/36/107 136/204/107 137/205/107 19/40/107
f 19/40/108 137/205/108 138/206/108 21/44/108
f 21/44/109 138/206/109 139/207/109 23/48/109
f 23/48/110 139/207/110 140/208/110 25/52/110
f 25/52/111 140/208/111 141/209/111 27/56/111
f 27/56/112 141/209/112 142/210/112 29/60/112
f 29/60/113 142/210/113 143/211/113 31/64/113
f 31/64/114 143/211/114 144/212/114 33/68/114
f 33/68/115 144/212/115 145/213/115 35/72/115
f 35/72/116 145/213/116 146/214/116 37/76/116
f 37/76/117 146/214/117 147/215/117 39/80/117
f 39/80/118 147/215/118 148/216/118 41/84/118
f 41/84/119 148/216/119 149/217/119 43/88/119
f 43/88/120 149/217/120 150/218/120 45/92/120
f 45/92/121 150/218/121 151/219/121 47/96/121
f 47/96/122 151/219/122 152/220/122 49/100/122
f 49/100/123 152/220/123 153/221/123 51/104/123
f 51/104/124 153/221/124 154/222/124 53/108/124
f 53/108/125 154/222/125 155/223/125 55/112/125
f 55/112/126 155/223/126 156/224/126 57/116/126
f 57/116/127 156/224/127 157/225/127 59/120/127
f 59/120/128 157/225/128 158/226/128 61/124/128
f 61/124/129 158/226/129 159/227/129 63/128/129
f 63/128/130 159/227/130 160/229/130 1/3/130
