# Blender 3.3.1
# www.blender.org
mtllib Terrain 2.mtl
o Cylinder
v 1.349331 -0.123166 -5.005681
v 0.102554 2.985301 -1.075226
v 1.832340 -0.123166 -4.968756
v 0.315521 2.985301 -1.048159
v 2.296788 -0.123166 -4.859403
v 0.641118 2.985301 -0.958899
v 2.877728 -0.123166 -4.817876
v 0.755315 2.985301 -0.701927
v 4.226718 -0.123166 -4.729545
v 0.976054 2.985301 -0.423549
v 4.627011 -0.123166 -3.631528
v 1.179642 2.985301 -0.285737
v 5.072737 -0.123166 -3.094424
v 1.492868 2.985301 0.116666
v 5.470884 -0.123166 -2.211605
v 1.529406 2.985301 0.237115
v 6.210865 -0.123166 -1.368556
v 1.611811 2.985301 0.729622
v 6.479443 -0.123166 0.214777
v 1.678303 2.985301 1.062170
v 6.166398 -0.123166 1.896017
v 1.641765 2.985301 1.182619
v 5.258149 -0.123166 4.756655
v 1.606247 2.985301 1.525878
v 2.569884 -0.123166 6.285253
v 1.566313 2.985301 1.767340
v 1.402506 -0.123166 6.655895
v 1.089666 2.985301 2.184343
v 0.297355 -0.123166 6.938199
v 0.874707 2.985301 2.209224
v -0.472810 -0.123166 6.355326
v 0.606981 2.985301 2.206400
v -1.334979 -0.123166 6.507887
v 0.361015 2.985301 2.305416
v -2.259318 -0.123166 5.961273
v 0.155909 2.985301 2.332843
v -3.469121 -0.123165 5.407976
v -0.128099 2.985301 2.198787
v -4.387256 -0.123166 4.588758
v -0.419693 2.985301 2.114687
v -5.629149 -0.123166 3.017535
v -0.484982 2.985301 2.048707
v -5.454673 -0.123166 2.354719
v -0.637852 2.985301 1.853236
v -5.683464 -0.123166 1.926682
v -0.747322 2.985301 1.648432
v -5.567232 -0.123166 0.299091
v -0.814733 2.985301 1.426207
v -5.502339 -0.123166 -0.505969
v -0.837495 2.985301 1.195101
v -5.223708 -0.123166 -1.529055
v -1.008060 2.985301 0.562415
v -4.021753 -0.123166 -3.249902
v -0.909282 2.985301 0.200848
v -3.015554 -0.123166 -4.126263
v -1.036030 2.985301 -0.064631
v -2.593745 -0.123166 -4.632807
v -0.558732 2.985301 -0.772512
v -2.054904 -0.123166 -4.870364
v -0.480302 2.985301 -0.870958
v -0.877970 -0.123166 -5.747326
v -0.277924 2.985301 -0.960542
v 0.481490 -0.123166 -5.561514
v -0.017352 2.985301 -1.036944
v 0.451104 1.431067 -3.648865
v 0.939848 1.431067 -3.421036
v 1.652789 1.431067 -3.540133
v 2.667774 1.431067 -3.143185
v 2.996142 1.431067 -3.084556
v 3.258258 1.431067 -2.920201
v 3.465170 1.431067 -2.312260
v 4.326565 1.431067 -1.873321
v 4.391368 1.431067 -0.788473
v 4.357430 1.431067 0.641809
v 4.390011 1.431067 1.801609
v 2.695172 1.431067 4.318851
v 2.133841 1.431067 5.060894
v 1.359754 1.431067 4.982273
v 0.625079 1.431067 4.617622
v 0.244027 1.431067 4.624284
v -0.183335 1.431067 4.826175
v -1.227149 1.431067 4.452418
v -1.567139 1.431067 3.857069
v -2.430025 1.431067 3.261702
v -3.271903 1.431067 3.022445
v -3.797266 1.431067 2.446896
v -3.908622 1.431067 1.295141
v -3.918452 1.431067 0.624856
v -3.106301 1.431067 -0.485378
v -3.508834 1.431067 -0.938688
v -3.381362 1.431067 -1.563192
v -2.961535 1.431067 -2.174360
v -2.332738 1.431067 -2.858816
v -1.570177 1.431067 -2.994562
v -0.562777 1.431067 -3.452999
v 0.033391 1.431067 -3.806972
v 0.496035 2.208184 -2.546371
v 1.020014 2.208184 -2.531124
v 1.339200 2.208184 -2.687463
v 1.743343 2.208184 -2.570046
v 1.987801 2.208184 -1.981513
v 3.092809 2.208184 -1.934687
v 3.337085 2.208184 -1.374552
v 3.703837 2.208184 -0.916704
v 3.883763 2.208184 -0.100231
v 3.587836 2.208184 1.420049
v 2.701991 2.208184 2.477147
v 2.204278 2.208184 3.040900
v 1.735612 2.208184 4.295774
v 1.207141 2.208184 4.252440
v 0.820647 2.208184 4.169449
v 0.202797 2.208184 4.005052
v -0.298648 2.208184 3.834242
v -0.940054 2.208184 3.701477
v -1.689479 2.208184 2.900323
v -2.671319 2.208184 2.438634
v -2.916357 2.208184 2.103479
v -2.825305 2.208184 1.520805
v -2.107577 2.208184 0.552322
v -2.423936 2.208184 0.079303
v -2.409579 2.208184 -0.197375
v -2.363550 2.208184 -0.498997
v -2.271305 2.208184 -1.470848
v -1.759904 2.208184 -2.055053
v -1.489380 2.208184 -2.008843
v -0.971225 2.208184 -2.340263
v -0.439080 2.208184 -2.564501
v 0.249978 2.208184 -2.546475
v 1.669404 0.653951 -4.243845
v 2.917960 0.653951 -3.794312
v 3.409181 0.653951 -3.716755
v 3.809319 0.653951 -3.643323
v 4.054688 0.653951 -2.967648
v 4.295390 0.653951 -2.711790
v 4.857762 0.653951 -1.732666
v 5.440340 0.653951 -0.613438
v 5.316895 0.653951 0.093937
v 4.992983 0.653951 2.410269
v 4.504699 0.653951 3.971255
v 1.921541 0.653951 5.575648
v 1.060652 0.653951 5.476522
v 0.767214 0.653951 5.629869
v -0.152914 0.653951 5.078405
v -0.683019 0.653951 5.227185
v -1.531599 0.653951 5.110010
v -1.903339 0.653951 4.437004
v -2.527568 0.653951 3.878226
v -4.197608 0.653951 3.123180
v -4.218139 0.653951 1.984867
v -4.638244 0.653951 1.512126
v -5.231384 0.653951 0.597589
v -5.149883 0.653951 0.157737
v -4.155056 0.653951 -0.966774
v -3.281081 0.653951 -2.414737
v -3.024011 0.653951 -3.063298
v -2.142373 0.653951 -3.401012
v -1.338101 0.653951 -4.804949
v -0.749792 0.653951 -4.987581
v -0.124497 0.653951 -4.691553
v 0.980611 0.653951 -3.984304
vn 0.0263 0.8887 -0.4578
vn -0.0470 0.8909 -0.4517
vn 0.2166 0.9290 -0.2999
vn 0.3679 0.9086 -0.1974
vn 0.0556 0.9175 -0.3939
vn 0.2653 0.9518 -0.1537
vn 0.2522 0.9515 -0.1759
vn 0.3049 0.9504 -0.0611
vn 0.3524 0.9348 0.0436
vn 0.3308 0.9075 0.2591
vn 0.4124 0.8782 0.2424
vn 0.5760 0.7937 0.1958
vn 0.1159 0.9431 0.3117
vn -0.0348 0.9322 0.3602
vn -0.0706 0.9248 0.3738
vn -0.0396 0.9101 0.4124
vn -0.0555 0.8935 0.4457
vn -0.2846 0.9056 0.3145
vn -0.2114 0.8439 0.4931
vn -0.2905 0.9301 0.2247
vn -0.3202 0.9470 0.0254
vn -0.3356 0.9258 -0.1740
vn -0.6465 0.6743 0.3569
vn -0.4441 0.8960 0.0073
vn -0.5118 0.8564 0.0682
vn -0.4462 0.8926 -0.0639
vn -0.3778 0.9100 -0.1710
vn -0.2681 0.9145 -0.3030
vn -0.2671 0.8895 -0.3707
vn -0.1769 0.8929 -0.4140
vn -0.0000 1.0000 -0.0000
vn -0.0275 0.8940 -0.4472
vn -0.0491 0.8811 -0.4703
vn -0.0000 -1.0000 -0.0000
vn 0.3857 0.6250 -0.6787
vn -0.0255 0.8427 -0.5378
vn -0.1676 0.8932 -0.4173
vn -0.5238 0.6645 -0.5330
vn -0.4556 0.5824 -0.6732
vn -0.7852 0.4534 -0.4219
vn -0.7848 0.4903 -0.3792
vn -0.5239 0.8288 -0.1967
vn -0.4445 0.8584 -0.2562
vn -0.5777 0.7861 0.2198
vn -0.7952 0.5476 0.2602
vn -0.7604 0.6025 0.2422
vn -0.3056 0.5574 0.7720
vn -0.4836 0.6147 0.6231
vn -0.6980 0.5995 0.3917
vn -0.1971 0.6195 0.7598
vn 0.3277 0.3033 0.8948
vn -0.2823 0.6824 0.6742
vn -0.1445 0.6962 0.7032
vn -0.0893 0.5629 0.8217
vn 0.4898 0.5739 0.6563
vn 0.5011 0.8228 0.2682
vn 0.7029 0.7089 0.0589
vn 0.6166 0.7859 0.0454
vn 0.7067 0.6764 -0.2076
vn 0.5683 0.5928 -0.5706
vn 0.6088 0.7279 -0.3155
vn 0.5792 0.7363 -0.3499
vn 0.1329 0.6670 -0.7331
vn 0.2238 0.6673 -0.7104
vn 0.1237 0.6675 -0.7342
vn -0.0218 0.5860 -0.8100
vn 0.1323 0.8214 -0.5549
vn -0.1475 0.8124 -0.5642
vn -0.2732 0.7387 -0.6162
vn -0.2165 0.7752 -0.5934
vn -0.3580 0.7857 -0.5045
vn -0.4911 0.7826 -0.3826
vn -0.5535 0.8293 -0.0762
vn -0.6816 0.6571 0.3219
vn -0.5703 0.7478 -0.3399
vn -0.3882 0.9149 0.1108
vn -0.5535 0.8176 -0.1583
vn -0.5946 0.7725 0.2230
vn -0.3262 0.7159 0.6173
vn -0.3737 0.6595 0.6522
vn -0.6279 0.6048 0.4898
vn -0.1931 0.7417 0.6424
vn 0.0232 0.7206 0.6929
vn -0.1282 0.5701 0.8115
vn -0.3018 0.5812 0.7558
vn -0.0684 0.6789 0.7310
vn 0.5946 0.7433 0.3067
vn 0.4811 0.8071 0.3423
vn 0.6155 0.7517 0.2369
vn 0.8096 0.5799 0.0905
vn 0.7533 0.6505 -0.0970
vn 0.3650 0.7855 -0.4998
vn 0.7921 0.5282 -0.3060
vn 0.0869 0.8220 -0.5628
vn 0.3888 0.8546 -0.3441
vn 0.2254 0.7500 -0.6218
vn -0.1783 0.7223 -0.6682
vn 0.1474 0.7754 -0.6141
vn -0.1294 0.7208 -0.6809
vn 0.2189 0.7083 -0.6711
vn 0.0672 0.7934 -0.6050
vn 0.0537 0.8127 -0.5802
vn 0.6699 0.7012 -0.2439
vn 0.5093 0.7391 -0.4409
vn 0.6131 0.7239 -0.3163
vn 0.5356 0.7634 -0.3610
vn 0.6183 0.7850 -0.0392
vn 0.5621 0.8222 0.0896
vn 0.6001 0.7771 0.1896
vn 0.3134 0.7898 0.5273
vn 0.0813 0.7901 0.6075
vn 0.1647 0.8327 0.5287
vn -0.2870 0.8572 0.4277
vn 0.1186 0.8279 0.5482
vn -0.1862 0.8474 0.4973
vn -0.2937 0.8776 0.3788
vn -0.2681 0.9155 0.3001
vn -0.3270 0.8518 0.4093
vn -0.5061 0.8614 -0.0433
vn -0.4530 0.8297 0.3263
vn -0.7352 0.6636 0.1379
vn -0.8840 0.4558 -0.1039
vn -0.5537 0.7653 -0.3283
vn -0.4713 0.8262 -0.3087
vn -0.5073 0.7523 -0.4203
vn -0.3169 0.8126 -0.4892
vn -0.5180 0.7430 -0.4238
vn -0.4147 0.5922 -0.6909
vn 0.1594 0.7373 -0.6565
vn 0.3189 0.8063 -0.4982
vt 0.750000 0.490000
vt 1.000000 0.500000
vt 0.000000 0.500000
vt 1.000000 1.000000
vt 0.250000 0.490000
vt 0.000000 1.000000
vt 0.796822 0.485388
vt 0.968750 0.500000
vt 0.968750 1.000000
vt 0.296822 0.485388
vt 0.841844 0.471731
vt 0.937500 0.500000
vt 0.937500 1.000000
vt 0.341844 0.471731
vt 0.883337 0.449553
vt 0.906250 0.500000
vt 0.906250 1.000000
vt 0.383337 0.449553
vt 0.919706 0.419706
vt 0.875000 0.500000
vt 0.875000 1.000000
vt 0.419706 0.419706
vt 0.949553 0.383337
vt 0.843750 0.500000
vt 0.843750 1.000000
vt 0.449553 0.383337
vt 0.971731 0.341844
vt 0.812500 0.500000
vt 0.812500 1.000000
vt 0.471731 0.341844
vt 0.985388 0.296822
vt 0.781250 0.500000
vt 0.781250 1.000000
vt 0.485388 0.296822
vt 0.990000 0.250000
vt 0.750000 0.500000
vt 0.750000 1.000000
vt 0.490000 0.250000
vt 0.985388 0.203178
vt 0.718750 0.500000
vt 0.718750 1.000000
vt 0.485388 0.203178
vt 0.971731 0.158156
vt 0.687500 0.500000
vt 0.687500 1.000000
vt 0.471731 0.158156
vt 0.949553 0.116663
vt 0.656250 0.500000
vt 0.656250 1.000000
vt 0.449553 0.116663
vt 0.919706 0.080294
vt 0.625000 0.500000
vt 0.625000 1.000000
vt 0.419706 0.080294
vt 0.883337 0.050447
vt 0.593750 0.500000
vt 0.593750 1.000000
vt 0.383337 0.050447
vt 0.841844 0.028269
vt 0.562500 0.500000
vt 0.562500 1.000000
vt 0.341844 0.028269
vt 0.796822 0.014612
vt 0.531250 0.500000
vt 0.531250 1.000000
vt 0.296822 0.014612
vt 0.750000 0.010000
vt 0.500000 0.500000
vt 0.500000 1.000000
vt 0.250000 0.010000
vt 0.703178 0.014612
vt 0.468750 0.500000
vt 0.468750 1.000000
vt 0.203178 0.014612
vt 0.658156 0.028269
vt 0.437500 0.500000
vt 0.437500 1.000000
vt 0.158156 0.028269
vt 0.616663 0.050447
vt 0.406250 0.500000
vt 0.406250 1.000000
vt 0.116663 0.050447
vt 0.580294 0.080294
vt 0.375000 0.500000
vt 0.375000 1.000000
vt 0.080294 0.080294
vt 0.550447 0.116663
vt 0.343750 0.500000
vt 0.343750 1.000000
vt 0.050447 0.116663
vt 0.528269 0.158156
vt 0.312500 0.500000
vt 0.312500 1.000000
vt 0.028269 0.158156
vt 0.514612 0.203178
vt 0.281250 0.500000
vt 0.281250 1.000000
vt 0.014612 0.203178
vt 0.510000 0.250000
vt 0.250000 0.500000
vt 0.250000 1.000000
vt 0.010000 0.250000
vt 0.514612 0.296822
vt 0.218750 0.500000
vt 0.218750 1.000000
vt 0.014612 0.296822
vt 0.528269 0.341844
vt 0.187500 0.500000
vt 0.187500 1.000000
vt 0.028269 0.341844
vt 0.550447 0.383337
vt 0.156250 0.500000
vt 0.156250 1.000000
vt 0.050447 0.383337
vt 0.580294 0.419706
vt 0.125000 0.500000
vt 0.125000 1.000000
vt 0.080294 0.419706
vt 0.616663 0.449553
vt 0.093750 0.500000
vt 0.093750 1.000000
vt 0.116663 0.449553
vt 0.658156 0.471731
vt 0.062500 0.500000
vt 0.158156 0.471731
vt 0.062500 1.000000
vt 0.703178 0.485388
vt 0.031250 0.500000
vt 0.203178 0.485388
vt 0.031250 1.000000
vt 0.000000 0.750000
vt 1.000000 0.750000
vt 0.968750 0.750000
vt 0.937500 0.750000
vt 0.906250 0.750000
vt 0.875000 0.750000
vt 0.843750 0.750000
vt 0.812500 0.750000
vt 0.781250 0.750000
vt 0.750000 0.750000
vt 0.718750 0.750000
vt 0.687500 0.750000
vt 0.656250 0.750000
vt 0.625000 0.750000
vt 0.593750 0.750000
vt 0.562500 0.750000
vt 0.531250 0.750000
vt 0.500000 0.750000
vt 0.468750 0.750000
vt 0.437500 0.750000
vt 0.406250 0.750000
vt 0.375000 0.750000
vt 0.343750 0.750000
vt 0.312500 0.750000
vt 0.281250 0.750000
vt 0.250000 0.750000
vt 0.218750 0.750000
vt 0.187500 0.750000
vt 0.156250 0.750000
vt 0.125000 0.750000
vt 0.093750 0.750000
vt 0.062500 0.750000
vt 0.031250 0.750000
vt 0.000000 0.875000
vt 1.000000 0.875000
vt 0.968750 0.875000
vt 0.937500 0.875000
vt 0.906250 0.875000
vt 0.875000 0.875000
vt 0.843750 0.875000
vt 0.812500 0.875000
vt 0.781250 0.875000
vt 0.750000 0.875000
vt 0.718750 0.875000
vt 0.687500 0.875000
vt 0.656250 0.875000
vt 0.625000 0.875000
vt 0.593750 0.875000
vt 0.562500 0.875000
vt 0.531250 0.875000
vt 0.500000 0.875000
vt 0.468750 0.875000
vt 0.437500 0.875000
vt 0.406250 0.875000
vt 0.375000 0.875000
vt 0.343750 0.875000
vt 0.312500 0.875000
vt 0.281250 0.875000
vt 0.250000 0.875000
vt 0.218750 0.875000
vt 0.187500 0.875000
vt 0.156250 0.875000
vt 0.125000 0.875000
vt 0.093750 0.875000
vt 0.062500 0.875000
vt 0.031250 0.875000
vt 0.968750 0.625000
vt 0.937500 0.625000
vt 0.906250 0.625000
vt 0.875000 0.625000
vt 0.843750 0.625000
vt 0.812500 0.625000
vt 0.781250 0.625000
vt 0.750000 0.625000
vt 0.718750 0.625000
vt 0.687500 0.625000
vt 0.656250 0.625000
vt 0.625000 0.625000
vt 0.593750 0.625000
vt 0.562500 0.625000
vt 0.531250 0.625000
vt 0.500000 0.625000
vt 0.468750 0.625000
vt 0.437500 0.625000
vt 0.406250 0.625000
vt 0.375000 0.625000
vt 0.343750 0.625000
vt 0.312500 0.625000
vt 0.281250 0.625000
vt 0.250000 0.625000
vt 0.218750 0.625000
vt 0.187500 0.625000
vt 0.156250 0.625000
vt 0.125000 0.625000
vt 0.093750 0.625000
vt 0.062500 0.625000
vt 0.031250 0.625000
vt 1.000000 0.625000
vt 0.000000 0.625000
s 0
usemtl Material.001
f 97/165/1 2/4/1 4/9/1 98/166/1
f 98/166/2 4/9/2 6/13/2 99/167/2
f 99/167/3 6/13/3 8/17/3 100/168/3
f 100/168/4 8/17/4 10/21/4 101/169/4
f 101/169/5 10/21/5 12/25/5 102/170/5
f 102/170/6 12/25/6 14/29/6 103/171/6
f 103/171/7 14/29/7 16/33/7 104/172/7
f 104/172/8 16/33/8 18/37/8 105/173/8
f 105/173/9 18/37/9 20/41/9 106/174/9
f 106/174/10 20/41/10 22/45/10 107/175/10
f 107/175/11 22/45/11 24/49/11 108/176/11
f 108/176/12 24/49/12 26/53/12 109/177/12
f 109/177/13 26/53/13 28/57/13 110/178/13
f 110/178/14 28/57/14 30/61/14 111/179/14
f 111/179/15 30/61/15 32/65/15 112/180/15
f 112/180/16 32/65/16 34/69/16 113/181/16
f 113/181/17 34/69/17 36/73/17 114/182/17
f 114/182/18 36/73/18 38/77/18 115/183/18
f 115/183/19 38/77/19 40/81/19 116/184/19
f 116/184/20 40/81/20 42/85/20 117/185/20
f 117/185/21 42/85/21 44/89/21 118/186/21
f 118/186/22 44/89/22 46/93/22 119/187/22
f 119/187/23 46/93/23 48/97/23 120/188/23
f 120/188/24 48/97/24 50/101/24 121/189/24
f 121/189/25 50/101/25 52/105/25 122/190/25
f 122/190/26 52/105/26 54/109/26 123/191/26
f 123/191/27 54/109/27 56/113/27 124/192/27
f 124/192/28 56/113/28 58/117/28 125/193/28
f 125/193/29 58/117/29 60/121/29 126/194/29
f 126/194/30 60/121/30 62/126/30 127/195/30
f 4/10/31 2/5/31 64/129/31 62/125/31 60/122/31 58/118/31 56/114/31 54/110/31 52/106/31 50/102/31 48/98/31 46/94/31 44/90/31 42/86/31 40/82/31 38/78/31 36/74/31 34/70/31 32/66/31 30/62/31 28/58/31 26/54/31 24/50/31 22/46/31 20/42/31 18/38/31 16/34/31 14/30/31 12/26/31 10/22/31 8/18/31 6/14/31
f 127/195/32 62/126/32 64/130/32 128/196/32
f 128/196/33 64/130/33 2/6/33 97/164/33
f 1/1/34 3/7/34 5/11/34 7/15/34 9/19/34 11/23/34 13/27/34 15/31/34 17/35/34 19/39/34 21/43/34 23/47/34 25/51/34 27/55/34 29/59/34 31/63/34 33/67/34 35/71/34 37/75/34 39/79/34 41/83/34 43/87/34 45/91/34 47/95/34 49/99/34 51/103/34 53/107/34 55/111/34 57/115/34 59/119/34 61/123/34 63/127/34
f 159/227/35 96/163/35 65/131/35 160/229/35
f 158/226/36 95/162/36 96/163/36 159/227/36
f 157/225/37 94/161/37 95/162/37 158/226/37
f 156/224/38 93/160/38 94/161/38 157/225/38
f 155/223/39 92/159/39 93/160/39 156/224/39
f 154/222/40 91/158/40 92/159/40 155/223/40
f 153/221/41 90/157/41 91/158/41 154/222/41
f 152/220/42 89/156/42 90/157/42 153/221/42
f 151/219/43 88/155/43 89/156/43 152/220/43
f 150/218/44 87/154/44 88/155/44 151/219/44
f 149/217/45 86/153/45 87/154/45 150/218/45
f 148/216/46 85/152/46 86/153/46 149/217/46
f 147/215/47 84/151/47 85/152/47 148/216/47
f 146/214/48 83/150/48 84/151/48 147/215/48
f 145/213/49 82/149/49 83/150/49 146/214/49
f 144/212/50 81/148/50 82/149/50 145/213/50
f 143/211/51 80/147/51 81/148/51 144/212/51
f 142/210/52 79/146/52 80/147/52 143/211/52
f 141/209/53 78/145/53 79/146/53 142/210/53
f 140/208/54 77/144/54 78/145/54 141/209/54
f 139/207/55 76/143/55 77/144/55 140/208/55
f 138/206/56 75/142/56 76/143/56 139/207/56
f 137/205/57 74/141/57 75/142/57 138/206/57
f 136/204/58 73/140/58 74/141/58 137/205/58
f 135/203/59 72/139/59 73/140/59 136/204/59
f 134/202/60 71/138/60 72/139/60 135/203/60
f 133/201/61 70/137/61 71/138/61 134/202/61
f 132/200/62 69/136/62 70/137/62 133/201/62
f 131/199/63 68/135/63 69/136/63 132/200/63
f 130/198/64 67/134/64 68/135/64 131/199/64
f 129/197/65 66/133/65 67/134/65 130/198/65
f 160/228/66 65/132/66 66/133/66 129/197/66
f 96/163/67 128/196/67 97/164/67 65/131/67
f 95/162/68 127/195/68 128/196/68 96/163/68
f 94/161/69 126/194/69 127/195/69 95/162/69
f 93/160/70 125/193/70 126/194/70 94/161/70
f 92/159/71 124/192/71 125/193/71 93/160/71
f 91/158/72 123/191/72 124/192/72 92/159/72
f 90/157/73 122/190/73 123/191/73 91/158/73
f 89/156/74 121/189/74 122/190/74 90/157/74
f 88/155/75 120/188/75 121/189/75 89/156/75
f 87/154/76 119/187/76 120/188/76 88/155/76
f 86/153/77 118/186/77 119/187/77 87/154/77
f 85/152/78 117/185/78 118/186/78 86/153/78
f 84/151/79 116/184/79 117/185/79 85/152/79
f 83/150/80 115/183/80 116/184/80 84/151/80
f 82/149/81 114/182/81 115/183/81 83/150/81
f 81/148/82 113/181/82 114/182/82 82/149/82
f 80/147/83 112/180/83 113/181/83 81/148/83
f 79/146/84 111/179/84 112/180/84 80/147/84
f 78/145/85 110/178/85 111/179/85 79/146/85
f 77/144/86 109/177/86 110/178/86 78/145/86
f 76/143/87 108/176/87 109/177/87 77/144/87
f 75/142/88 107/175/88 108/176/88 76/143/88
f 74/141/89 106/174/89 107/175/89 75/142/89
f 73/140/90 105/173/90 106/174/90 74/141/90
f 72/139/91 104/172/91 105/173/91 73/140/91
f 71/138/92 103/171/92 104/172/92 72/139/92
f 70/137/93 102/170/93 103/171/93 71/138/93
f 69/136/94 101/169/94 102/170/94 70/137/94
f 68/135/95 100/168/95 101/169/95 69/136/95
f 67/134/96 99/167/96 100/168/96 68/135/96
f 66/133/97 98/166/97 99/167/97 67/134/97
f 65/132/98 97/165/98 98/166/98 66/133/98
f 1/2/99 160/228/99 129/197/99 3/8/99
f 3/8/100 129/197/100 130/198/100 5/12/100
f 5/12/101 130/198/101 131/199/101 7/16/101
f 7/16/102 131/199/102 132/200/102 9/20/102
f 9/20/103 132/200/103 133/201/103 11/24/103
f 11/24/104 133/201/104 134/202/104 13/28/104
f 13/28/105 134/202/105 135/203/105 15/32/105
f 15/32/106 135/203/106 136/204/106 17/36/106
f 17/36/107 136/204/107 137/205/107 19/40/107
f 19/40/108 137/205/108 138/206/108 21/44/108
f 21/44/109 138/206/109 139/207/109 23/48/109
f 23/48/110 139/207/110 140/208/110 25/52/110
f 25/52/111 140/208/111 141/209/111 27/56/111
f 27/56/112 141/209/112 142/210/112 29/60/112
f 29/60/113 142/210/113 143/211/113 31/64/113
f 31/64/114 143/211/114 144/212/114 33/68/114
f 33/68/115 144/212/115 145/213/115 35/72/115
f 35/72/116 145/213/116 146/214/116 37/76/116
f 37/76/117 146/214/117 147/215/117 39/80/117
f 39/80/118 147/215/118 148/216/118 41/84/118
f 41/84/119 148/216/119 149/217/119 43/88/119
f 43/88/120 149/217/120 150/218/120 45/92/120
f 45/92/121 150/218/121 151/219/121 47/96/121
f 47/96/122 151/219/122 152/220/122 49/100/122
f 49/100/123 152/220/123 153/221/123 51/104/123
f 51/104/124 153/221/124 154/222/124 53/108/124
f 53/108/125 154/222/125 155/223/125 55/112/125
f 55/112/126 155/223/126 156/224/126 57/116/126
f 57/116/127 156/224/127 157/225/127 59/120/127
f 59/120/128 157/225/128 158/226/128 61/124/128
f 61/124/129 158/226/129 159/227/129 63/128/129
f 63/128/130 159/227/130 160/229/130 1/3/130
