# Blender v2.92.0 OBJ File: 'SuburbanHouse.blend'
# www.blender.org
mtllib SuburbanHouse.mtl
o SuburbanHouse_Cube.010
v 14.943510 -4.844243 -8.036539
v 14.943510 14.380335 -8.036539
v 14.943510 -4.844243 -10.051088
v 14.943510 14.380335 -10.051088
v 16.958059 -4.844243 -8.036539
v 16.958059 14.380335 -8.036539
v 16.958059 -4.844243 -10.051088
v 16.958059 14.380335 -10.051088
v -14.943510 -4.844243 -8.036539
v -14.943510 14.380335 -8.036539
v -14.943510 -4.844243 -10.051088
v -14.943510 14.380335 -10.051088
v -16.958059 -4.844243 -8.036539
v -16.958059 14.380335 -8.036539
v -16.958059 -4.844243 -10.051088
v -16.958059 14.380335 -10.051088
v 14.943510 -4.844243 8.036539
v 14.943510 14.380335 8.036539
v 14.943510 -4.844243 10.051088
v 14.943510 14.380335 10.051088
v 16.958059 -4.844243 8.036539
v 16.958059 14.380335 8.036539
v 16.958059 -4.844243 10.051088
v 16.958059 14.380335 10.051088
v -14.943510 -4.844243 8.036539
v -14.943510 14.380335 8.036539
v -14.943510 -4.844243 10.051088
v -14.943510 14.380335 10.051088
v -16.958059 -4.844243 8.036539
v -16.958059 14.380335 8.036539
v -16.958059 -4.844243 10.051088
v -16.958059 14.380335 10.051088
v 14.766603 14.116699 -8.534181
v 16.407501 14.116699 -9.482517
v 14.766603 -4.848146 -8.534181
v 16.407501 -4.848146 -9.482517
v 14.766603 14.116699 8.534181
v 16.407501 14.116699 9.482517
v 16.407501 -4.848146 9.482517
v 14.766603 -4.848146 8.534181
v -14.766603 14.116699 -8.534181
v -16.407501 14.116699 -9.482517
v -14.766603 -4.848146 -8.534181
v -16.407501 -4.848146 -9.482517
v -14.766603 14.116699 8.534181
v -16.407501 14.116699 9.482517
v -14.766603 -4.848146 8.534181
v -16.407501 -4.848146 9.482517
v 14.766603 14.116698 -2.522542
v 16.407501 14.116698 -2.522542
v 14.766603 14.116698 2.522542
v 16.407501 14.116698 2.522542
v 14.766603 -4.848145 2.522542
v 16.407501 -4.848145 2.522542
v 14.766603 -4.848145 -2.522542
v 16.407501 -4.848145 -2.522542
v 14.766603 1.795099 -8.534181
v 16.407501 1.795099 -9.482517
v -14.766603 1.795099 8.534181
v -16.407501 1.795099 9.482517
v 16.407501 1.795099 9.482517
v 14.766603 1.795099 8.534181
v -14.766603 1.795099 -8.534181
v -16.407501 1.795099 -9.482517
v 14.766603 1.795099 -2.522542
v 16.407501 1.795099 -2.522542
v 16.407501 1.795099 2.522542
v 14.766603 1.795099 2.522542
v -16.394051 -4.843756 9.470426
v 16.394051 -4.843756 9.470426
v -16.394051 -4.843756 -9.470426
v 16.394051 -4.843756 -9.470426
v -9.764044 4.762009 8.818310
v -9.764044 5.740065 8.818310
v -9.764044 4.762009 -8.818310
v -9.764044 5.740065 -8.818310
v 14.906687 4.762009 8.818310
v 14.906687 5.740065 8.818310
v 14.906687 4.762009 -8.818310
v 14.906687 5.740065 -8.818310
v -14.857923 -4.882118 3.230908
v -14.857923 -3.282118 3.230908
v -14.857923 -3.282118 1.630908
v -9.754452 -4.882118 3.230908
v -9.754452 -3.282118 3.230908
v -9.754452 -4.882118 1.630908
v -9.754452 -3.282118 1.630908
v -9.754452 -4.882118 0.130908
v -9.754452 -3.282118 0.130908
v -14.857923 -1.782118 1.630908
v -9.754452 -1.782118 1.630908
v -14.857923 -1.782118 0.130908
v -9.754452 -1.782118 0.130908
v -9.754452 -4.882118 -1.369092
v -9.754452 -3.282118 -1.369092
v -9.754452 -1.782118 -1.369092
v -14.857923 -0.282118 0.130908
v -14.857923 -0.282118 -1.369092
v -9.754452 -0.282118 0.130908
v -9.754452 -0.282118 -1.369092
v -9.754452 -4.882118 -2.869092
v -9.754452 -3.282118 -2.869092
v -9.754452 -1.782118 -2.869092
v -9.754452 -0.282118 -2.869092
v -14.857923 1.217883 -1.369092
v -9.754452 1.217883 -1.369092
v -14.857923 1.217883 -2.869092
v -9.754452 1.217883 -2.869092
v -9.754452 -4.882118 -4.369092
v -9.754452 -3.282118 -4.369092
v -9.754452 -1.782118 -4.369092
v -9.754452 -0.282118 -4.369092
v -9.754452 1.217883 -4.369092
v -14.857923 2.717882 -2.869092
v -9.754452 2.717882 -2.869092
v -14.857923 2.717882 -4.369092
v -9.754452 2.717882 -4.369092
v -9.754452 -4.882118 -5.869092
v -9.754452 -3.282118 -5.869092
v -9.754452 -1.782118 -5.869092
v -9.754452 -0.282118 -5.869092
v -9.754452 1.217883 -5.869092
v -9.754452 2.717882 -5.869092
v -14.857923 4.217883 -4.369092
v -14.857923 4.217883 -5.869092
v -9.754452 4.217883 -4.369092
v -9.754452 4.217883 -5.869092
v -9.754452 -4.882118 -7.369093
v -9.754452 -3.282118 -7.369093
v -9.754452 -1.782118 -7.369093
v -9.754452 -0.282118 -7.369093
v -9.754452 1.217883 -7.369093
v -9.754452 2.717882 -7.369093
v -9.754452 4.217883 -7.369093
v -14.857923 5.717883 -5.869092
v -14.857923 5.717883 -7.369093
v -9.754452 5.717883 -5.869092
v -9.754452 5.717883 -7.369093
v -9.754452 -4.882118 -8.766296
v -9.754452 -3.282118 -8.766296
v -9.754452 -1.782118 -8.766296
v -9.754452 -0.282118 -8.766296
v -9.754452 1.217883 -8.766296
v -9.754452 2.717882 -8.766296
v -9.754452 4.217883 -8.766296
v -14.857923 5.717883 -8.766296
v -9.754452 5.717883 -8.766296
v -17.332483 14.065698 11.883048
v -17.332483 15.716695 8.031321
v -17.332483 26.118937 0.000000
v -17.332483 23.748013 0.000000
v -17.332483 14.065698 -11.883048
v -17.332483 15.716695 -8.031321
v 17.332483 15.716695 8.031321
v 17.332483 14.065698 11.883048
v 17.332483 26.118937 0.000000
v 17.332483 23.748013 0.000000
v 17.332483 14.065698 -11.883048
v 17.332483 15.716695 -8.031321
v -16.368753 15.399610 8.982572
v -16.368753 24.382181 0.000000
v -16.368753 15.399610 -8.982572
v 16.368755 15.399610 -8.982572
v 16.368755 15.399610 8.982572
v 16.368755 24.382181 0.000000
v 3.541030 -2.284135 -8.335909
v 3.541030 2.284135 -8.335909
v 3.541030 -2.284135 -9.724722
v 3.541030 2.284135 -9.724722
v 9.617716 -2.284135 -8.335909
v 9.617716 2.284135 -8.335909
v 9.617716 -2.284135 -9.724722
v 9.617716 2.284135 -9.724722
v -3.541030 -2.284135 -8.335909
v -3.541030 2.284135 -8.335909
v -3.541030 -2.284135 -9.724722
v -3.541030 2.284135 -9.724722
v -9.617716 -2.284135 -8.335909
v -9.617716 2.284135 -8.335909
v -9.617716 -2.284135 -9.724722
v -9.617716 2.284135 -9.724722
v 3.541030 -2.284135 8.335909
v 3.541030 2.284135 8.335909
v 3.541030 -2.284135 9.724722
v 3.541030 2.284135 9.724722
v 9.617716 -2.284135 8.335909
v 9.617716 2.284135 8.335909
v 9.617716 -2.284135 9.724722
v 9.617716 2.284135 9.724722
v -3.541030 -2.284135 8.335909
v -3.541030 2.284135 8.335909
v -3.541030 -2.284135 9.724722
v -3.541030 2.284135 9.724722
v -9.617716 -2.284135 8.335909
v -9.617716 2.284135 8.335909
v -9.617716 -2.284135 9.724722
v -9.617716 2.284135 9.724722
vt 0.812903 0.470053
vt 0.812903 0.571768
vt 0.802244 0.571768
vt 0.802244 0.470053
vt 0.868828 0.617034
vt 0.868828 0.718750
vt 0.858169 0.718750
vt 0.858169 0.617034
vt 0.842529 0.022633
vt 0.842529 0.124349
vt 0.831870 0.124349
vt 0.831870 0.022633
vt 0.868828 0.764016
vt 0.868828 0.865731
vt 0.858170 0.865731
vt 0.858170 0.764016
vt 0.339251 0.965302
vt 0.349910 0.965302
vt 0.349910 0.975961
vt 0.339251 0.975961
vt 0.496526 0.698728
vt 0.507184 0.698728
vt 0.507184 0.800443
vt 0.496525 0.800443
vt 0.134482 0.791599
vt 0.145141 0.791599
vt 0.145141 0.893314
vt 0.134482 0.893314
vt 0.440600 0.698728
vt 0.451260 0.698728
vt 0.451260 0.800444
vt 0.440600 0.800444
vt 0.858169 0.470053
vt 0.868828 0.470053
vt 0.868828 0.571768
vt 0.858169 0.571768
vt 0.948819 0.094900
vt 0.948819 0.105559
vt 0.938160 0.105559
vt 0.938160 0.094900
vt 0.775946 0.022633
vt 0.786604 0.022633
vt 0.786604 0.124349
vt 0.775945 0.124349
vt 0.611452 0.791456
vt 0.622111 0.791456
vt 0.622111 0.893172
vt 0.611452 0.893172
vt 0.802244 0.617034
vt 0.812903 0.617034
vt 0.812903 0.718750
vt 0.802244 0.718750
vt 0.555527 0.791456
vt 0.566186 0.791456
vt 0.566186 0.893172
vt 0.555527 0.893172
vt 0.966708 0.675509
vt 0.966708 0.664850
vt 0.977367 0.664850
vt 0.977367 0.675509
vt 0.812903 0.764016
vt 0.812903 0.865731
vt 0.802244 0.865731
vt 0.802244 0.764016
vt 0.089216 0.791599
vt 0.089216 0.893314
vt 0.078557 0.893314
vt 0.078557 0.791599
vt 0.848813 0.241378
vt 0.848813 0.343093
vt 0.838154 0.343093
vt 0.838154 0.241378
vt 0.033292 0.791599
vt 0.033292 0.893314
vt 0.022633 0.893314
vt 0.022633 0.791599
vt 0.977367 0.619584
vt 0.966708 0.619584
vt 0.966708 0.608925
vt 0.977367 0.608925
vt 0.198661 0.031315
vt 0.198661 0.187572
vt 0.193643 0.196254
vt 0.193643 0.022633
vt 0.230468 0.031315
vt 0.230468 0.022633
vt 0.288968 0.187572
vt 0.293985 0.196254
vt 0.288968 0.031315
vt 0.293985 0.022633
vt 0.257160 0.031315
vt 0.257160 0.022633
vt 0.907590 0.423508
vt 0.907590 0.388359
vt 0.916272 0.388359
vt 0.916272 0.423508
vt 0.339251 0.920035
vt 0.339251 0.884887
vt 0.347933 0.884887
vt 0.347933 0.920035
vt 0.864658 0.910997
vt 0.864658 0.937690
vt 0.855977 0.937690
vt 0.855977 0.910997
vt 0.087826 0.251307
vt 0.087826 0.424929
vt 0.022633 0.424929
vt 0.022633 0.251307
vt 0.549924 0.178890
vt 0.484731 0.178890
vt 0.484731 0.022633
vt 0.549924 0.022633
vt 0.695531 0.022633
vt 0.695531 0.122975
vt 0.630338 0.122975
vt 0.630338 0.022633
vt 0.112940 0.681140
vt 0.112940 0.746333
vt 0.022633 0.746333
vt 0.022633 0.681140
vt 0.664948 0.241377
vt 0.664948 0.278202
vt 0.599754 0.278202
vt 0.599754 0.241377
vt 0.645834 0.680998
vt 0.645834 0.746191
vt 0.614027 0.746191
vt 0.614027 0.680998
vt 0.258836 0.241520
vt 0.258836 0.415141
vt 0.193643 0.415141
vt 0.193643 0.241520
vt 0.258836 0.616664
vt 0.193643 0.616664
vt 0.193643 0.460406
vt 0.258836 0.460406
vt 0.664948 0.304894
vt 0.664948 0.341720
vt 0.599754 0.341720
vt 0.599754 0.304894
vt 0.587334 0.680998
vt 0.587334 0.746191
vt 0.555527 0.746191
vt 0.555527 0.680998
vt 0.700096 0.304894
vt 0.700096 0.341720
vt 0.587334 0.645849
vt 0.555527 0.645849
vt 0.293984 0.241520
vt 0.293984 0.415141
vt 0.293984 0.616664
vt 0.293984 0.460406
vt 0.700096 0.241377
vt 0.700096 0.278202
vt 0.645834 0.645849
vt 0.614027 0.645849
vt 0.730680 0.022633
vt 0.730680 0.122975
vt 0.112940 0.645992
vt 0.022633 0.645992
vt 0.122974 0.251307
vt 0.122974 0.424929
vt 0.585073 0.178890
vt 0.585073 0.022633
vt 0.339251 0.196112
vt 0.339251 0.022633
vt 0.439466 0.022633
vt 0.439466 0.196112
vt 0.899253 0.334691
vt 0.894079 0.334691
vt 0.894079 0.241377
vt 0.899253 0.241377
vt 0.648841 0.470053
vt 0.648841 0.600584
vt 0.555527 0.600584
vt 0.555527 0.470053
vt 0.115947 0.470195
vt 0.115947 0.600726
vt 0.022633 0.600726
vt 0.022633 0.470195
vt 0.944520 0.340648
vt 0.944520 0.313645
vt 0.952456 0.313645
vt 0.952456 0.340648
vt 0.395335 0.707193
vt 0.386869 0.707193
vt 0.386869 0.698728
vt 0.395335 0.698728
vt 0.802245 0.910997
vt 0.810710 0.910997
vt 0.810710 0.937999
vt 0.802245 0.937999
vt 0.690933 0.195243
vt 0.690933 0.168241
vt 0.699399 0.168241
vt 0.699399 0.195243
vt 0.395335 0.715130
vt 0.386869 0.715130
vt 0.030569 0.938580
vt 0.030569 0.965582
vt 0.022633 0.965582
vt 0.022633 0.938580
vt 0.378933 0.715130
vt 0.378933 0.707193
vt 0.386869 0.723066
vt 0.395335 0.723066
vt 0.395335 0.731002
vt 0.386869 0.731002
vt 0.378933 0.723066
vt 0.616665 0.938437
vt 0.616665 0.965440
vt 0.608729 0.965440
vt 0.608729 0.938437
vt 0.957232 0.189953
vt 0.957232 0.162951
vt 0.965168 0.162951
vt 0.965168 0.189953
vt 0.378933 0.731002
vt 0.370997 0.723066
vt 0.370997 0.715130
vt 0.370997 0.731002
vt 0.378933 0.738939
vt 0.370997 0.738939
vt 0.386869 0.738939
vt 0.952456 0.241377
vt 0.952456 0.268379
vt 0.944520 0.268379
vt 0.944520 0.241377
vt 0.075835 0.965582
vt 0.075835 0.938580
vt 0.083771 0.938580
vt 0.083771 0.965582
vt 0.363060 0.731002
vt 0.363060 0.723066
vt 0.363060 0.738939
vt 0.370997 0.746875
vt 0.363060 0.746875
vt 0.386869 0.746875
vt 0.378933 0.746875
vt 0.395335 0.738939
vt 0.501739 0.923125
vt 0.501739 0.950128
vt 0.493803 0.950128
vt 0.493803 0.923125
vt 0.355124 0.738939
vt 0.355124 0.731002
vt 0.440601 0.950128
vt 0.440601 0.923126
vt 0.448537 0.923126
vt 0.448537 0.950128
vt 0.347188 0.746875
vt 0.355124 0.746875
vt 0.355124 0.754812
vt 0.347188 0.754812
vt 0.363060 0.754812
vt 0.395335 0.746875
vt 0.914094 0.961557
vt 0.914094 0.934555
vt 0.922030 0.934555
vt 0.922030 0.961557
vt 0.946096 0.022633
vt 0.946096 0.049635
vt 0.938160 0.049635
vt 0.938160 0.022633
vt 0.347188 0.738939
vt 0.339252 0.754812
vt 0.347188 0.762204
vt 0.339252 0.762204
vt 0.378933 0.754812
vt 0.386869 0.754812
vt 0.386869 0.762204
vt 0.378933 0.762204
vt 0.370997 0.754812
vt 0.370997 0.762204
vt 0.363060 0.762204
vt 0.395335 0.754812
vt 0.555527 0.965440
vt 0.555527 0.938437
vt 0.563464 0.938437
vt 0.563464 0.965440
vt 0.645667 0.168241
vt 0.645667 0.195243
vt 0.637731 0.195243
vt 0.637731 0.168241
vt 0.339252 0.746875
vt 0.355124 0.762204
vt 0.630338 0.195243
vt 0.630338 0.168241
vt 0.395335 0.762204
vt 0.756979 0.595798
vt 0.694107 0.532926
vt 0.706652 0.532926
vt 0.749146 0.575418
vt 0.756979 0.470053
vt 0.749146 0.490432
vt 0.749146 0.746428
vt 0.749146 0.661442
vt 0.756979 0.641063
vt 0.756979 0.766808
vt 0.694107 0.703936
vt 0.706652 0.703936
vt 0.402122 0.470052
vt 0.402122 0.653461
vt 0.339251 0.653461
vt 0.339251 0.470052
vt 0.469502 0.241377
vt 0.511995 0.241377
vt 0.511995 0.424787
vt 0.469502 0.424787
vt 0.148377 0.022633
vt 0.148377 0.206042
vt 0.022633 0.206042
vt 0.022633 0.022633
vt 0.424237 0.424787
vt 0.339251 0.424787
vt 0.339251 0.241377
vt 0.424237 0.241377
vt 0.447390 0.470052
vt 0.510262 0.470052
vt 0.510262 0.653461
vt 0.447390 0.653461
vt 0.554489 0.241377
vt 0.554489 0.424787
vt 0.887794 0.070159
vt 0.887794 0.027666
vt 0.892894 0.022633
vt 0.892894 0.070159
vt 0.887794 0.112652
vt 0.892894 0.117685
vt 0.193644 0.709456
vt 0.241169 0.756983
vt 0.241169 0.661930
vt 0.792887 0.241377
vt 0.745361 0.288903
vt 0.792887 0.336430
vt 0.286434 0.751949
vt 0.286434 0.666964
vt 0.291533 0.661930
vt 0.291533 0.756983
vt 0.193643 0.892267
vt 0.193643 0.849774
vt 0.198742 0.849774
vt 0.198742 0.897301
vt 0.193643 0.807281
vt 0.198742 0.802248
vt 0.244008 0.892267
vt 0.244008 0.807281
vt 0.249107 0.802248
vt 0.249107 0.897301
vt 0.253605 0.942566
vt 0.253605 0.966736
vt 0.246257 0.966736
vt 0.246257 0.942566
vt 0.363422 0.839621
vt 0.339252 0.839621
vt 0.339252 0.807469
vt 0.363422 0.807469
vt 0.200991 0.942566
vt 0.200991 0.966736
vt 0.193643 0.966736
vt 0.193643 0.942566
vt 0.762797 0.419137
vt 0.738627 0.419137
vt 0.738627 0.386986
vt 0.762797 0.386986
vt 0.921442 0.779721
vt 0.921442 0.811872
vt 0.914094 0.811872
vt 0.914094 0.779721
vt 0.701455 0.889489
vt 0.701455 0.921640
vt 0.694107 0.921640
vt 0.694107 0.889489
vt 0.797278 0.171073
vt 0.804627 0.171073
vt 0.804627 0.195243
vt 0.797278 0.195243
vt 0.862324 0.388359
vt 0.862324 0.420510
vt 0.838154 0.420510
vt 0.838154 0.388359
vt 0.961537 0.388359
vt 0.968885 0.388359
vt 0.968885 0.412529
vt 0.961537 0.412529
vt 0.693362 0.386986
vt 0.693362 0.419137
vt 0.669191 0.419137
vt 0.669191 0.386986
vt 0.921442 0.502204
vt 0.914094 0.502204
vt 0.914094 0.470053
vt 0.921442 0.470053
vt 0.921442 0.889289
vt 0.914094 0.889289
vt 0.914094 0.857138
vt 0.921442 0.857138
vt 0.744664 0.171073
vt 0.752013 0.171073
vt 0.752013 0.195243
vt 0.744664 0.195243
vt 0.464771 0.845709
vt 0.464771 0.877860
vt 0.440601 0.877860
vt 0.440601 0.845709
vt 0.129037 0.938580
vt 0.136385 0.938580
vt 0.136385 0.962750
vt 0.129037 0.962750
vt 0.623925 0.386986
vt 0.623925 0.419137
vt 0.599755 0.419137
vt 0.599755 0.386986
vt 0.746720 0.889490
vt 0.754068 0.889490
vt 0.754068 0.921641
vt 0.746720 0.921641
vt 0.914094 0.702304
vt 0.921442 0.702304
vt 0.921442 0.734455
vt 0.914094 0.734455
vt 0.974056 0.470053
vt 0.974056 0.494223
vt 0.966708 0.494223
vt 0.966708 0.470053
vt 0.911965 0.195102
vt 0.887795 0.195102
vt 0.887795 0.162951
vt 0.911965 0.162951
vt 0.974056 0.539489
vt 0.974056 0.563659
vt 0.966708 0.563659
vt 0.966708 0.539489
vt 0.718277 0.844224
vt 0.694107 0.844224
vt 0.694107 0.812073
vt 0.718277 0.812073
vt 0.914094 0.657038
vt 0.914094 0.624887
vt 0.921442 0.624887
vt 0.921442 0.657038
vt 0.914094 0.579621
vt 0.914094 0.547470
vt 0.921442 0.547470
vt 0.921442 0.579621
vn -1.0000 0.0000 0.0000
vn 0.0000 0.0000 -1.0000
vn 1.0000 0.0000 0.0000
vn 0.0000 0.0000 1.0000
vn 0.0000 1.0000 0.0000
vn 0.0000 -1.0000 0.0000
vn 0.0000 0.7021 0.7121
vn 0.0000 -0.7071 -0.7071
vn 0.0000 0.7021 -0.7121
vn 0.0000 -0.7071 0.7071
vn 0.4219 0.6411 -0.6411
vn 0.4219 0.6411 0.6411
vn -0.3125 -0.9499 0.0000
vn -0.4219 0.6411 -0.6411
vn -0.4219 0.6411 0.6411
vn 0.3125 -0.9499 0.0000
usemtl Material
s off
f 1/1/1 2/2/1 4/3/1 3/4/1
f 3/5/2 4/6/2 8/7/2 7/8/2
f 7/9/3 8/10/3 6/11/3 5/12/3
f 5/13/4 6/14/4 2/15/4 1/16/4
f 8/17/5 4/18/5 2/19/5 6/20/5
f 9/21/3 11/22/3 12/23/3 10/24/3
f 11/25/2 15/26/2 16/27/2 12/28/2
f 15/29/1 13/30/1 14/31/1 16/32/1
f 13/33/4 9/34/4 10/35/4 14/36/4
f 16/37/5 14/38/5 10/39/5 12/40/5
f 17/41/1 19/42/1 20/43/1 18/44/1
f 19/45/4 23/46/4 24/47/4 20/48/4
f 23/49/3 21/50/3 22/51/3 24/52/3
f 21/53/2 17/54/2 18/55/2 22/56/2
f 24/57/5 22/58/5 18/59/5 20/60/5
f 25/61/3 26/62/3 28/63/3 27/64/3
f 27/65/4 28/66/4 32/67/4 31/68/4
f 31/69/1 32/70/1 30/71/1 29/72/1
f 29/73/2 30/74/2 26/75/2 25/76/2
f 32/77/5 28/78/5 26/79/5 30/80/5
f 37/81/5 45/82/5 46/83/5 38/84/5
f 51/85/5 37/81/5 38/84/5 52/86/5
f 45/82/5 41/87/5 42/88/5 46/83/5
f 41/87/5 33/89/5 34/90/5 42/88/5
f 33/89/5 49/91/5 50/92/5 34/90/5
f 65/93/4 55/94/4 56/95/4 66/96/4
f 67/97/2 54/98/2 53/99/2 68/100/2
f 49/91/5 51/85/5 52/86/5 50/92/5
f 66/101/6 67/102/6 68/103/6 65/104/6
f 60/105/4 61/106/4 38/107/4 46/108/4
f 59/109/2 45/110/2 37/111/2 62/112/2
f 64/113/1 60/114/1 46/115/1 42/116/1
f 63/117/3 41/118/3 45/119/3 59/120/3
f 61/121/3 67/122/3 52/123/3 38/124/3
f 62/125/1 37/126/1 51/127/1 68/128/1
f 58/129/2 64/130/2 42/131/2 34/132/2
f 57/133/4 33/134/4 41/135/4 63/136/4
f 66/137/3 58/138/3 34/139/3 50/140/3
f 65/141/1 49/142/1 33/143/1 57/144/1
f 56/145/3 36/146/3 58/138/3 66/137/3
f 55/147/1 65/141/1 57/144/1 35/148/1
f 36/149/2 44/150/2 64/130/2 58/129/2
f 35/151/4 57/133/4 63/136/4 43/152/4
f 39/153/3 54/154/3 67/122/3 61/121/3
f 40/155/1 62/125/1 68/128/1 53/156/1
f 44/157/1 48/158/1 60/114/1 64/113/1
f 43/159/3 63/117/3 59/120/3 47/160/3
f 48/161/4 39/162/4 61/106/4 60/105/4
f 47/163/2 59/109/2 62/112/2 40/164/2
f 67/122/3 66/137/3 50/140/3 52/123/3
f 68/128/1 51/127/1 49/142/1 65/141/1
f 69/165/5 70/166/5 72/167/5 71/168/5
f 73/169/1 74/170/1 76/171/1 75/172/1
f 75/173/6 79/174/6 77/175/6 73/176/6
f 80/177/5 76/178/5 74/179/5 78/180/5
f 83/181/4 87/182/4 91/183/4 90/184/4
f 86/185/3 87/186/3 85/187/3 84/188/3
f 84/189/4 85/190/4 82/191/4 81/192/4
f 87/193/5 83/194/5 82/195/5 85/196/5
f 87/186/3 86/185/3 88/197/3 89/198/3
f 90/199/5 91/200/5 93/201/5 92/202/5
f 87/186/3 89/198/3 93/203/3 91/204/3
f 95/205/3 94/206/3 101/207/3 102/208/3
f 93/203/3 89/198/3 95/205/3 96/209/3
f 89/198/3 88/197/3 94/206/3 95/205/3
f 97/210/5 99/211/5 100/212/5 98/213/5
f 92/214/4 93/215/4 99/216/4 97/217/4
f 96/209/3 95/205/3 102/208/3 103/218/3
f 93/203/3 96/209/3 100/219/3 99/220/3
f 104/221/3 103/218/3 111/222/3 112/223/3
f 103/218/3 102/208/3 110/224/3 111/222/3
f 100/219/3 96/209/3 103/218/3 104/221/3
f 105/225/5 106/226/5 108/227/5 107/228/5
f 98/229/4 100/230/4 106/231/4 105/232/4
f 100/219/3 104/221/3 108/233/3 106/234/3
f 113/235/3 112/223/3 121/236/3 122/237/3
f 111/222/3 110/224/3 119/238/3 120/239/3
f 102/208/3 101/207/3 109/240/3 110/224/3
f 108/233/3 104/221/3 112/223/3 113/235/3
f 114/241/5 115/242/5 117/243/5 116/244/5
f 108/233/3 113/235/3 117/245/3 115/246/3
f 107/247/4 108/248/4 115/249/4 114/250/4
f 127/251/3 123/252/3 133/253/3 134/254/3
f 123/252/3 122/237/3 132/255/3 133/253/3
f 117/245/3 113/235/3 122/237/3 123/252/3
f 112/223/3 111/222/3 120/239/3 121/236/3
f 110/224/3 109/240/3 118/256/3 119/238/3
f 116/257/4 117/258/4 126/259/4 124/260/4
f 124/261/5 126/262/5 127/263/5 125/264/5
f 117/245/3 123/252/3 127/251/3 126/265/3
f 138/266/3 134/254/3 145/267/3 147/268/3
f 130/269/3 129/270/3 140/271/3 141/272/3
f 132/255/3 131/273/3 142/274/3 143/275/3
f 121/236/3 120/239/3 130/269/3 131/273/3
f 119/238/3 118/256/3 128/276/3 129/270/3
f 125/277/4 127/278/4 137/279/4 135/280/4
f 122/237/3 121/236/3 131/273/3 132/255/3
f 120/239/3 119/238/3 129/270/3 130/269/3
f 135/281/5 137/282/5 138/283/5 136/284/5
f 127/251/3 134/254/3 138/266/3 137/285/3
f 133/253/3 132/255/3 143/275/3 144/286/3
f 136/284/5 138/283/5 147/287/5 146/288/5
f 131/273/3 130/269/3 141/272/3 142/274/3
f 129/270/3 128/276/3 139/289/3 140/271/3
f 134/254/3 133/253/3 144/286/3 145/267/3
f 148/290/1 150/291/1 151/292/1 149/293/1
f 150/291/1 152/294/1 153/295/1 151/292/1
f 159/296/3 154/297/3 155/298/3 158/299/3
f 152/294/1 148/290/1 149/293/1 153/295/1
f 158/299/3 156/300/3 157/301/3 159/296/3
f 156/300/3 155/298/3 154/297/3 157/301/3
f 148/302/7 155/303/7 156/304/7 150/305/7
f 149/306/8 151/307/8 157/308/8 154/309/8
f 152/310/6 158/311/6 155/312/6 148/313/6
f 153/314/5 149/315/5 154/316/5 159/317/5
f 156/318/9 158/319/9 152/320/9 150/321/9
f 157/308/10 151/307/10 153/322/10 159/323/10
f 157/324/11 159/325/11 163/326/11 165/327/11
f 154/328/12 157/324/12 165/327/12 164/329/12
f 165/330/3 164/331/3 163/332/3
f 160/333/1 161/334/1 162/335/1
f 149/336/13 153/337/13 162/338/13 160/339/13
f 153/340/14 151/341/14 161/342/14 162/343/14
f 151/341/15 149/344/15 160/345/15 161/342/15
f 159/346/16 154/347/16 164/348/16 163/349/16
f 166/350/1 167/351/1 169/352/1 168/353/1
f 168/354/2 169/355/2 173/356/2 172/357/2
f 172/358/3 173/359/3 171/360/3 170/361/3
f 170/362/4 171/363/4 167/364/4 166/365/4
f 168/366/6 172/367/6 170/368/6 166/369/6
f 173/370/5 169/371/5 167/372/5 171/373/5
f 174/374/3 176/375/3 177/376/3 175/377/3
f 176/378/2 180/379/2 181/380/2 177/381/2
f 180/382/1 178/383/1 179/384/1 181/385/1
f 178/386/4 174/387/4 175/388/4 179/389/4
f 176/390/6 174/391/6 178/392/6 180/393/6
f 181/394/5 179/395/5 175/396/5 177/397/5
f 182/398/1 184/399/1 185/400/1 183/401/1
f 184/402/4 188/403/4 189/404/4 185/405/4
f 188/406/3 186/407/3 187/408/3 189/409/3
f 186/410/2 182/411/2 183/412/2 187/413/2
f 184/414/6 182/415/6 186/416/6 188/417/6
f 189/418/5 187/419/5 183/420/5 185/421/5
f 190/422/3 191/423/3 193/424/3 192/425/3
f 192/426/4 193/427/4 197/428/4 196/429/4
f 196/430/1 197/431/1 195/432/1 194/433/1
f 194/434/2 195/435/2 191/436/2 190/437/2
f 192/438/6 196/439/6 194/440/6 190/441/6
f 197/442/5 193/443/5 191/444/5 195/445/5
